<svg width="459" height="730" viewBox="0 0 459 730" fill="none" xmlns="http://www.w3.org/2000/svg">
<path d="M317.791 470.453L317.1 471.322C268.81 532.039 243.439 563.939 226.814 594.866C210.1 625.958 202.23 656.056 188.762 713.386C175.349 770.477 121.55 810.968 61.1651 821.78C0.801552 832.588 -66.0188 813.711 -105.437 752.206C-125.245 721.299 -151.042 694.839 -177.813 669.54C-184.8 662.937 -191.852 656.414 -198.881 649.912C-218.799 631.488 -238.537 613.232 -256.108 593.788C-279.872 567.492 -299.635 539.064 -310.457 505.207C-321.277 471.357 -323.171 432.043 -311.14 383.956C-299.103 335.844 -282.288 304.262 -260.575 282.599C-238.864 260.938 -212.211 249.148 -180.402 240.702C-159.608 235.181 -136.651 231.096 -111.451 226.614C-98.0735 224.234 -84.0642 221.741 -69.411 218.862C-27.1792 210.563 20.3259 199.06 73.2491 177.784C126.03 156.564 173.762 156.622 214.153 170.526C254.55 184.432 287.638 212.202 311.1 246.46C358.043 315.006 366.366 409.377 317.791 470.453Z" stroke="#D8D7DB"/>
<path d="M304.789 470.412L304.124 471.248C257.807 529.484 233.47 560.084 217.523 589.75C201.49 619.575 193.941 648.448 181.022 703.438C168.159 758.189 116.564 797.023 58.6496 807.392C0.756235 817.758 -63.328 799.653 -101.132 740.667C-120.133 711.019 -144.879 685.638 -170.557 661.371C-177.259 655.037 -184.024 648.78 -190.767 642.543C-209.871 624.872 -228.802 607.361 -245.656 588.712C-268.448 563.49 -287.403 536.225 -297.782 503.754C-308.159 471.289 -309.976 433.583 -298.437 387.462C-286.891 341.316 -270.764 311.027 -249.941 290.252C-229.12 269.478 -203.558 258.171 -173.049 250.07C-153.105 244.774 -131.086 240.857 -106.915 236.557C-94.0838 234.274 -80.6457 231.884 -66.5896 229.122C-26.0808 221.162 19.4869 210.127 70.2517 189.719C120.874 169.367 166.653 169.423 205.39 182.757C244.134 196.095 275.868 222.728 298.37 255.585C343.394 321.328 351.375 411.838 304.789 470.412Z" stroke="#D8D7DB"/>
<path d="M290.984 470.368L290.348 471.167C246.125 526.771 222.886 555.99 207.658 584.318C192.348 612.799 185.14 640.369 172.805 692.874C160.525 745.141 111.271 782.215 55.9788 792.115C0.708135 802.011 -60.4708 784.727 -96.5607 728.415C-114.705 700.104 -138.334 675.868 -162.853 652.697C-169.253 646.648 -175.712 640.674 -182.151 634.719C-200.392 617.846 -218.466 601.128 -234.557 583.322C-256.319 559.241 -274.415 533.211 -284.324 502.211C-294.231 471.217 -295.966 435.219 -284.949 391.185C-273.925 347.126 -258.529 318.21 -238.65 298.377C-218.773 278.546 -194.37 267.751 -165.242 260.017C-146.199 254.961 -125.177 251.221 -102.099 247.115C-89.8474 244.936 -77.0159 242.653 -63.5938 240.015C-24.9144 232.415 18.596 221.879 67.069 202.391C115.4 182.961 159.104 183.015 196.086 195.745C233.074 208.478 263.371 233.904 284.854 265.273C327.84 328.041 335.457 414.45 290.984 470.368Z" stroke="#D8D7DB"/>
<path d="M276.612 470.322L276.004 471.087C233.962 523.947 211.868 551.728 197.389 578.662C182.831 605.744 175.977 631.959 164.25 681.878C152.578 731.557 105.76 766.8 53.1983 776.211C0.658058 785.618 -57.4963 769.188 -91.8021 715.659C-109.054 688.741 -131.521 665.697 -154.832 643.667C-160.917 637.916 -167.059 632.236 -173.18 626.574C-190.522 610.533 -207.705 594.639 -223.003 577.711C-243.692 554.818 -260.894 530.072 -270.313 500.604C-279.731 471.142 -281.381 436.922 -270.907 395.061C-260.427 353.175 -245.791 325.688 -226.896 306.837C-208.002 287.986 -184.806 277.725 -157.115 270.372C-139.011 265.565 -119.026 262.01 -97.0859 258.106C-85.4371 256.034 -73.2372 253.864 -60.4752 251.356C-23.7002 244.13 17.6686 234.112 63.7558 215.584C109.701 197.113 151.246 197.164 186.4 209.266C221.561 221.369 250.361 245.54 270.783 275.36C311.648 335.029 318.886 417.17 276.612 470.322Z" stroke="#D8D7DB"/>
<path d="M262.745 470.278L262.165 471.006C222.227 521.222 201.235 547.615 187.479 573.205C173.647 598.936 167.136 623.844 155.995 671.266C144.91 718.45 100.442 751.925 50.5152 760.865C0.609689 769.8 -54.6262 754.194 -87.2103 703.351C-103.602 677.776 -124.947 655.882 -147.093 634.954C-152.875 629.49 -158.709 624.093 -164.525 618.714C-181 603.475 -197.322 588.377 -211.855 572.297C-231.508 550.549 -247.847 527.044 -256.794 499.054C-265.739 471.07 -267.307 438.565 -257.358 398.801C-247.403 359.012 -233.499 332.904 -215.553 314.999C-197.609 297.096 -175.577 287.349 -149.272 280.364C-132.075 275.798 -113.09 272.42 -92.2479 268.712C-81.1814 266.744 -69.5909 264.682 -57.4658 262.299C-22.5285 255.434 16.7736 245.917 60.5586 228.314C104.201 210.769 143.664 210.818 177.054 222.312C210.451 233.809 237.807 256.767 257.206 285.092C296.023 341.772 302.896 419.794 262.745 470.278Z" stroke="#D8D7DB"/>
<path d="M248.334 470.232L247.784 470.923C210.032 518.39 190.187 543.342 177.182 567.535C164.104 591.862 157.948 615.411 147.416 660.24C136.941 704.829 94.916 736.469 47.7272 744.918C0.559497 753.363 -51.6436 738.613 -82.4388 690.562C-97.9355 666.382 -118.116 645.684 -139.051 625.899C-144.517 620.734 -150.033 615.632 -155.53 610.547C-171.104 596.142 -186.533 581.871 -200.269 566.67C-218.846 546.114 -234.289 523.898 -242.745 497.443C-251.199 470.994 -252.682 440.273 -243.278 402.688C-233.868 365.078 -220.727 340.402 -203.767 323.481C-186.808 306.562 -165.987 297.349 -141.123 290.747C-124.867 286.431 -106.923 283.239 -87.2208 279.734C-76.7592 277.873 -65.802 275.923 -54.3386 273.671C-21.311 267.181 15.8437 258.184 57.2364 241.543C98.4867 224.959 135.784 225.006 167.342 235.87C198.906 246.735 224.762 268.434 243.097 295.206C279.787 348.78 286.279 422.521 248.334 470.232Z" stroke="#D8D7DB"/>
<path d="M234.786 470.188L234.263 470.846C198.567 515.728 179.8 539.324 167.501 562.203C155.133 585.211 149.311 607.483 139.352 649.873C129.449 692.024 89.7209 721.937 45.106 729.925C0.512272 737.91 -48.8397 723.964 -77.9529 678.538C-92.6087 655.67 -111.694 636.096 -131.49 617.387C-136.659 612.502 -141.875 607.677 -147.074 602.869C-161.801 589.247 -176.389 575.753 -189.378 561.381C-206.943 541.944 -221.543 520.939 -229.538 495.928C-237.53 470.924 -238.932 441.878 -230.041 406.342C-221.143 370.78 -208.719 347.452 -192.686 331.455C-176.655 315.461 -156.97 306.751 -133.461 300.509C-118.09 296.427 -101.124 293.409 -82.4945 290.095C-72.6017 288.335 -62.2398 286.492 -51.3987 284.361C-20.1664 278.224 14.9694 269.716 54.113 253.98C93.1142 238.3 128.377 238.345 158.211 248.615C188.052 258.888 212.498 279.402 229.832 304.714C264.522 355.368 270.658 425.085 234.786 470.188Z" stroke="#D8D7DB"/>
<path d="M222.012 470.148L221.515 470.772C187.756 513.218 170.006 535.536 158.373 557.177C146.674 578.94 141.166 600.008 131.748 640.099C122.385 679.951 84.8225 708.235 42.6346 715.789C0.467721 723.339 -46.1959 710.152 -73.7233 667.2C-87.5862 645.57 -105.638 627.055 -124.362 609.361C-129.251 604.74 -134.184 600.177 -139.101 595.629C-153.029 582.746 -166.825 569.985 -179.108 556.393C-195.719 538.012 -209.525 518.15 -217.085 494.5C-224.642 470.857 -225.968 443.392 -217.56 409.787C-209.146 376.156 -197.397 354.098 -182.238 338.974C-167.081 323.852 -148.469 315.616 -126.237 309.713C-111.701 305.853 -95.6567 302.999 -78.0383 299.865C-68.6818 298.2 -58.8812 296.457 -48.6267 294.442C-19.0872 288.637 14.145 280.59 51.168 265.706C88.0486 250.879 121.392 250.922 149.602 260.633C177.819 270.346 200.934 289.744 217.326 313.679C250.13 361.579 255.929 427.502 222.012 470.148Z" stroke="#D8D7DB"/>
<path d="M210.37 470.11L209.898 470.704C177.905 510.93 161.081 532.084 150.054 552.596C138.965 573.226 133.744 593.196 124.818 631.191C115.948 668.948 80.3586 695.749 40.3823 702.907C0.427157 710.061 -43.7865 697.565 -69.8687 656.869C-83.009 636.365 -100.12 618.817 -117.865 602.046C-122.499 597.667 -127.175 593.342 -131.835 589.031C-145.035 576.822 -158.109 564.729 -169.75 551.848C-185.491 534.429 -198.573 515.608 -205.736 493.199C-212.897 470.796 -214.154 444.771 -206.186 412.926C-198.212 381.056 -187.079 360.156 -172.717 345.826C-158.356 331.498 -140.722 323.695 -119.654 318.101C-105.878 314.443 -90.6741 311.738 -73.9773 308.768C-65.1094 307.19 -55.8204 305.538 -46.1005 303.628C-18.1036 298.126 13.3937 290.499 48.4842 276.392C83.4322 262.342 115.027 262.383 141.756 271.585C168.493 280.788 190.395 299.169 205.928 321.849C237.014 367.24 242.506 429.705 210.37 470.11Z" stroke="#D8D7DB"/>
<path d="M197.493 470.069L197.047 470.63C167.008 508.399 151.208 528.265 140.853 547.529C130.437 566.904 125.535 585.661 117.153 621.338C108.827 656.777 75.4208 681.937 37.891 688.657C0.382299 695.373 -41.1214 683.642 -65.605 645.44C-77.9459 626.184 -94.0152 609.703 -110.679 593.956C-115.031 589.843 -119.422 585.781 -123.798 581.734C-136.192 570.269 -148.467 558.915 -159.397 546.821C-174.177 530.466 -186.458 512.796 -193.183 491.759C-199.905 470.729 -201.085 446.297 -193.605 416.399C-186.118 386.476 -175.666 366.856 -162.184 353.406C-148.705 339.957 -132.152 332.631 -112.372 327.379C-99.4371 323.944 -85.1626 321.405 -69.4849 318.616C-61.1577 317.135 -52.4346 315.583 -43.3061 313.789C-17.0156 308.623 12.5627 301.461 45.5155 288.213C78.3258 275.022 107.986 275.062 133.078 283.699C158.176 292.339 178.738 309.594 193.321 330.887C222.505 373.502 227.658 432.142 197.493 470.069Z" stroke="#D8D7DB"/>
<path d="M183.172 470.024L182.755 470.549C154.889 505.586 140.228 524.019 130.62 541.893C120.954 559.874 116.405 577.28 108.628 610.38C100.908 643.242 69.9295 666.577 35.1203 672.809C0.332359 679.038 -38.1576 668.159 -60.8633 632.73C-72.3153 614.861 -87.2266 599.568 -102.687 584.958C-106.726 581.141 -110.8 577.372 -114.86 573.617C-126.359 562.981 -137.746 552.449 -147.885 541.229C-161.595 526.058 -172.986 509.669 -179.222 490.158C-185.456 470.654 -186.552 447.994 -179.613 420.261C-172.668 392.503 -162.973 374.307 -150.472 361.835C-137.972 349.364 -122.622 342.569 -104.273 337.697C-92.2743 334.511 -79.0334 332.156 -64.4893 329.568C-56.7632 328.194 -48.6694 326.754 -40.1985 325.089C-15.8058 320.296 11.6385 313.651 42.214 301.359C72.647 289.124 100.156 289.161 123.427 297.172C146.704 305.185 165.775 321.188 179.3 340.937C206.37 380.465 211.146 434.851 183.172 470.024Z" stroke="#D8D7DB"/>
<path d="M169.162 469.979L168.773 470.467C143.033 502.832 129.487 519.864 120.608 536.38C111.676 552.997 107.472 569.082 100.288 599.66C93.1606 629.999 64.557 651.549 32.4097 657.305C0.283554 663.057 -35.2578 653.01 -56.2242 620.295C-66.8066 603.783 -80.5849 589.653 -94.8682 576.155C-98.5997 572.628 -102.364 569.146 -106.116 565.676C-116.738 555.851 -127.255 546.123 -136.621 535.759C-149.285 521.745 -159.804 506.609 -165.563 488.592C-171.321 470.581 -172.333 449.654 -165.924 424.04C-159.509 398.4 -150.555 381.597 -139.012 370.081C-127.471 358.567 -113.297 352.292 -96.3498 347.792C-85.2664 344.849 -73.0367 342.674 -59.6016 340.283C-52.4637 339.014 -44.9855 337.683 -37.1582 336.145C-14.622 331.717 10.7344 325.577 38.9839 314.22C67.091 302.92 92.495 302.955 113.984 310.353C135.479 317.752 153.091 332.53 165.583 350.77C190.585 387.278 194.991 437.503 169.162 469.979Z" stroke="#D8D7DB"/>
<path d="M155.099 469.934L154.739 470.387C131.132 500.069 118.705 515.694 110.56 530.846C102.363 546.094 98.5066 560.853 91.9175 588.9C85.3844 616.708 59.1647 636.466 29.6891 641.743C0.234546 647.017 -32.3474 637.805 -51.568 607.815C-61.2774 592.665 -73.9186 579.701 -87.0205 567.319C-90.4438 564.084 -93.8972 560.89 -97.3383 557.707C-107.081 548.695 -116.727 539.773 -125.316 530.269C-136.93 517.417 -146.574 503.539 -151.854 487.02C-157.133 470.508 -158.061 451.321 -152.184 427.832C-146.301 404.319 -138.091 388.914 -127.511 378.358C-116.932 367.804 -103.939 362.051 -88.3973 357.924C-78.2326 355.225 -67.018 353.23 -54.6959 351.038C-48.1483 349.874 -41.2881 348.653 -34.1066 347.242C-13.4339 343.18 9.82688 337.548 35.7419 327.129C61.5146 316.768 84.8059 316.801 104.507 323.582C124.214 330.366 140.361 343.915 151.814 360.639C174.741 394.116 178.776 440.164 155.099 469.934Z" stroke="#D8D7DB"/>
<path d="M141.037 469.889L140.705 470.307C119.232 497.306 107.924 511.524 100.511 525.313C93.0511 539.19 89.5412 552.624 83.5466 578.14C77.6082 603.417 53.7724 621.382 26.9684 626.182C0.185546 630.977 -29.4369 622.601 -46.9117 595.334C-55.7483 581.546 -67.2524 569.749 -79.1728 558.484C-82.2881 555.539 -85.4304 552.633 -88.5614 549.737C-97.425 541.538 -106.198 533.424 -114.011 524.779C-124.574 513.089 -133.344 500.468 -138.145 485.448C-142.944 470.435 -143.789 452.987 -138.445 431.625C-133.094 410.238 -125.627 396.231 -116.009 386.635C-106.393 377.041 -94.5801 371.81 -80.4447 368.057C-71.1988 365.602 -60.9992 363.787 -49.7902 361.793C-43.833 360.734 -37.5907 359.623 -31.055 358.339C-12.2458 354.643 8.91942 349.518 32.5 340.038C55.9381 330.615 77.117 330.646 95.0292 336.812C112.948 342.98 127.631 355.3 138.047 370.509C158.897 400.954 162.562 442.825 141.037 469.889Z" stroke="#D8D7DB"/>
<path d="M128.211 469.848L127.905 470.233C108.378 494.785 98.09 507.72 91.346 520.266C84.5575 532.894 81.3639 545.118 75.9117 568.326C70.5156 591.294 48.8541 607.625 24.4869 611.988C0.14084 616.347 -26.7824 608.733 -42.6649 583.951C-50.7053 571.405 -61.1722 560.672 -72.015 550.425C-74.8494 547.746 -77.7079 545.102 -80.556 542.468C-88.6175 535.011 -96.5946 527.632 -103.699 519.771C-113.305 509.141 -121.278 497.667 -125.642 484.014C-130.004 470.368 -130.773 454.507 -125.913 435.084C-121.047 415.636 -114.259 402.905 -105.519 394.185C-96.7799 385.466 -86.0443 380.711 -73.1914 377.298C-64.7835 375.066 -55.5096 373.416 -45.3159 371.602C-39.8971 370.639 -34.2184 369.628 -28.2717 368.46C-11.1622 365.098 8.09169 360.436 29.543 351.812C50.8519 343.245 70.104 343.274 86.3851 348.879C102.672 354.485 116.02 365.684 125.489 379.51C144.446 407.191 147.773 445.252 128.211 469.848Z" stroke="#D8D7DB"/>
<path d="M113.52 469.802L113.244 470.148C95.9454 491.899 86.8268 503.364 80.8485 514.485C74.8291 525.683 71.9979 536.522 67.1669 557.085C62.392 577.409 43.2209 591.868 21.6447 595.731C0.089669 599.59 -23.7419 592.849 -37.8006 570.913C-44.9291 559.79 -54.2081 550.275 -63.8166 541.194C-66.3292 538.82 -68.8628 536.476 -71.3869 534.142C-78.5296 527.535 -85.5953 520.999 -91.8889 514.035C-100.398 504.62 -107.456 494.46 -111.32 482.372C-115.182 470.291 -115.863 456.248 -111.56 439.046C-107.25 421.82 -101.238 410.549 -93.5032 402.832C-85.7696 395.116 -76.2675 390.906 -64.8835 387.883C-57.4354 385.906 -49.2218 384.444 -40.1909 382.838C-35.3889 381.984 -30.3558 381.088 -25.0838 380.052C-9.921 377.073 7.14367 372.941 26.1562 365.298C45.0263 357.711 62.0715 357.738 76.4842 362.699C90.9033 367.663 102.721 377.578 111.106 389.82C127.894 414.335 130.834 448.032 113.52 469.802Z" stroke="#D8D7DB"/>
<path d="M97.7682 469.751L97.5243 470.058C82.6154 488.803 74.7501 498.693 69.5929 508.287C64.3981 517.95 61.9554 527.304 57.7905 545.032C53.6817 562.521 37.1808 574.972 18.5972 578.3C0.0347862 581.623 -20.4818 575.818 -32.585 556.933C-38.7358 547.335 -46.741 539.127 -55.0261 531.297C-57.1937 529.249 -59.379 527.228 -61.5557 525.214C-67.7132 519.519 -73.8017 513.887 -79.2257 507.885C-86.5581 499.771 -92.6372 491.02 -95.9643 480.611C-99.2894 470.209 -99.8775 458.114 -96.1696 443.294C-92.4555 428.449 -87.2772 418.745 -80.6199 412.103C-73.9641 405.463 -65.7847 401.837 -55.9756 399.233C-49.5567 397.528 -42.48 396.269 -34.6959 394.885C-30.5551 394.148 -26.2142 393.376 -21.6656 392.482C-8.59017 389.913 6.12717 386.349 22.5248 379.757C38.78 373.222 53.4588 373.246 65.8683 377.518C78.2842 381.792 88.4622 390.33 95.6838 400.875C110.147 421.994 112.671 451.013 97.7682 469.751Z" stroke="#D8D7DB"/>
<path d="M82.2638 469.702L82.0516 469.969C69.4948 485.757 62.8631 494.095 58.5139 502.186C54.1309 510.339 52.0706 518.231 48.5613 533.169C45.1081 547.867 31.2355 558.343 15.5976 561.143C-0.019252 563.939 -17.2729 559.054 -27.4514 543.172C-32.6398 535.077 -39.3912 528.155 -46.3737 521.556C-48.2016 519.828 -50.044 518.124 -51.8786 516.427C-57.0665 511.629 -62.1933 506.887 -66.7613 501.832C-72.9359 494.999 -78.0507 487.635 -80.8496 478.878C-83.6465 470.128 -84.1426 459.951 -81.0212 447.476C-77.8936 434.975 -73.5354 426.813 -67.9389 421.229C-62.344 415.647 -55.4664 412.597 -47.2076 410.404C-41.8017 408.968 -35.8441 407.909 -29.2872 406.742C-25.7973 406.122 -22.1377 405.471 -18.3011 404.717C-7.28026 402.551 5.12661 399.547 18.9504 393.99C32.6317 388.489 44.9814 388.511 55.4191 392.105C65.8632 395.7 74.4268 402.882 80.504 411.756C92.6784 429.533 94.7943 453.947 82.2638 469.702Z" stroke="#D8D7DB"/>
</svg>
