<svg width="459" height="837" viewBox="0 0 459 837" fill="none" xmlns="http://www.w3.org/2000/svg">
<path d="M776.791 367.453L776.1 368.322C727.81 429.039 702.439 460.939 685.814 491.866C669.1 522.958 661.23 553.056 647.762 610.386C634.349 667.477 580.55 707.968 520.165 718.78C459.802 729.588 392.981 710.711 353.563 649.206C333.755 618.299 307.958 591.839 281.187 566.54C274.2 559.937 267.148 553.414 260.119 546.912C240.201 528.488 220.463 510.232 202.892 490.788C179.128 464.492 159.365 436.064 148.543 402.207C137.723 368.357 135.829 329.043 147.86 280.956C159.897 232.844 176.712 201.262 198.425 179.599C220.136 157.938 246.789 146.148 278.598 137.702C299.392 132.181 322.349 128.096 347.549 123.614C360.926 121.234 374.936 118.741 389.589 115.862C431.821 107.563 479.326 96.0601 532.249 74.7836C585.03 53.5644 632.762 53.6216 673.153 67.5258C713.55 81.4321 746.638 109.202 770.1 143.46C817.043 212.005 825.366 306.377 776.791 367.453Z" stroke="#D8D7DB"/>
<path d="M763.789 367.412L763.125 368.248C716.807 426.484 692.471 457.083 676.523 486.75C660.49 516.575 652.941 545.448 640.022 600.438C627.16 655.189 575.564 694.022 517.65 704.392C459.756 714.758 395.672 696.653 357.868 637.667C338.867 608.019 314.121 582.638 288.443 558.371C281.741 552.037 274.976 545.78 268.233 539.543C249.129 521.872 230.198 504.361 213.344 485.712C190.552 460.49 171.597 433.225 161.218 400.754C150.841 368.289 149.024 330.583 160.563 284.462C172.109 238.316 188.236 208.027 209.059 187.252C229.88 166.478 255.442 155.171 285.951 147.07C305.895 141.774 327.914 137.857 352.085 133.557C364.916 131.274 378.354 128.884 392.41 126.122C432.919 118.162 478.487 107.127 529.252 86.7187C579.874 66.3672 625.653 66.4225 664.39 79.7575C703.134 93.0946 734.868 119.728 757.37 152.585C802.394 218.328 810.375 308.838 763.789 367.412Z" stroke="#D8D7DB"/>
<path d="M749.984 367.368L749.348 368.167C705.125 423.771 681.886 452.99 666.658 481.318C651.348 509.799 644.14 537.369 631.804 589.874C619.525 642.14 570.27 679.215 514.979 689.115C459.708 699.011 398.529 681.727 362.439 625.414C344.295 597.104 320.666 572.868 296.147 549.697C289.747 543.648 283.288 537.674 276.849 531.719C258.608 514.846 240.534 498.128 224.443 480.322C202.681 456.241 184.585 430.211 174.676 399.211C164.769 368.217 163.034 332.219 174.051 288.185C185.075 244.126 200.471 215.21 220.35 195.377C240.226 175.546 264.629 164.751 293.758 157.017C312.8 151.96 333.823 148.221 356.9 144.115C369.153 141.936 381.984 139.653 395.406 137.015C434.086 129.415 477.596 118.879 526.069 99.3915C574.4 79.9613 618.104 80.0145 655.086 92.7451C692.074 105.478 722.371 130.904 743.854 162.273C786.84 225.041 794.457 311.45 749.984 367.368Z" stroke="#D8D7DB"/>
<path d="M735.612 367.322L735.004 368.087C692.962 420.947 670.868 448.728 656.389 475.662C641.831 502.744 634.977 528.959 623.25 578.878C611.578 628.557 564.76 663.8 512.198 673.211C459.658 682.618 401.504 666.188 367.198 612.659C349.946 585.741 327.478 562.697 304.168 540.667C298.082 534.916 291.941 529.236 285.82 523.574C268.478 507.533 251.294 491.639 235.997 474.711C215.308 451.818 198.106 427.072 188.687 397.604C179.269 368.142 177.619 333.922 188.093 292.061C198.573 250.175 213.209 222.688 232.104 203.836C250.998 184.986 274.194 174.725 301.885 167.372C319.989 162.565 339.974 159.01 361.914 155.106C373.563 153.034 385.763 150.864 398.525 148.356C435.3 141.13 476.669 131.112 522.756 112.584C568.701 94.1132 610.246 94.1642 645.4 106.266C680.561 118.369 709.361 142.54 729.783 172.36C770.648 232.029 777.886 314.17 735.612 367.322Z" stroke="#D8D7DB"/>
<path d="M721.745 367.277L721.165 368.006C681.227 418.222 660.235 444.615 646.479 470.205C632.647 495.936 626.136 520.844 614.995 568.266C603.91 615.45 559.442 648.925 509.515 657.865C459.61 666.8 404.374 651.194 371.79 600.351C355.398 574.776 334.053 552.882 311.907 531.954C306.125 526.49 300.291 521.093 294.475 515.714C278 500.475 261.678 485.377 247.145 469.297C227.492 447.549 211.153 424.044 202.206 396.054C193.261 368.069 191.693 335.565 201.642 295.801C211.597 256.012 225.501 229.904 243.447 211.999C261.391 194.096 283.423 184.349 309.728 177.364C326.925 172.797 345.91 169.42 366.752 165.712C377.819 163.744 389.409 161.682 401.534 159.299C436.471 152.434 475.774 142.917 519.559 125.314C563.201 107.769 602.664 107.818 636.054 119.312C669.451 130.809 696.807 153.767 716.206 182.092C755.023 238.772 761.896 316.794 721.745 367.277Z" stroke="#D8D7DB"/>
<path d="M707.334 367.232L706.784 367.923C669.032 415.39 649.187 440.342 636.182 464.535C623.104 488.862 616.948 512.411 606.416 557.24C595.941 601.829 553.916 633.469 506.727 641.918C459.559 650.363 407.356 635.612 376.561 587.562C361.064 563.382 340.884 542.684 319.949 522.899C314.483 517.734 308.967 512.632 303.47 507.547C287.896 493.142 272.467 478.87 258.731 463.67C240.154 443.114 224.711 420.898 216.255 394.443C207.801 367.994 206.318 337.273 215.722 299.688C225.132 262.078 238.273 237.402 255.233 220.481C272.192 203.562 293.013 194.349 317.877 187.747C334.133 183.431 352.077 180.239 371.779 176.734C382.241 174.873 393.198 172.923 404.661 170.671C437.689 164.181 474.844 155.184 516.236 138.543C557.487 121.959 594.784 122.006 626.342 132.87C657.906 143.735 683.762 165.434 702.097 192.206C738.787 245.78 745.279 319.521 707.334 367.232Z" stroke="#D8D7DB"/>
<path d="M693.786 367.188L693.263 367.846C657.567 412.728 638.8 436.324 626.501 459.203C614.133 482.211 608.311 504.483 598.352 546.873C588.449 589.024 548.721 618.937 504.106 626.925C459.512 634.91 410.16 620.964 381.047 575.538C366.391 552.67 347.306 533.096 327.51 514.387C322.341 509.502 317.125 504.677 311.926 499.869C297.199 486.247 282.611 472.753 269.622 458.381C252.057 438.944 237.457 417.939 229.462 392.928C221.47 367.924 220.068 338.878 228.959 303.342C237.857 267.78 250.281 244.452 266.314 228.455C282.345 212.461 302.03 203.751 325.539 197.509C340.91 193.427 357.876 190.409 376.505 187.095C386.398 185.335 396.76 183.492 407.601 181.361C438.834 175.224 473.969 166.716 513.113 150.98C552.114 135.3 587.377 135.345 617.211 145.615C647.052 155.888 671.498 176.402 688.832 201.714C723.522 252.368 729.658 322.085 693.786 367.188Z" stroke="#D8D7DB"/>
<path d="M681.012 367.148L680.515 367.772C646.757 410.218 629.006 432.536 617.373 454.177C605.674 475.94 600.166 497.008 590.748 537.099C581.385 576.951 543.823 605.235 501.635 612.789C459.468 620.339 412.804 607.152 385.277 564.2C371.414 542.57 353.362 524.055 334.638 506.361C329.749 501.74 324.816 497.177 319.899 492.629C305.971 479.746 292.175 466.985 279.892 453.393C263.281 435.012 249.475 415.15 241.915 391.5C234.358 367.857 233.032 340.392 241.44 306.787C249.854 273.156 261.603 251.098 276.762 235.974C291.919 220.852 310.531 212.616 332.763 206.713C347.299 202.853 363.343 199.999 380.962 196.865C390.318 195.2 400.119 193.457 410.373 191.442C439.913 185.637 473.145 177.59 510.168 162.706C547.049 147.879 580.392 147.922 608.602 157.633C636.819 167.346 659.934 186.744 676.326 210.679C709.13 258.579 714.929 324.502 681.012 367.148Z" stroke="#D8D7DB"/>
<path d="M669.37 367.11L668.898 367.704C636.905 407.93 620.081 429.084 609.054 449.596C597.965 470.226 592.744 490.196 583.818 528.191C574.948 565.948 539.359 592.749 499.382 599.907C459.427 607.061 415.213 594.565 389.131 553.869C375.991 533.365 358.88 515.817 341.135 499.046C336.501 494.667 331.825 490.342 327.165 486.031C313.965 473.822 300.891 461.729 289.25 448.848C273.509 431.429 260.427 412.608 253.264 390.199C246.103 367.796 244.846 341.771 252.814 309.926C260.788 278.056 271.921 257.156 286.283 242.826C300.644 228.498 318.278 220.695 339.346 215.101C353.122 211.443 368.326 208.738 385.023 205.768C393.891 204.19 403.18 202.538 412.9 200.628C440.896 195.126 472.394 187.499 507.484 173.392C542.432 159.342 574.027 159.383 600.756 168.585C627.493 177.788 649.395 196.169 664.928 218.849C696.014 264.24 701.506 326.705 669.37 367.11Z" stroke="#D8D7DB"/>
<path d="M656.493 367.069L656.047 367.63C626.008 405.399 610.208 425.265 599.853 444.529C589.437 463.904 584.535 482.661 576.153 518.338C567.827 553.777 534.421 578.937 496.891 585.657C459.382 592.373 417.879 580.642 393.395 542.44C381.054 523.184 364.985 506.703 348.321 490.955C343.969 486.843 339.578 482.781 335.202 478.733C322.808 467.269 310.533 455.915 299.603 443.821C284.823 427.466 272.542 409.796 265.817 388.759C259.095 367.729 257.915 343.297 265.395 313.399C272.882 283.476 283.334 263.856 296.816 250.406C310.295 236.957 326.848 229.631 346.628 224.379C359.563 220.944 373.837 218.405 389.515 215.616C397.842 214.135 406.565 212.583 415.694 210.789C441.984 205.623 471.563 198.461 504.515 185.213C537.326 172.022 566.986 172.062 592.078 180.699C617.176 189.339 637.738 206.594 652.321 227.887C681.505 270.502 686.658 329.142 656.493 367.069Z" stroke="#D8D7DB"/>
<path d="M642.172 367.024L641.755 367.549C613.889 402.586 599.228 421.019 589.62 438.893C579.954 456.874 575.405 474.28 567.628 507.38C559.908 540.242 528.93 563.577 494.12 569.809C459.332 576.038 420.842 565.159 398.137 529.73C386.685 511.861 371.773 496.568 356.313 481.958C352.275 478.141 348.2 474.372 344.14 470.617C332.641 459.981 321.254 449.449 311.115 438.229C297.405 423.058 286.014 406.669 279.778 387.158C273.544 367.654 272.448 344.994 279.387 317.261C286.332 289.503 296.027 271.307 308.528 258.834C321.028 246.364 336.378 239.569 354.727 234.697C366.726 231.511 379.967 229.156 394.511 226.568C402.237 225.194 410.331 223.754 418.801 222.089C443.194 217.296 470.639 210.651 501.214 198.359C531.647 186.124 559.156 186.161 582.427 194.172C605.704 202.185 624.775 218.187 638.3 237.937C665.37 277.465 670.146 331.851 642.172 367.024Z" stroke="#D8D7DB"/>
<path d="M628.162 366.979L627.773 367.467C602.032 399.832 588.487 416.864 579.608 433.38C570.676 449.997 566.472 466.082 559.288 496.66C552.161 526.999 523.557 548.549 491.41 554.305C459.283 560.057 423.742 550.01 402.776 517.295C392.193 500.783 378.415 486.653 364.132 473.155C360.4 469.628 356.636 466.146 352.884 462.676C342.262 452.851 331.745 443.123 322.379 432.759C309.715 418.745 299.196 403.609 293.437 385.592C287.679 367.581 286.667 346.654 293.076 321.04C299.491 295.4 308.445 278.597 319.988 267.081C331.528 255.567 345.703 249.292 362.65 244.792C373.734 241.849 385.963 239.673 399.398 237.283C406.536 236.014 414.014 234.683 421.842 233.145C444.378 228.717 469.734 222.577 497.984 211.22C526.091 199.92 551.495 199.955 572.984 207.353C594.479 214.752 612.091 229.53 624.582 247.77C649.585 284.278 653.991 334.503 628.162 366.979Z" stroke="#D8D7DB"/>
<path d="M614.099 366.934L613.739 367.387C590.132 397.069 577.705 412.694 569.56 427.846C561.363 443.093 557.507 457.853 550.917 485.9C544.384 513.708 518.165 533.466 488.689 538.743C459.235 544.017 426.653 534.805 407.432 504.815C397.723 489.665 385.081 476.701 371.979 464.319C368.556 461.084 365.103 457.89 361.662 454.707C351.919 445.695 342.273 436.773 333.684 427.269C322.07 414.417 312.426 400.539 307.146 384.02C301.867 367.508 300.939 348.321 306.816 324.832C312.699 301.319 320.909 285.914 331.489 275.358C342.068 264.804 355.061 259.051 370.603 254.924C380.767 252.225 391.982 250.23 404.304 248.038C410.852 246.874 417.712 245.653 424.893 244.242C445.566 240.18 468.827 234.548 494.742 224.129C520.515 213.768 543.806 213.801 563.507 220.582C583.214 227.366 599.361 240.915 610.814 257.639C633.741 291.116 637.776 337.164 614.099 366.934Z" stroke="#D8D7DB"/>
<path d="M600.037 366.889L599.705 367.307C578.232 394.306 566.924 408.524 559.511 422.313C552.051 436.19 548.541 449.624 542.547 475.14C536.608 500.417 512.772 518.382 485.968 523.182C459.186 527.977 429.563 519.601 412.088 492.334C403.252 478.546 391.748 466.749 379.827 455.484C376.712 452.539 373.57 449.633 370.439 446.737C361.575 438.538 352.802 430.424 344.99 421.778C334.426 410.089 325.656 397.468 320.855 382.448C316.056 367.435 315.211 349.987 320.555 328.625C325.906 307.238 333.373 293.231 342.991 283.635C352.607 274.041 364.42 268.81 378.555 265.057C387.801 262.602 398.001 260.787 409.21 258.793C415.167 257.734 421.409 256.623 427.945 255.339C446.754 251.643 467.919 246.518 491.5 237.038C514.938 227.615 536.117 227.646 554.029 233.812C571.948 239.98 586.631 252.3 597.047 267.509C617.897 297.954 621.562 339.825 600.037 366.889Z" stroke="#D8D7DB"/>
<path d="M587.211 366.848L586.905 367.233C567.378 391.785 557.09 404.72 550.346 417.266C543.558 429.894 540.364 442.118 534.912 465.326C529.516 488.294 507.854 504.625 483.487 508.988C459.141 513.347 432.218 505.733 416.335 480.951C408.295 468.405 397.828 457.672 386.985 447.425C384.151 444.746 381.292 442.102 378.444 439.468C370.383 432.011 362.405 424.632 355.301 416.771C345.695 406.141 337.722 394.667 333.358 381.014C328.996 367.368 328.227 351.507 333.087 332.084C337.953 312.636 344.741 299.905 353.481 291.185C362.22 282.466 372.956 277.711 385.809 274.298C394.216 272.066 403.49 270.416 413.684 268.602C419.103 267.638 424.782 266.628 430.728 265.46C447.838 262.098 467.092 257.436 488.543 248.812C509.852 240.245 529.104 240.274 545.385 245.878C561.672 251.485 575.02 262.684 584.489 276.51C603.446 304.191 606.773 342.252 587.211 366.848Z" stroke="#D8D7DB"/>
<path d="M572.52 366.802L572.244 367.148C554.945 388.899 545.827 400.364 539.849 411.485C533.829 422.683 530.998 433.522 526.167 454.085C521.392 474.409 502.221 488.868 480.645 492.731C459.09 496.59 435.258 489.849 421.199 467.913C414.071 456.79 404.792 447.275 395.183 438.194C392.671 435.82 390.137 433.476 387.613 431.142C380.47 424.535 373.405 417.999 367.111 411.035C358.602 401.62 351.544 391.46 347.68 379.372C343.818 367.291 343.137 353.248 347.44 336.046C351.75 318.82 357.762 307.549 365.497 299.832C373.23 292.116 382.733 287.906 394.117 284.883C401.565 282.906 409.778 281.444 418.809 279.838C423.611 278.984 428.644 278.088 433.916 277.052C449.079 274.073 466.144 269.941 485.156 262.298C504.026 254.711 521.072 254.738 535.484 259.699C549.903 264.663 561.722 274.578 570.106 286.82C586.894 311.335 589.834 345.032 572.52 366.802Z" stroke="#D8D7DB"/>
<path d="M556.768 366.751L556.524 367.058C541.615 385.803 533.75 395.693 528.593 405.286C523.398 414.95 520.955 424.304 516.791 442.032C512.682 459.521 496.181 471.972 477.597 475.3C459.035 478.623 438.518 472.818 426.415 453.933C420.264 444.335 412.259 436.127 403.974 428.297C401.806 426.249 399.621 424.228 397.444 422.214C391.287 416.519 385.198 410.887 379.774 404.885C372.442 396.771 366.363 388.02 363.036 377.611C359.711 367.209 359.123 355.114 362.83 340.294C366.545 325.449 371.723 315.745 378.38 309.103C385.036 302.462 393.215 298.837 403.024 296.233C409.443 294.528 416.52 293.269 424.304 291.885C428.445 291.148 432.786 290.376 437.334 289.482C450.41 286.913 465.127 283.349 481.525 276.757C497.78 270.222 512.459 270.246 524.868 274.518C537.284 278.792 547.462 287.33 554.684 297.875C569.147 318.994 571.672 348.013 556.768 366.751Z" stroke="#D8D7DB"/>
<path d="M541.264 366.702L541.052 366.969C528.495 382.757 521.863 391.095 517.514 399.186C513.131 407.339 511.071 415.231 507.561 430.169C504.108 444.867 490.236 455.343 474.598 458.143C458.981 460.939 441.727 456.054 431.549 440.172C426.36 432.077 419.609 425.155 412.626 418.556C410.798 416.828 408.956 415.124 407.121 413.427C401.933 408.629 396.807 403.887 392.239 398.832C386.064 391.999 380.949 384.635 378.15 375.878C375.353 367.128 374.857 356.951 377.979 344.476C381.106 331.975 385.465 323.813 391.061 318.229C396.656 312.647 403.534 309.597 411.792 307.404C417.198 305.968 423.156 304.909 429.713 303.742C433.203 303.122 436.862 302.471 440.699 301.717C451.72 299.551 464.127 296.547 477.95 290.99C491.632 285.489 503.981 285.511 514.419 289.104C524.863 292.7 533.427 299.882 539.504 308.756C551.678 326.533 553.794 350.947 541.264 366.702Z" stroke="#D8D7DB"/>
</svg>
