<svg width="31" height="30" viewBox="0 0 31 30" fill="none" xmlns="http://www.w3.org/2000/svg">
<g clip-path="url(#clip0_7223_8713)">
<path d="M5.44872 0H25.3205C28.3333 0 30.7692 2.4359 30.7692 5.44872V24.5513C30.7692 27.5641 28.3333 30 25.3205 30H5.44872C2.4359 30 0 27.5641 0 24.5513V5.44872C0 2.4359 2.4359 0 5.44872 0Z" fill="#00005B"/>
<path d="M12.3589 17.9487H7.58967L6.61531 20.9744C6.58967 21.0898 6.48711 21.1667 6.37172 21.1539H3.96147C3.82044 21.1539 3.78198 21.0769 3.82044 20.9231L7.94865 9.08975C7.98711 8.96155 8.02557 8.84616 8.07685 8.69232C8.12813 8.42309 8.15377 8.14103 8.15377 7.85898C8.14095 7.79488 8.19224 7.73078 8.25634 7.71796H8.2948H11.5769C11.6666 7.71796 11.7307 7.75642 11.7435 7.82052L16.423 20.8974C16.4615 21.0385 16.423 21.1026 16.2948 21.1026H13.6153C13.5256 21.1154 13.4358 21.0513 13.4102 20.9615L12.3589 17.8846V17.9487ZM8.33326 15.3974H11.5897C11.5127 15.1282 11.4102 14.8077 11.2948 14.4744C11.1794 14.1282 11.064 13.7564 10.9486 13.3718C10.8204 12.9744 10.7051 12.5898 10.5769 12.1923C10.4486 11.7949 10.3333 11.4231 10.2307 11.0513C10.1281 10.6923 10.0384 10.359 9.94865 10.0513H9.92301C9.80762 10.6026 9.6666 11.1539 9.48711 11.7051C9.2948 12.3205 9.10249 12.9615 8.89737 13.6026C8.7307 14.2564 8.52557 14.859 8.33326 15.3974Z" fill="#9999FF"/>
<path d="M23.9742 16.7949H19.9101C19.9614 17.1923 20.0896 17.5897 20.3076 17.9359C20.5383 18.2821 20.8588 18.5513 21.2435 18.7051C21.7563 18.9231 22.3204 19.0385 22.8845 19.0256C23.3332 19.0128 23.7819 18.9744 24.2178 18.8846C24.6153 18.8333 24.9999 18.7308 25.3588 18.5897C25.423 18.5385 25.4614 18.5641 25.4614 18.6923V20.6538C25.4614 20.7051 25.4486 20.7564 25.4358 20.8077C25.4101 20.8462 25.3845 20.8718 25.346 20.8974C24.9358 21.0769 24.5127 21.2051 24.064 21.2821C23.4614 21.3974 22.8588 21.4487 22.2435 21.4359C21.2691 21.4359 20.4486 21.2821 19.7819 20.9872C19.1537 20.718 18.6024 20.2949 18.1665 19.7692C17.7563 19.2692 17.4614 18.7051 17.2819 18.0897C17.1024 17.4872 17.0127 16.859 17.0127 16.218C17.0127 15.5256 17.1153 14.8462 17.3332 14.1795C17.5383 13.5385 17.8588 12.9487 18.2947 12.4231C18.7178 11.9103 19.2435 11.5 19.846 11.2051C20.4486 10.9103 21.1665 10.8077 21.9871 10.8077C22.6665 10.7949 23.346 10.9231 23.9742 11.2051C24.4999 11.4359 24.9614 11.7821 25.3204 12.2308C25.6537 12.6667 25.923 13.1539 26.0896 13.6923C26.2563 14.2051 26.3332 14.7308 26.3332 15.2564C26.3332 15.5641 26.3204 15.8333 26.3076 16.0769C26.2819 16.3205 26.2691 16.5 26.2563 16.6154C26.2435 16.7051 26.1665 16.7821 26.0768 16.7821C25.9999 16.7821 25.8588 16.7949 25.6537 16.8077C25.4486 16.8333 25.205 16.8462 24.9101 16.8462C24.6153 16.8462 24.3076 16.7949 23.9742 16.7949ZM19.9101 14.9231H22.6153C22.9486 14.9231 23.1922 14.9231 23.346 14.9103C23.4486 14.8974 23.5512 14.8718 23.6409 14.8077V14.6795C23.6409 14.5128 23.6153 14.359 23.564 14.2051C23.3332 13.4872 22.6537 13 21.8973 13.0256C21.1922 12.9872 20.5255 13.359 20.1922 14C20.0383 14.2949 19.9486 14.6026 19.9101 14.9231Z" fill="#9999FF"/>
</g>
<defs>
<clipPath id="clip0_7223_8713">
<rect width="30.7692" height="30" fill="white"/>
</clipPath>
</defs>
</svg>
