<svg width="63" height="30" viewBox="0 0 63 30" fill="none" xmlns="http://www.w3.org/2000/svg">
<path fill-rule="evenodd" clip-rule="evenodd" d="M7.65842 14.5763L1.91455 27.4418H5.67129L6.78802 24.7151H12.561L13.6777 27.4418H17.4345L11.6762 14.5763H7.65842ZM9.69856 17.6097L10.6731 20.0561L11.6477 22.5028L9.70438 22.5074L7.76106 22.5122L8.72981 20.061L9.69856 17.6097V17.6097ZM35.5177 14.5763L29.7738 27.4418H33.5306L34.6473 24.7151H40.4203L41.537 27.4418H45.2937L39.5355 14.5763H35.5177ZM37.5578 17.6097L38.5324 20.0561L39.507 22.5028L37.5636 22.5074L35.6203 22.5122L36.5891 20.061L37.5578 17.6097V17.6097ZM46.2763 14.5319H50.5429L53.271 18.6344L56.1633 14.5319H60.3684L55.3018 20.7677L60.6966 27.4862H56.43L53.3326 23.1061L50.2967 27.4862H45.743L51.2403 20.8293L46.2763 14.5319Z" fill="#8C96A1"/>
<path d="M28.226 9.08701L23.1185 14.1106L24.8768 15.7016L26.5401 14.0294L26.7257 14.0297V23.6226C26.7257 24.8404 25.7453 25.8208 24.5275 25.8208H22.7809C21.5631 25.8208 20.5827 24.8404 20.5827 23.6226V22.5987H17.1865V23.8738C17.1865 26.0755 18.9591 27.848 21.1608 27.848H25.673C27.8748 27.848 29.6473 26.0755 29.6473 23.8738V14.0365L29.7787 14.0368L31.7218 15.7016L33.2496 14.1106L28.226 9.08702V9.08701Z" fill="#8C96A1"/>
<path d="M18.8595 21.5423L23.9671 16.5188L22.2088 14.9278L20.5455 16.5999L20.3598 16.5996V7.0068C20.3598 5.789 21.3403 4.80858 22.5581 4.80858H24.3047C25.5225 4.80858 26.5029 5.789 26.5029 7.0068V8.0307H29.8991V6.75558C29.8991 4.55385 28.1265 2.78131 25.9248 2.78131H21.4125C19.2108 2.78131 17.4383 4.55385 17.4383 6.75558V16.5929L17.3068 16.5926L15.3638 14.9277L13.8359 16.5187L18.8595 21.5423V21.5423Z" fill="#8C96A1"/>
<path fill-rule="evenodd" clip-rule="evenodd" d="M21.4124 2.46753C19.2107 2.46753 17.4381 4.24006 17.4381 6.44179V16.2791L17.3067 16.2788L15.3637 14.614L13.8358 16.205L18.8594 21.2286L23.9669 16.205L22.2087 14.614L20.5454 16.2862L20.3597 16.2859V6.69302C20.3597 5.47522 21.3401 4.4948 22.5579 4.4948H24.3046C25.5224 4.4948 26.5028 5.47522 26.5028 6.69302V7.71692H29.8989V6.44179C29.8989 4.24006 28.1264 2.46753 25.9247 2.46753H21.4124ZM28.2261 8.77329L23.1186 13.7969L24.8769 15.3879L26.5402 13.7157L26.7258 13.716V23.3088C26.7258 24.5266 25.7454 25.5071 24.5276 25.5071H22.781C21.5632 25.5071 20.5828 24.5266 20.5828 23.3088V22.2849H17.1866V23.5601C17.1866 25.7618 18.9591 27.5343 21.1609 27.5343H25.6731C27.8749 27.5343 29.6474 25.7618 29.6474 23.5601V13.7227L29.7788 13.723L31.7218 15.3879L33.2497 13.7969L28.2261 8.77329ZM46.2764 14.2181L51.2402 20.5156L45.743 27.1725H50.2966L53.3324 22.7923L56.4299 27.1725H60.6967L55.3018 20.4541L60.3683 14.2181H56.1633L53.2712 18.3208L50.5429 14.2181H46.2764ZM7.65842 14.2626L1.91455 27.1281H5.67129L6.78802 24.4014H12.561L13.6777 27.1281H17.4345L11.6762 14.2626H7.65842ZM35.5178 14.2626L29.7739 27.1281H33.5307L34.6474 24.4014H40.4204L41.5371 27.1281H45.2938L39.5356 14.2626H35.5178ZM9.69856 17.296L10.6731 19.7423L11.6477 22.189L9.70438 22.1936L7.76106 22.1985L8.72981 19.7472L9.69856 17.296ZM37.5579 17.296L38.5325 19.7423L39.5071 22.189L37.5638 22.1936L35.6204 22.1985L36.5892 19.7472L37.5579 17.296Z" fill="url(#paint0_linear_7223_8854)" stroke="#0C4C75" stroke-width="0.5"/>
<defs>
<linearGradient id="paint0_linear_7223_8854" x1="25.5176" y1="2.2671" x2="25.5176" y2="27.4565" gradientUnits="userSpaceOnUse">
<stop stop-color="#70B0DF"/>
<stop offset="0.5" stop-color="#1B81C5"/>
<stop offset="1" stop-color="#4A98CE"/>
</linearGradient>
</defs>
</svg>
