<svg width="51" height="30" viewBox="0 0 51 30" fill="none" xmlns="http://www.w3.org/2000/svg">
<path d="M14.2418 10.945C14.2418 11.5549 14.3077 12.0494 14.4231 12.4121C14.555 12.7747 14.7198 13.1703 14.9506 13.5989C15.033 13.7308 15.066 13.8626 15.066 13.978C15.066 14.1428 14.9671 14.3077 14.7528 14.4725L13.7143 15.1648C13.566 15.2637 13.4176 15.3132 13.2858 15.3132C13.1209 15.3132 12.9561 15.2308 12.7913 15.0824C12.5605 14.8352 12.3627 14.5714 12.1978 14.3077C12.033 14.0275 11.8682 13.7143 11.6869 13.3352C10.4011 14.8516 8.78576 15.6099 6.8407 15.6099C5.45609 15.6099 4.35169 15.2143 3.544 14.4231C2.73631 13.6319 2.32422 12.5769 2.32422 11.2582C2.32422 9.85713 2.81872 8.71977 3.82422 7.86263C4.82971 7.00548 6.16488 6.57691 7.86268 6.57691C8.42312 6.57691 9.00004 6.62636 9.60993 6.70878C10.2198 6.7912 10.8462 6.92306 11.5055 7.07142V5.86812C11.5055 4.61537 11.2418 3.74174 10.7308 3.23076C10.2033 2.71977 9.31323 2.47251 8.044 2.47251C7.46707 2.47251 6.87367 2.53845 6.26378 2.6868C5.65389 2.83515 5.06048 3.01647 4.48356 3.24724C4.21982 3.36262 4.02202 3.42856 3.90664 3.46152C3.79125 3.49449 3.70883 3.51098 3.6429 3.51098C3.41213 3.51098 3.29675 3.34614 3.29675 2.99999V2.19229C3.29675 1.92856 3.32971 1.73076 3.41213 1.61537C3.49455 1.49999 3.6429 1.3846 3.87367 1.26922C4.45059 0.972514 5.1429 0.725261 5.95059 0.527459C6.75828 0.313173 7.61543 0.214272 8.52202 0.214272C10.4836 0.214272 11.9176 0.659327 12.8407 1.54944C13.7473 2.43955 14.2088 3.7912 14.2088 5.60438V10.945H14.2418ZM7.54949 13.4505C8.09345 13.4505 8.65389 13.3516 9.24729 13.1538C9.8407 12.956 10.3682 12.5934 10.8132 12.0989C11.077 11.7857 11.2748 11.4395 11.3737 11.0439C11.4726 10.6483 11.5385 10.1703 11.5385 9.60988V8.91757C11.0605 8.80219 10.5495 8.70328 10.022 8.63735C9.49455 8.57142 8.98356 8.53845 8.47257 8.53845C7.36817 8.53845 6.56048 8.75273 6.01653 9.19779C5.47257 9.64284 5.20883 10.2692 5.20883 11.0934C5.20883 11.8681 5.40664 12.445 5.81872 12.8406C6.21433 13.2527 6.79125 13.4505 7.54949 13.4505ZM20.7858 15.2308C20.4891 15.2308 20.2913 15.1813 20.1594 15.0659C20.0275 14.967 19.9121 14.7363 19.8132 14.4231L15.9396 1.68131C15.8407 1.35163 15.7913 1.13735 15.7913 1.02196C15.7913 0.758228 15.9231 0.609876 16.1869 0.609876H17.8022C18.1154 0.609876 18.3297 0.659327 18.4451 0.774712C18.577 0.873613 18.6759 1.10438 18.7748 1.41757L21.544 12.3297L24.1154 1.41757C24.1978 1.0879 24.2967 0.873613 24.4286 0.774712C24.5605 0.67581 24.7912 0.609876 25.0879 0.609876H26.4066C26.7198 0.609876 26.9341 0.659327 27.066 0.774712C27.1978 0.873613 27.3132 1.10438 27.3792 1.41757L29.9836 12.4615L32.8352 1.41757C32.9341 1.0879 33.0495 0.873613 33.1649 0.774712C33.2967 0.67581 33.511 0.609876 33.8077 0.609876H35.3407C35.6044 0.609876 35.7528 0.741745 35.7528 1.02196C35.7528 1.10438 35.7363 1.1868 35.7198 1.2857C35.7033 1.3846 35.6704 1.51647 35.6044 1.69779L31.6319 14.4395C31.533 14.7692 31.4176 14.9835 31.2858 15.0824C31.1539 15.1813 30.9396 15.2472 30.6594 15.2472H29.2418C28.9286 15.2472 28.7143 15.1978 28.5825 15.0824C28.4506 14.967 28.3352 14.7527 28.2693 14.4231L25.7143 3.7912L23.1759 14.4066C23.0934 14.7363 22.9945 14.9505 22.8627 15.0659C22.7308 15.1813 22.5 15.2308 22.2033 15.2308H20.7858ZM41.9671 15.6758C41.1099 15.6758 40.2528 15.5769 39.4286 15.3791C38.6044 15.1813 37.9616 14.967 37.533 14.7198C37.2693 14.5714 37.088 14.4066 37.022 14.2582C36.9561 14.1099 36.9231 13.945 36.9231 13.7967V12.956C36.9231 12.6099 37.055 12.445 37.3022 12.445C37.4011 12.445 37.5 12.4615 37.5989 12.4945C37.6978 12.5275 37.8462 12.5934 38.011 12.6593C38.5715 12.9066 39.1814 13.1044 39.8242 13.2363C40.4836 13.3681 41.1264 13.4341 41.7858 13.4341C42.8242 13.4341 43.6319 13.2527 44.1923 12.8901C44.7528 12.5275 45.0495 12 45.0495 11.3242C45.0495 10.8626 44.9011 10.4835 44.6044 10.1703C44.3077 9.85713 43.7473 9.57691 42.9396 9.31317L40.5495 8.57142C39.3462 8.1923 38.4561 7.63186 37.9121 6.8901C37.3682 6.16482 37.0879 5.35713 37.0879 4.49999C37.0879 3.80768 37.2363 3.19779 37.533 2.67032C37.8297 2.14284 38.2253 1.68131 38.7198 1.31867C39.2143 0.939547 39.7748 0.659327 40.4341 0.461525C41.0934 0.263723 41.7857 0.181305 42.511 0.181305C42.8737 0.181305 43.2528 0.197788 43.6154 0.247239C43.9945 0.29669 44.3407 0.362624 44.6869 0.428558C45.0165 0.510975 45.3297 0.593393 45.6264 0.692294C45.9231 0.791195 46.1539 0.890096 46.3187 0.988997C46.5495 1.12087 46.7143 1.25273 46.8132 1.40109C46.9121 1.53295 46.9616 1.71427 46.9616 1.94504V2.71977C46.9616 3.06592 46.8297 3.24724 46.5825 3.24724C46.4506 3.24724 46.2363 3.18131 45.9561 3.04944C45.0165 2.62087 43.9616 2.40658 42.7912 2.40658C41.8517 2.40658 41.1099 2.55493 40.5989 2.86812C40.0879 3.18131 39.8242 3.65933 39.8242 4.33515C39.8242 4.79669 39.989 5.1923 40.3187 5.50548C40.6484 5.81867 41.2583 6.13186 42.1319 6.41208L44.4726 7.15383C45.6594 7.53295 46.5165 8.06043 47.0275 8.73625C47.5385 9.41208 47.7857 10.1868 47.7857 11.0439C47.7857 11.7527 47.6374 12.3956 47.3572 12.956C47.0605 13.5165 46.6649 14.011 46.1539 14.4066C45.6429 14.8187 45.033 15.1154 44.3242 15.3297C43.5825 15.5604 42.8077 15.6758 41.9671 15.6758Z" fill="#252F3E"/>
<path fill-rule="evenodd" clip-rule="evenodd" d="M45.0824 23.6868C39.6594 27.6923 31.7802 29.8187 25.0055 29.8187C15.511 29.8187 6.95606 26.3077 0.494527 20.4725C-0.0164623 20.011 0.445076 19.3846 1.05497 19.7473C8.04398 23.8022 16.6649 26.2582 25.5824 26.2582C31.5989 26.2582 38.2088 25.0055 44.2912 22.4341C45.1978 22.022 45.9725 23.0275 45.0824 23.6868Z" fill="#FF9900"/>
<path fill-rule="evenodd" clip-rule="evenodd" d="M47.3407 21.1154C46.6483 20.2253 42.7582 20.6868 40.9945 20.9011C40.467 20.967 40.3846 20.5055 40.8626 20.1593C43.9615 17.9835 49.0549 18.6099 49.6483 19.3352C50.2418 20.0769 49.4835 25.1703 46.5824 27.6099C46.1374 27.989 45.7088 27.7912 45.9066 27.2967C46.5659 25.6648 48.033 21.989 47.3407 21.1154Z" fill="#FF9900"/>
</svg>
