<svg width="30" height="30" viewBox="0 0 30 30" fill="none" xmlns="http://www.w3.org/2000/svg">
<g clip-path="url(#clip0_6032_4704)">
<path d="M30 25.0557C30 27.7751 27.775 30.0001 25.0555 30.0001H5.27771C2.55826 30.0001 0.333252 27.7751 0.333252 25.0557V5.27783C0.333252 2.55838 2.55826 0.333374 5.27771 0.333374H25.0555C27.775 0.333374 30 2.55838 30 5.27783V25.0557Z" fill="#563D7C"/>
<path d="M8.39465 6.78055H16.8051C18.3563 6.78055 19.6021 7.13442 20.5377 7.847C21.4732 8.55958 21.9434 9.63088 21.9434 11.0706C21.9434 11.9431 21.7301 12.6897 21.3036 13.3101C20.877 13.9306 20.2662 14.4154 19.4712 14.7547V14.8032C20.5377 15.031 21.3472 15.5351 21.895 16.3156C22.4427 17.1009 22.719 18.0801 22.719 19.2629C22.719 19.9415 22.5979 20.5766 22.3555 21.1631C22.1131 21.7545 21.735 22.2635 21.2163 22.6901C20.6976 23.1166 20.0384 23.456 19.2288 23.708C18.4193 23.9601 17.4595 24.0862 16.3446 24.0862H8.39465V6.78055ZM11.4243 14.0276H16.3688C17.0959 14.0276 17.7019 13.824 18.1866 13.4071C18.6714 12.9902 18.9137 12.3988 18.9137 11.6232C18.9137 10.7507 18.6956 10.135 18.2593 9.78116C17.8231 9.42729 17.1929 9.24793 16.3688 9.24793H11.4243V14.0276ZM11.4243 21.6139H16.7808C17.7019 21.6139 18.4193 21.3764 18.9234 20.8965C19.4324 20.4214 19.6893 19.7428 19.6893 18.8702C19.6893 18.0122 19.4373 17.3578 18.9234 16.8925C18.4096 16.4271 17.7019 16.2041 16.7808 16.2041H11.4243V21.6139Z" fill="white"/>
</g>
<defs>
<clipPath id="clip0_6032_4704">
<rect width="30" height="30" fill="white"/>
</clipPath>
</defs>
</svg>
