<svg width="38" height="30" viewBox="0 0 38 30" fill="none" xmlns="http://www.w3.org/2000/svg">
<g clip-path="url(#clip0_6032_4586)">
<path d="M24.794 8.27454L28.0347 5.03381L28.2507 3.66925C22.3452 -1.7006 12.9576 -1.09172 7.6341 4.93974C6.15537 6.61493 5.05833 8.70342 4.47333 10.8601L5.63401 10.6965L12.1153 9.62774L12.6157 9.116C15.4988 5.94969 20.3735 5.52372 23.7023 8.21774L24.794 8.27454Z" fill="#EA4335"/>
<path d="M32.6512 10.7648C31.9063 8.02167 30.377 5.5557 28.2506 3.66934L23.7023 8.21769C25.6229 9.78701 26.717 12.1512 26.6701 14.6308V15.4382C28.9057 15.4382 30.7182 17.2506 30.7182 19.4862C30.7182 21.7219 28.9057 23.4889 26.6701 23.4889H18.5627L17.7667 24.353V29.2084L18.5627 29.9702H26.6701C32.4852 30.0155 37.2359 25.3837 37.2812 19.5686C37.3086 16.0439 35.5708 12.7395 32.6512 10.7648Z" fill="#4285F4"/>
<path d="M10.4666 29.9702H18.5627V23.4888H10.4666C9.88974 23.4886 9.3311 23.3647 8.80654 23.125L7.65795 23.4774L4.3945 26.7182L4.11023 27.8212C5.94037 29.2031 8.17334 29.9801 10.4666 29.9702Z" fill="#34A853"/>
<path d="M10.4665 8.94547C4.65135 8.98013 -0.0344691 13.7225 0.000191048 19.5375C0.01956 22.7848 1.53616 25.8416 4.11019 27.8212L8.8065 23.125C6.76898 22.2045 5.86359 19.8066 6.78412 17.7693C7.70451 15.7319 10.1025 14.8265 12.1397 15.7469C13.0375 16.1525 13.7565 16.8716 14.1621 17.7693L18.8584 13.0731C16.8602 10.4609 13.7553 8.93368 10.4665 8.94547Z" fill="#FBBC05"/>
</g>
<defs>
<clipPath id="clip0_6032_4586">
<rect width="37.2816" height="30" fill="white"/>
</clipPath>
</defs>
</svg>
