<svg width="22" height="30" viewBox="0 0 22 30" fill="none" xmlns="http://www.w3.org/2000/svg">
<g clip-path="url(#clip0_7223_8751)">
<path d="M21.2539 5.89569L19.3177 27.587L10.614 30L1.93424 27.5904L0 5.89569H21.2539Z" fill="#264DE4"/>
<path d="M17.66 26.2058L19.3146 7.66956H10.627V28.1556L17.66 26.2058Z" fill="#2965F1"/>
<path d="M4.43408 15.7159L4.67256 18.3766H10.6269V15.7159H4.43408Z" fill="#EBEBEB"/>
<path d="M10.627 10.3304H10.6178H3.95508L4.19695 12.9912H10.627V10.3304Z" fill="#EBEBEB"/>
<path d="M10.6269 25.3945V22.6261L10.6153 22.6292L7.65193 21.8291L7.4625 19.707H6.02256H4.7915L5.16428 23.8848L10.6147 25.3979L10.6269 25.3945Z" fill="#EBEBEB"/>
<path d="M5.00195 0H8.22461V1.34766H6.34961V2.69531H8.22461V4.04297H5.00195V0Z" fill="black"/>
<path d="M8.86914 0H12.0918V1.17188H10.2168V1.40625H12.0918V4.10156H8.86914V2.87109H10.7441V2.63672H8.86914V0Z" fill="black"/>
<path d="M12.7363 0H15.959V1.17188H14.084V1.40625H15.959V4.10156H12.7363V2.87109H14.6113V2.63672H12.7363V0Z" fill="black"/>
<path d="M13.8941 18.3766L13.5853 21.8274L10.6177 22.6284V25.3966L16.0724 23.8848L16.1124 23.4353L16.7377 16.4303L16.8026 15.7159L17.2829 10.3304H10.6177V12.9912H14.367L14.1249 15.7159H10.6177V18.3766H13.8941Z" fill="white"/>
</g>
<defs>
<clipPath id="clip0_7223_8751">
<rect width="21.2539" height="30" fill="white"/>
</clipPath>
</defs>
</svg>
