<svg width="27" height="30" viewBox="0 0 27 30" fill="none" xmlns="http://www.w3.org/2000/svg">
<g clip-path="url(#clip0_6552_8375)">
<path d="M8.62077 4.83663C3.3867 7.05989 0.0925293 11.4198 0.0925293 17.0216C0.0925293 24.1809 5.89626 29.9849 13.0559 29.9849C20.2152 29.9849 26.0192 24.1809 26.0192 17.0216C26.0192 8.41375 18.0213 4.99178 18.0213 4.99178C18.0213 4.99178 16.2744 4.26635 15.2977 3.61514C15.2977 3.61514 14.0637 2.86104 11.9128 0.0846863C11.9128 0.0846863 11.9616 3.23916 8.62087 4.83683" fill="#136DA9"/>
<path d="M11.7586 27.4756C11.3033 27.1592 11.4116 26.1516 12.6454 26.8715C12.6454 26.8715 15.2726 28.8009 19.4321 26.4859C19.7555 26.306 20.1519 26.9409 19.1236 27.523C19.1236 27.523 14.9205 29.6735 11.7586 27.4756Z" fill="#F0F0F0"/>
<path d="M11.7586 27.4756C11.3033 27.1592 11.4116 26.1516 12.6454 26.8715C12.6454 26.8715 15.2726 28.8009 19.4321 26.4859C19.7555 26.306 20.1519 26.9409 19.1236 27.523C19.1236 27.523 14.9205 29.6735 11.7586 27.4756V27.4756Z" stroke="#FFFDFF" stroke-width="0.101672"/>
<path d="M17.1186 24.2752C18.6482 24.4543 18.1223 25.1898 18.5326 25.3033C19.3679 25.5348 19.0081 24.6221 19.0081 24.6221C18.391 23.3882 17.3242 23.4654 17.3242 23.4654C15.6534 23.2082 14.4066 24.8021 14.4066 24.8021C14.098 25.4832 14.5296 25.5183 14.6892 25.4448C15.499 25.072 15.9916 24.1429 17.1186 24.2752Z" fill="#F0F0F0"/>
<path d="M17.1186 24.2752C18.6482 24.4543 18.1223 25.1898 18.5326 25.3033C19.3679 25.5348 19.0081 24.6221 19.0081 24.6221C18.391 23.3882 17.3242 23.4654 17.3242 23.4654C15.6534 23.2082 14.4066 24.8021 14.4066 24.8021C14.098 25.4832 14.5296 25.5183 14.6892 25.4448C15.499 25.072 15.9916 24.1429 17.1186 24.2752V24.2752Z" stroke="#FFFDFF" stroke-width="0.101672"/>
<path d="M1.78922 23.5401C1.78922 23.5401 6.43735 27.3857 17.7485 18.8185C17.7485 18.8185 23.4298 15.2519 23.2586 9.13685C23.2586 9.13685 21.4201 6.4946 18.3179 5.132C17.8767 4.93811 14.0002 2.82293 11.9068 0.17041C11.9068 0.17041 11.5274 7.86545 1.67148 10.9034C1.67148 10.9034 -0.812058 14.5664 0.541906 20.5199C0.541906 20.5199 1.40846 22.9336 1.78922 23.5402" fill="#008ECE"/>
<path d="M9.16208 24.9693C9.16208 24.9693 5.30597 25.072 5.76878 20.9588C5.76878 20.9588 6.57423 16.3316 11.9898 17.3599C11.9898 17.3599 13.1725 17.6169 15.3833 19.3136C15.3833 19.3136 16.8422 20.4383 17.6455 20.4171C17.6455 20.4171 18.2688 20.4768 19.565 19.6564C19.565 19.6564 22.2084 17.6166 23.1325 17.6771C23.1555 17.6786 24.9977 17.4757 24.9977 20.4448C24.9977 20.4448 25.0318 23.7182 22.5642 24.815C22.5642 24.815 21.9129 25.0377 21.2101 24.3008C21.2101 24.3008 19.1878 22.0043 18.1938 21.6272C18.1938 21.6272 17.6198 21.4023 16.857 21.6787C16.857 21.6787 16.36 21.7301 14.3208 23.084C14.3208 23.084 10.8929 25.2262 9.16208 24.9693Z" fill="#F0F0F0"/>
<path d="M9.16208 24.9693C9.16208 24.9693 5.30597 25.072 5.76878 20.9588C5.76878 20.9588 6.57423 16.3316 11.9898 17.3599C11.9898 17.3599 13.1725 17.6169 15.3833 19.3136C15.3833 19.3136 16.8422 20.4383 17.6455 20.4171C17.6455 20.4171 18.2688 20.4768 19.565 19.6564C19.565 19.6564 22.2084 17.6166 23.1325 17.6771C23.1555 17.6786 24.9977 17.4757 24.9977 20.4448C24.9977 20.4448 25.0318 23.7182 22.5642 24.815C22.5642 24.815 21.9129 25.0377 21.2101 24.3008C21.2101 24.3008 19.1878 22.0043 18.1938 21.6272C18.1938 21.6272 17.6198 21.4023 16.857 21.6787C16.857 21.6787 16.36 21.7301 14.3208 23.084C14.3208 23.084 10.8929 25.2262 9.16208 24.9693V24.9693Z" stroke="#FFFDFF" stroke-width="0.101672"/>
<path d="M11.2016 10.2133C13.6982 6.63744 11.9067 0.0675049 11.9067 0.0675049C11.6864 3.63212 8.67892 4.80846 8.67892 4.80846C3.29397 7.13268 1.67139 10.8005 1.67139 10.8005C2.82536 12.4369 5.88874 17.8225 11.2016 10.2133Z" fill="#008ECE"/>
<path d="M11.9066 0.0675049C11.9066 0.0675049 12.2298 3.06682 10.6017 4.04359C10.6017 4.04359 7.99065 5.25897 7.19365 5.65742C7.19365 5.65742 3.84061 7.6812 2.73533 9.58338C2.73533 9.58338 0.370244 12.7482 3.63513 12C3.63513 12 9.53922 10.3332 11.9387 5.3032C11.9387 5.3032 12.0799 4.87913 11.6299 4.44204C11.6299 4.44204 13.4296 3.08391 11.9066 0.0675049Z" fill="#A0D8F1"/>
<path d="M11.9066 0.0675049C11.9066 0.0675049 12.0412 2.11558 10.3411 3.81249C10.3411 3.81249 9.83048 4.53202 7.19362 5.65742C7.19362 5.65742 4.17499 7.23131 2.82163 9.414C2.82163 9.414 0.81595 11.8334 3.56617 11.1847C3.56617 11.1847 9.13871 9.13104 11.1806 5.35993C11.1806 5.35993 11.4568 4.96362 11.0364 4.5553C11.0364 4.5553 13.0356 2.99393 11.9066 0.0675049Z" fill="#F0F0F0"/>
</g>
<defs>
<clipPath id="clip0_6552_8375">
<rect width="26.028" height="30" fill="white"/>
</clipPath>
</defs>
</svg>
