<svg width="104" height="30" viewBox="0 0 104 30" fill="none" xmlns="http://www.w3.org/2000/svg">
<g clip-path="url(#clip0_6566_8360)">
<path d="M0.670923 23.281V11.8082H14.9951V11.1373H0.670923V0.670923H15.9009V0H0V23.9519H16.035V23.281H0.670923ZM28.9503 6.70923L23.0126 14.5255L17.2092 6.70923H16.337L22.6101 15.0287L15.7331 23.9519H16.5382L23.0126 15.5319L29.5206 23.9519H30.3592L23.4487 15.0287L29.7554 6.70923H28.9503ZM32.372 29.8561V19.1213H32.4391C32.8417 20.6868 33.6356 21.9448 34.8209 22.8952C36.0062 23.8457 37.5157 24.3209 39.3496 24.3209C40.5349 24.3209 41.586 24.0805 42.5029 23.5997C43.4199 23.1189 44.1858 22.4647 44.8009 21.6373C45.4159 20.8098 45.8855 19.8481 46.2098 18.7523C46.5341 17.6564 46.6962 16.5047 46.6962 15.297C46.6962 13.9999 46.5285 12.8034 46.193 11.7076C45.8576 10.6118 45.3711 9.66129 44.7338 8.85618C44.0964 8.05107 43.3248 7.42488 42.4191 6.97759C41.5133 6.53031 40.4902 6.30667 39.3496 6.30667C38.4774 6.30667 37.6667 6.43526 36.9175 6.69245C36.1683 6.94964 35.503 7.31305 34.9215 7.7827C34.34 8.25235 33.8369 8.80585 33.4119 9.44323C32.987 10.0806 32.6628 10.7795 32.4391 11.5399H32.372V6.70923H31.7011V29.8561H32.372ZM39.3496 23.6836C37.2474 23.6836 35.5589 22.9623 34.2841 21.5198C33.0094 20.0773 32.372 18.0031 32.372 15.297C32.372 14.1788 32.5286 13.1165 32.8417 12.1102C33.1548 11.1038 33.6076 10.2204 34.2003 9.46001C34.7929 8.69963 35.5253 8.0958 36.3975 7.64852C37.2698 7.20123 38.2538 6.97759 39.3496 6.97759C40.4678 6.97759 41.4462 7.20123 42.2849 7.64852C43.1236 8.0958 43.8168 8.70522 44.3648 9.47678C44.9127 10.2483 45.3264 11.1317 45.606 12.1269C45.8855 13.1221 46.0253 14.1788 46.0253 15.297C46.0253 16.3034 45.8967 17.3042 45.6395 18.2994C45.3823 19.2946 44.9854 20.1892 44.4486 20.9831C43.9119 21.777 43.2242 22.4256 42.3855 22.9288C41.5469 23.432 40.5349 23.6836 39.3496 23.6836ZM50.3863 23.9519V14.19C50.3863 13.2507 50.5205 12.3338 50.7888 11.4392C51.0572 10.5447 51.4709 9.75633 52.03 9.07423C52.5891 8.39212 53.2992 7.85539 54.1602 7.46401C55.0212 7.07264 56.0444 6.9105 57.2297 6.97759V6.30667C56.2009 6.28431 55.3008 6.39613 54.5292 6.64213C53.7577 6.88814 53.0923 7.2236 52.5332 7.64852C51.9741 8.07344 51.5269 8.57103 51.1914 9.14132C50.8559 9.71161 50.6099 10.321 50.4534 10.9696H50.3863V6.70923H49.7154V23.9519H50.3863ZM58.0683 15.4648H72.4932C72.5379 14.2795 72.4205 13.1389 72.1409 12.0431C71.8614 10.9472 71.4141 9.97439 70.7991 9.12455C70.1841 8.27471 69.3902 7.59261 68.4173 7.07823C67.4445 6.56386 66.2872 6.30667 64.9453 6.30667C63.9836 6.30667 63.0444 6.50795 62.1274 6.9105C61.2105 7.31306 60.4054 7.90011 59.7121 8.67167C59.0188 9.44324 58.4597 10.3881 58.0348 11.5063C57.6099 12.6245 57.3974 13.8993 57.3974 15.3306C57.3974 16.6053 57.5428 17.7962 57.8335 18.9032C58.1243 20.0103 58.5715 20.9719 59.1754 21.7882C59.7792 22.6045 60.5563 23.2363 61.5068 23.6836C62.4573 24.1308 63.6035 24.3433 64.9453 24.3209C66.9134 24.3209 68.5683 23.7674 69.9101 22.6604C71.252 21.5534 72.0459 19.9935 72.2919 17.9807H71.621C71.3302 19.8817 70.5866 21.3074 69.3902 22.2579C68.1937 23.2083 66.6897 23.6836 64.8782 23.6836C63.6482 23.6836 62.6083 23.4711 61.7584 23.0462C60.9086 22.6213 60.2153 22.0398 59.6786 21.3018C59.1418 20.5638 58.7449 19.6972 58.4877 18.702C58.2305 17.7068 58.0907 16.6277 58.0683 15.4648ZM71.8223 14.7938H58.0683C58.1354 13.5862 58.3591 12.5015 58.7393 11.5399C59.1195 10.5782 59.6171 9.75633 60.2321 9.07423C60.8471 8.39212 61.5627 7.87216 62.379 7.51433C63.1953 7.15651 64.0731 6.97759 65.0124 6.97759C66.1306 6.97759 67.1146 7.18446 67.9645 7.5982C68.8143 8.01194 69.5243 8.57662 70.0946 9.29228C70.6649 10.0079 71.0954 10.841 71.3862 11.7915C71.6769 12.7419 71.8223 13.7427 71.8223 14.7938ZM86.4148 11.8082H87.0857C87.0857 9.88492 86.5266 8.48717 85.4084 7.61497C84.2902 6.74277 82.7695 6.30667 80.8462 6.30667C79.7727 6.30667 78.867 6.44085 78.1289 6.70923C77.3909 6.9776 76.7871 7.32424 76.3174 7.74916C75.8478 8.17408 75.5123 8.64372 75.3111 9.15809C75.1098 9.67247 75.0091 10.1645 75.0091 10.6341C75.0091 11.5734 75.1769 12.3226 75.5123 12.8817C75.8478 13.4408 76.3733 13.8769 77.089 14.19C77.581 14.4137 78.1401 14.6149 78.7663 14.7938C79.3925 14.9728 80.1193 15.1628 80.9468 15.3641C81.6848 15.543 82.4117 15.7219 83.1273 15.9009C83.843 16.0798 84.4747 16.3202 85.0227 16.6221C85.5706 16.924 86.0179 17.3098 86.3645 17.7794C86.7112 18.2491 86.8845 18.8641 86.8845 19.6245C86.8845 20.3625 86.7112 20.9887 86.3645 21.5031C86.0179 22.0174 85.5762 22.4368 85.0394 22.761C84.5027 23.0853 83.9045 23.3201 83.2447 23.4655C82.585 23.6109 81.942 23.6836 81.3158 23.6836C79.2807 23.6836 77.7208 23.2307 76.6361 22.3249C75.5515 21.4192 75.0091 19.9935 75.0091 18.0478H74.3382C74.3382 20.2171 74.9253 21.805 76.0994 22.8114C77.2735 23.8178 79.0123 24.3209 81.3158 24.3209C82.0538 24.3209 82.7974 24.2371 83.5466 24.0693C84.2958 23.9016 84.9668 23.6277 85.5594 23.2475C86.1521 22.8673 86.6329 22.3753 87.0019 21.7714C87.3709 21.1676 87.5554 20.4296 87.5554 19.5574C87.5554 18.7299 87.3933 18.059 87.069 17.5446C86.7447 17.0302 86.3198 16.6053 85.7942 16.2699C85.2687 15.9344 84.676 15.6716 84.0163 15.4815C83.3565 15.2914 82.6912 15.1069 82.0203 14.928C81.081 14.682 80.2591 14.4696 79.5546 14.2906C78.8502 14.1117 78.196 13.8993 77.5922 13.6533C77.0107 13.4073 76.5467 13.055 76.2 12.5966C75.8534 12.1381 75.6801 11.484 75.6801 10.6341C75.6801 10.4776 75.7248 10.198 75.8142 9.79547C75.9037 9.39291 76.1162 8.98477 76.4516 8.57104C76.7871 8.1573 77.3015 7.78829 77.9947 7.46401C78.688 7.13973 79.6385 6.97759 80.8462 6.97759C81.6736 6.97759 82.4284 7.06705 83.1105 7.24596C83.7926 7.42488 84.3797 7.71002 84.8717 8.10139C85.3637 8.49276 85.7439 8.99036 86.0123 9.59419C86.2806 10.198 86.4148 10.936 86.4148 11.8082ZM101.947 11.8082H102.618C102.618 9.88492 102.059 8.48717 100.94 7.61497C99.8221 6.74277 98.3013 6.30667 96.378 6.30667C95.3045 6.30667 94.3988 6.44085 93.6608 6.70923C92.9228 6.9776 92.3189 7.32424 91.8493 7.74916C91.3797 8.17408 91.0442 8.64372 90.8429 9.15809C90.6416 9.67247 90.541 10.1645 90.541 10.6341C90.541 11.5734 90.7087 12.3226 91.0442 12.8817C91.3797 13.4408 91.9052 13.8769 92.6209 14.19C93.1129 14.4137 93.672 14.6149 94.2982 14.7938C94.9244 14.9728 95.6512 15.1628 96.4787 15.3641C97.2167 15.543 97.9435 15.7219 98.6592 15.9009C99.3748 16.0798 100.007 16.3202 100.555 16.6221C101.102 16.924 101.55 17.3098 101.896 17.7794C102.243 18.2491 102.416 18.8641 102.416 19.6245C102.416 20.3625 102.243 20.9887 101.896 21.5031C101.55 22.0174 101.108 22.4368 100.571 22.761C100.035 23.0853 99.4363 23.3201 98.7766 23.4655C98.1168 23.6109 97.4739 23.6836 96.8477 23.6836C94.8125 23.6836 93.2526 23.2307 92.168 22.3249C91.0833 21.4192 90.541 19.9935 90.541 18.0478H89.8701C89.8701 20.2171 90.4571 21.805 91.6312 22.8114C92.8054 23.8178 94.5442 24.3209 96.8477 24.3209C97.5857 24.3209 98.3293 24.2371 99.0785 24.0693C99.8277 23.9016 100.499 23.6277 101.091 23.2475C101.684 22.8673 102.165 22.3753 102.534 21.7714C102.903 21.1676 103.087 20.4296 103.087 19.5574C103.087 18.7299 102.925 18.059 102.601 17.5446C102.277 17.0302 101.852 16.6053 101.326 16.2699C100.801 15.9344 100.208 15.6716 99.5481 15.4815C98.8884 15.2914 98.2231 15.1069 97.5521 14.928C96.6128 14.682 95.791 14.4696 95.0865 14.2906C94.382 14.1117 93.7279 13.8993 93.1241 13.6533C92.5426 13.4073 92.0785 13.055 91.7319 12.5966C91.3852 12.1381 91.2119 11.484 91.2119 10.6341C91.2119 10.4776 91.2566 10.198 91.3461 9.79547C91.4356 9.39291 91.648 8.98477 91.9835 8.57104C92.3189 8.1573 92.8333 7.78829 93.5266 7.46401C94.2199 7.13973 95.1704 6.97759 96.378 6.97759C97.2055 6.97759 97.9603 7.06705 98.6424 7.24596C99.3245 7.42488 99.9116 7.71002 100.404 8.10139C100.896 8.49276 101.276 8.99036 101.544 9.59419C101.812 10.198 101.947 10.936 101.947 11.8082Z" fill="#222222"/>
</g>
<defs>
<clipPath id="clip0_6566_8360">
<rect width="103.087" height="30" fill="white"/>
</clipPath>
</defs>
</svg>
