<svg width="30" height="30" viewBox="0 0 30 30" fill="none" xmlns="http://www.w3.org/2000/svg">
<path d="M3.2319 22.077L4.31007 22.6995L16.3213 1.89602L15.2432 1.27352L3.2319 22.077Z" fill="#E535AB"/>
<path d="M27.0075 20.415H2.985V21.66H27.0075V20.415Z" fill="#E535AB"/>
<path d="M3.46035 21.1144L15.4761 28.052L16.0986 26.9738L4.08285 20.0363L3.46035 21.1144Z" fill="#E535AB"/>
<path d="M13.8984 3.03348L25.9142 9.97098L26.5367 8.89281L14.5209 1.95531L13.8984 3.03348Z" fill="#E535AB"/>
<path d="M3.46367 8.88811L4.08617 9.96628L16.1019 3.02877L15.4794 1.9506L3.46367 8.88811Z" fill="#E535AB"/>
<path d="M13.6814 1.89623L25.6926 22.6997L26.7708 22.0772L14.7596 1.27373L13.6814 1.89623Z" fill="#E535AB"/>
<path d="M5.1825 8.0625H3.9375V21.9375H5.1825V8.0625Z" fill="#E535AB"/>
<path d="M26.0625 8.0625H24.8175V21.9375H26.0625V8.0625Z" fill="#E535AB"/>
<path d="M14.7204 26.5832L15.2641 27.5249L25.7146 21.4912L25.1708 20.5494L14.7204 26.5832Z" fill="#E535AB"/>
<path d="M27.7125 22.3425C26.9925 23.595 25.3875 24.0225 24.135 23.3025C22.8825 22.5825 22.455 20.9775 23.175 19.725C23.895 18.4725 25.5 18.045 26.7525 18.765C28.0125 19.4925 28.44 21.09 27.7125 22.3425Z" fill="#E535AB"/>
<path d="M6.81751 10.275C6.0975 11.5275 4.4925 11.955 3.24 11.235C1.9875 10.515 1.56 8.91 2.28 7.6575C3 6.405 4.605 5.9775 5.8575 6.6975C7.11 7.425 7.53751 9.0225 6.81751 10.275Z" fill="#E535AB"/>
<path d="M2.28751 22.3425C1.56751 21.09 1.99501 19.4925 3.24751 18.765C4.50001 18.045 6.09751 18.4725 6.82501 19.725C7.54501 20.9775 7.11751 22.575 5.86501 23.3025C4.60501 24.0225 3.00751 23.595 2.28751 22.3425Z" fill="#E535AB"/>
<path d="M23.1825 10.275C22.4625 9.0225 22.89 7.425 24.1425 6.6975C25.395 5.9775 26.9925 6.405 27.72 7.6575C28.44 8.91 28.0125 10.5075 26.76 11.235C25.5075 11.955 23.9025 11.5275 23.1825 10.275Z" fill="#E535AB"/>
<path d="M15 29.685C13.5525 29.685 12.3825 28.515 12.3825 27.0675C12.3825 25.62 13.5525 24.45 15 24.45C16.4475 24.45 17.6175 25.62 17.6175 27.0675C17.6175 28.5075 16.4475 29.685 15 29.685Z" fill="#E535AB"/>
<path d="M15 5.55001C13.5525 5.55001 12.3825 4.38 12.3825 2.9325C12.3825 1.485 13.5525 0.315002 15 0.315002C16.4475 0.315002 17.6175 1.485 17.6175 2.9325C17.6175 4.38 16.4475 5.55001 15 5.55001Z" fill="#E535AB"/>
</svg>
