<svg width="30" height="30" viewBox="0 0 30 30" fill="none" xmlns="http://www.w3.org/2000/svg">
<path d="M6.35156 0H7.69922V1.33594H8.94141V0H10.2891V4.04297H8.94141V2.69531H7.71094V4.04297H6.35156M12.0703 1.34766H10.8809V0H14.6133V1.34766H13.418V4.04297H12.0703M15.2051 0H16.6172L17.4844 1.42383L18.3516 0H19.7637V4.04297H18.416V2.03906L17.4727 3.49219L16.5293 2.03906V4.04297H15.2051M20.4316 0H21.7793V2.70703H23.6895V4.04297H20.4316" fill="black"/>
<path d="M6.30469 27.5977L4.37109 5.89453H25.6289L23.6953 27.5859L14.9824 30" fill="#E44D26"/>
<path d="M15 28.1543V7.67578H23.6895L22.0312 26.1914" fill="#F16529"/>
<path d="M8.32031 10.3301H15V12.9902H11.2383L11.4844 15.7148H15V18.3691H9.04687M9.16406 19.7051H11.8359L12.0234 21.832L15 22.6289V25.4062L9.53906 23.8828" fill="#EBEBEB"/>
<path d="M21.6562 10.3301H14.9883V12.9902H21.4102M21.1699 15.7148H14.9883V18.375H18.2695L17.959 21.832L14.9883 22.6289V25.3945L20.4375 23.8828" fill="white"/>
</svg>
