<svg width="30" height="30" viewBox="0 0 30 30" fill="none" xmlns="http://www.w3.org/2000/svg">
<g clip-path="url(#clip0_7224_8798)">
<path d="M30 15C30 6.71573 23.2843 0 15 0C6.71573 0 0 6.71573 0 15C0 23.2843 6.71573 30 15 30C23.2843 30 30 23.2843 30 15Z" fill="#FF6D12"/>
<path fill-rule="evenodd" clip-rule="evenodd" d="M23 7.72731C22.6049 8.55434 22.3821 9.19955 22.3314 9.66294C22.2554 10.3581 22.2386 11.4768 21.7544 12.6992C21.4318 13.5141 20.5355 14.2347 19.0657 14.8611L18.4343 14.9187L19.2156 14.958C19.8999 14.9712 20.6412 15.4598 21.4394 16.4238C22.2375 17.3878 22.505 19.5799 22.2415 23C21.4145 22.6049 20.7693 22.3821 20.3059 22.3314C19.6107 22.2554 18.492 22.2386 17.2696 21.7544C16.4547 21.4318 15.7341 20.5355 15.1077 19.0657L15.0687 18.6392L15.042 19.1737C15.0288 19.8581 14.5402 20.5994 13.5762 21.3976C12.6122 22.1958 10.4201 22.4632 7 22.1997C7.39495 21.3727 7.61788 20.7275 7.66857 20.2641C7.74461 19.5691 7.76136 18.4502 8.24546 17.2279C8.56834 16.413 9.46447 15.6923 10.9343 15.0658L11.054 15.0549L10.795 15.042C10.1107 15.0288 9.36937 14.5402 8.57121 13.5762C7.77304 12.6122 7.50559 10.4201 7.76907 7C8.59611 7.39495 9.24132 7.61788 9.7047 7.66857C10.3997 7.74461 11.5186 7.76136 12.7409 8.24546C13.5558 8.56834 14.2765 9.46447 14.903 10.9343L14.9327 11.2594L14.9581 10.7533C14.9712 10.0689 15.4598 9.32761 16.4237 8.52944C17.3878 7.73128 19.5798 7.46382 23 7.72731Z" fill="#293041"/>
</g>
<defs>
<clipPath id="clip0_7224_8798">
<rect width="30" height="30" fill="white"/>
</clipPath>
</defs>
</svg>
