<svg width="31" height="30" viewBox="0 0 31 30" fill="none" xmlns="http://www.w3.org/2000/svg">
<g clip-path="url(#clip0_7215_8725)">
<path d="M5.44872 0H25.3205C28.3333 0 30.7692 2.4359 30.7692 5.44872V24.5513C30.7692 27.5641 28.3333 30 25.3205 30H5.44872C2.4359 30 0 27.5641 0 24.5513V5.44872C0 2.4359 2.4359 0 5.44872 0Z" fill="#330000"/>
<path d="M14.8718 17.9487H10.1026L9.12825 20.9615C9.10261 21.0769 9.00005 21.1538 8.88466 21.141H6.47441C6.33338 21.141 6.29492 21.0641 6.33338 20.9102L10.4616 9.02563C10.5 8.89743 10.5385 8.7564 10.5898 8.60256C10.6411 8.33333 10.6667 8.05127 10.6667 7.76922C10.6539 7.70512 10.7052 7.64102 10.7693 7.6282H14.0898C14.1924 7.6282 14.2436 7.66666 14.2565 7.73076L18.9359 20.9359C18.9744 21.0769 18.9359 21.141 18.8077 21.141H16.1283C16.0385 21.1538 15.9488 21.0897 15.9231 21L14.8718 17.9487ZM10.8462 15.3461H14.1026C14.0257 15.0769 13.9231 14.7564 13.8077 14.4231C13.6924 14.0769 13.577 13.7051 13.4616 13.3205C13.3334 12.9231 13.218 12.5385 13.0898 12.141C12.9616 11.7436 12.8462 11.3718 12.7436 11C12.6411 10.641 12.5513 10.3077 12.4616 9.99999H12.4359C12.3206 10.5513 12.1795 11.1026 12 11.6538C11.8077 12.2692 11.6154 12.9102 11.4103 13.5513C11.2308 14.2051 11.0385 14.8077 10.8462 15.3461ZM21.7949 9.87179C21.3718 9.88461 20.9616 9.71794 20.6539 9.42307C20.359 9.10256 20.2052 8.67948 20.218 8.24358C20.2052 7.80769 20.3718 7.39743 20.6795 7.10256C20.9872 6.80769 21.3975 6.65384 21.8206 6.65384C22.3206 6.65384 22.7052 6.80769 22.9872 7.10256C23.2693 7.41025 23.4231 7.82051 23.4103 8.24358C23.4231 8.67948 23.2693 9.10256 22.9616 9.42307C22.6667 9.73076 22.2308 9.89743 21.7949 9.87179ZM20.359 21V11.1282C20.359 11 20.4103 10.9487 20.5257 10.9487H23.0641C23.1795 10.9487 23.2308 11.0128 23.2308 11.1282V21C23.2308 21.141 23.1795 21.2051 23.0641 21.2051H20.5513C20.4231 21.2051 20.359 21.1282 20.359 21Z" fill="#FF9A00"/>
</g>
<defs>
<clipPath id="clip0_7215_8725">
<rect width="30.7692" height="30" fill="white"/>
</clipPath>
</defs>
</svg>
