<svg width="17" height="30" viewBox="0 0 17 30" fill="none" xmlns="http://www.w3.org/2000/svg">
<g clip-path="url(#clip0_6032_4689)">
<path fill-rule="evenodd" clip-rule="evenodd" d="M5.33266 15.9133C5.33266 15.9133 4.54676 16.3708 5.8926 16.5251C7.52329 16.7113 8.35658 16.6845 10.1531 16.3449C10.1531 16.3449 10.6263 16.641 11.2861 16.8974C7.2576 18.6234 2.16872 16.7974 5.33266 15.9133Z" fill="#0074BD"/>
<path fill-rule="evenodd" clip-rule="evenodd" d="M4.84013 13.6606C4.84013 13.6606 3.95855 14.3134 5.30539 14.4525C7.04747 14.6324 8.42272 14.6471 10.8038 14.1889C10.8038 14.1889 11.1324 14.5226 11.6498 14.705C6.77982 16.1295 1.35565 14.8171 4.84013 13.6606Z" fill="#0074BD"/>
<path fill-rule="evenodd" clip-rule="evenodd" d="M8.98988 9.83885C9.98302 10.9821 8.72946 12.01 8.72946 12.01C8.72946 12.01 11.2497 10.7092 10.0925 9.07944C9.01136 7.56031 8.18245 6.80569 12.67 4.20319C12.67 4.20319 5.62565 5.96211 8.98988 9.83885Z" fill="#EA2D2E"/>
<path fill-rule="evenodd" clip-rule="evenodd" d="M14.3179 17.5798C14.3179 17.5798 14.8997 18.0594 13.6771 18.4303C11.3524 19.1344 3.99944 19.3468 1.95715 18.4585C1.22351 18.1389 2.59994 17.696 3.03301 17.6025C3.48457 17.5048 3.74239 17.5226 3.74239 17.5226C2.9259 16.9477 -1.53494 18.6518 1.47678 19.1406C9.68987 20.4719 16.448 18.541 14.3179 17.5798Z" fill="#0074BD"/>
<path fill-rule="evenodd" clip-rule="evenodd" d="M5.71088 11.3263C5.71088 11.3263 1.97121 12.2148 4.38662 12.5377C5.40681 12.6742 7.43931 12.6428 9.33394 12.4839C10.8819 12.354 12.4353 12.0761 12.4353 12.0761C12.4353 12.0761 11.8899 12.3101 11.495 12.5796C7.69668 13.5786 0.360354 13.1133 2.4727 12.0919C4.2583 11.2281 5.71088 11.3263 5.71088 11.3263Z" fill="#0074BD"/>
<path fill-rule="evenodd" clip-rule="evenodd" d="M12.4199 15.0761C16.2808 13.0703 14.4954 11.1426 13.2494 11.4022C12.9447 11.4658 12.808 11.5209 12.808 11.5209C12.808 11.5209 12.9215 11.3431 13.1377 11.2666C15.6028 10.4003 17.4982 13.8223 12.3427 15.1776C12.3427 15.1776 12.402 15.1239 12.4199 15.0761Z" fill="#0074BD"/>
<path fill-rule="evenodd" clip-rule="evenodd" d="M10.0926 0C10.0926 0 12.2303 2.13897 8.06438 5.42718C4.72356 8.06591 7.30265 9.56988 8.06319 11.2891C6.11291 9.52964 4.68241 7.98056 5.64192 6.53904C7.05093 4.42333 10.9549 3.39723 10.0926 0Z" fill="#EA2D2E"/>
<path fill-rule="evenodd" clip-rule="evenodd" d="M6.09049 20.5129C9.79566 20.7498 15.4869 20.3811 15.6216 18.6277C15.6216 18.6277 15.3627 19.2924 12.5592 19.8198C9.39649 20.4152 5.49472 20.3459 3.18146 19.9639C3.18146 19.9639 3.65536 20.3562 6.09049 20.5129Z" fill="#0074BD"/>
<path fill-rule="evenodd" clip-rule="evenodd" d="M15.4506 23.6573H15.3377V23.5943H15.6416V23.6573H15.5292V23.9727H15.4505V23.6573H15.4506ZM16.0573 23.6733H16.0559L15.9438 23.9726H15.8923L15.781 23.6733H15.7798V23.9726H15.7053V23.5942H15.8146L15.9177 23.8621L16.0211 23.5942H16.1298V23.9726H16.0574V23.6733H16.0573Z" fill="#EA2D2E"/>
<path fill-rule="evenodd" clip-rule="evenodd" d="M5.48332 27.2123C5.13391 27.5152 4.76443 27.6855 4.43277 27.6855C3.96037 27.6855 3.70414 27.4016 3.70414 26.9474C3.70414 26.4556 3.97849 26.0957 5.07715 26.0957H5.48332V27.2123ZM6.44784 28.3003V24.9321C6.44784 24.0711 5.95682 23.5029 4.77353 23.5029C4.08309 23.5029 3.47772 23.6736 2.98561 23.891L3.12722 24.4876C3.51482 24.3452 4.01604 24.213 4.50815 24.213C5.18995 24.213 5.48332 24.4876 5.48332 25.0554V25.4813H5.14261C3.48646 25.4813 2.73926 26.1235 2.73926 27.0897C2.73926 27.9221 3.23174 28.3953 4.15879 28.3953C4.75455 28.3953 5.19983 28.1493 5.61547 27.7892L5.69117 28.3003H6.44784Z" fill="#EA2D2E"/>
<path fill-rule="evenodd" clip-rule="evenodd" d="M9.66667 28.3003H8.4639L7.01605 23.589H8.06651L8.96521 26.484L9.16508 27.3538C9.61869 26.0957 9.94038 24.8184 10.1012 23.589H11.1229C10.8497 25.1403 10.3568 26.8433 9.66667 28.3003Z" fill="#EA2D2E"/>
<path fill-rule="evenodd" clip-rule="evenodd" d="M14.282 27.2123C13.9315 27.5152 13.5619 27.6855 13.2312 27.6855C12.7586 27.6855 12.5023 27.4016 12.5023 26.9474C12.5023 26.4556 12.7772 26.0957 13.8749 26.0957H14.282V27.2123H14.282ZM15.2469 28.3003V24.9321C15.2469 24.0711 14.7544 23.5029 13.5722 23.5029C12.8809 23.5029 12.2757 23.6736 11.7835 23.891L11.9254 24.4876C12.3132 24.3452 12.8151 24.213 13.3071 24.213C13.9881 24.213 14.282 24.4876 14.282 25.0554V25.4813H13.9413C12.2848 25.4813 11.5378 26.1235 11.5378 27.0897C11.5378 27.9221 12.0296 28.3953 12.9566 28.3953C13.5528 28.3953 13.9973 28.1493 14.414 27.7892L14.4902 28.3003H15.2469Z" fill="#EA2D2E"/>
<path fill-rule="evenodd" clip-rule="evenodd" d="M1.68154 29.101C1.40674 29.5026 0.962332 29.8207 0.476227 30L0 29.439C0.370303 29.2488 0.687484 28.9423 0.835059 28.6569C0.962332 28.4025 1.01532 28.0755 1.01532 27.2926V21.9131H2.04038V27.2185C2.04038 28.2655 1.9568 28.6888 1.68154 29.101Z" fill="#EA2D2E"/>
</g>
<defs>
<clipPath id="clip0_6032_4689">
<rect width="16.1297" height="30" fill="white"/>
</clipPath>
</defs>
</svg>
