<svg width="123" height="30" viewBox="0 0 123 30" fill="none" xmlns="http://www.w3.org/2000/svg">
<g clip-path="url(#clip0_6032_4619)">
<path d="M52.3743 10.8002L52.3745 10.7991L51.5905 13.578L52.3743 10.8002H52.3743Z" fill="#131B28"/>
<path d="M56.407 16.8332L55.543 16.8281L56.407 16.8332Z" fill="#131B28"/>
<path d="M56.1848 20.9832H56.1858L51.0089 21.002L56.185 20.9832H56.1848Z" fill="#131B28"/>
<path d="M57.2701 16.8384L56.4058 16.8332L57.2701 16.8384Z" fill="#131B28"/>
<path d="M56.6385 20.6304L57.5403 17.1913L56.6385 20.6311V20.6306V20.6304Z" fill="#131B28"/>
<path d="M75.6983 4.79297L74.0184 12.69L75.6983 4.79297Z" fill="#131B28"/>
<path d="M71.3801 4.79298L70.1049 10.6924L71.3801 4.79251V4.79298Z" fill="#131B28"/>
<path d="M75.4106 4.43765H71.8185C71.6192 4.43765 71.4213 4.59756 71.3788 4.7923L70.1035 10.6922L68.8283 16.5921C68.786 16.7868 68.5884 16.9461 68.3891 16.9461H66.2096H65.8467C63.3313 16.9461 63.6223 15.2066 64.1374 12.8229C64.1425 12.7989 64.1477 12.7755 64.1528 12.7509L64.2093 12.4505C64.2128 12.4311 64.2168 12.4117 64.2199 12.394L64.3347 11.7823L64.4577 11.1267C64.4952 10.9291 64.552 10.6402 64.5891 10.4586L65.1687 7.62605L65.749 4.79353C65.789 4.59822 65.6582 4.43774 65.4589 4.43774H61.7719C61.5725 4.43774 61.3752 4.59822 61.3344 4.79297L60.5417 8.55414L59.749 12.3148C59.7483 12.3165 59.7481 12.3188 59.7479 12.3206L59.6742 12.6701C58.761 16.839 59.0032 20.8144 63.9659 20.9388C64.047 20.9412 64.1098 20.9418 64.1098 20.9418H71.8998C72.0991 20.9418 72.2964 20.7819 72.3381 20.5865L74.018 12.6902L75.6978 4.79309C75.7392 4.59777 75.6099 4.43786 75.4106 4.43786L75.4106 4.43765Z" fill="#131B28"/>
<path d="M89.7404 16.9874C89.94 16.9874 90.0704 17.1473 90.0305 17.3426L89.6815 19.0473" fill="#131B28"/>
<path d="M89.3333 20.753L89.6819 19.0471L89.333 20.7535C89.333 20.7531 89.3332 20.7531 89.3332 20.7531L89.3333 20.753Z" fill="#131B28"/>
<path d="M88.8959 21.1118C88.8964 21.1118 88.8971 21.1114 88.8975 21.1114C87.8405 21.1199 84.6638 21.1439 82.2762 21.1439C85.182 21.1439 88.8957 21.1119 88.8957 21.1119L88.8959 21.1118Z" fill="#131B28"/>
<path d="M80.1334 14.7916C80.1304 14.6048 80.343 14.2833 80.5426 14.2833L80.094 14.2759C79.8918 16.3089 80.1334 14.7916 80.1334 14.7916H80.1334Z" fill="#131B28"/>
<path d="M82.6035 21.1432C82.5807 21.1432 82.5573 21.1432 82.5344 21.1436C82.5573 21.1432 82.5807 21.1432 82.6035 21.1432Z" fill="#131B28"/>
<path d="M89.7403 16.9874C89.9399 16.9874 90.0704 17.1473 90.0304 17.3426L89.6815 19.0473L89.6246 19.3254" fill="#131B28"/>
<path d="M83.1533 21.1427C83.1247 21.1427 83.0967 21.1427 83.0687 21.1432C83.0967 21.1427 83.1247 21.1427 83.1533 21.1427Z" fill="#131B28"/>
<path d="M83.3708 21.142C83.298 21.142 83.2252 21.1425 83.1532 21.1425C83.2252 21.1425 83.298 21.142 83.3708 21.142Z" fill="#131B28"/>
<path d="M84.2901 21.1392C83.9994 21.1404 83.7093 21.1415 83.4235 21.1421C83.7093 21.1416 83.9997 21.1405 84.2901 21.1392Z" fill="#131B28"/>
<path d="M88.8983 21.1111H88.8985C88.1238 21.1174 86.2108 21.1317 84.303 21.1391C86.2098 21.1323 88.1233 21.1174 88.8983 21.1111Z" fill="#131B28"/>
<path d="M89.3333 20.7537L89.6254 19.3254L89.333 20.7548C89.333 20.7543 89.3332 20.7543 89.3332 20.7536L89.3333 20.7537Z" fill="#131B28"/>
<path d="M30.2597 14.8344L30.8176 12.3609L30.1797 15.1883L29.5675 18.0683L30.104 15.5436C30.1454 15.3483 30.2157 15.0291 30.2597 14.8343L30.2597 14.8344Z" fill="#131B28"/>
<path d="M36.938 4.39603H32.9932C32.7936 4.39603 32.5946 4.55536 32.55 4.74952L32.176 6.40054L31.8019 8.05214C31.7579 8.24632 31.885 8.40564 32.0846 8.40564H36.06C36.2594 8.40564 36.4575 8.24631 36.5003 8.05156L36.8618 6.40054L37.2233 4.75067V4.7502C37.2659 4.55546 37.1377 4.39612 36.9381 4.39612L36.938 4.39603Z" fill="#131B28"/>
<path d="M36.0795 9.88819V9.88773L34.9225 15.2405L36.0795 9.88819Z" fill="#131B28"/>
<path d="M24.6199 27.6234C24.6199 27.6234 26.6085 27.6491 27.8726 27.6491C26.9123 27.6491 25.3264 27.6314 24.6183 27.6228C24.619 27.6228 24.6195 27.6233 24.6202 27.6233L24.6199 27.6234Z" fill="#131B28"/>
<path d="M31.3754 9.88748L30.8169 12.3609L31.3754 9.88748Z" fill="#131B28"/>
<path d="M35.7942 9.53357H31.8183C31.619 9.53357 31.4197 9.69291 31.3757 9.88765L30.8171 12.3611L30.2592 14.8346C30.2152 15.0293 30.145 15.3485 30.1036 15.5438L29.567 18.0685L29.0308 20.5932C28.9891 20.7879 28.9034 21.1026 28.8395 21.2916C28.8395 21.2916 28.0968 23.5017 26.8481 23.4766C26.795 23.4754 26.7433 23.475 26.6922 23.4737C26.0871 23.4622 25.6117 23.4537 25.6117 23.4537H25.6107C25.4117 23.4508 25.2115 23.6062 25.165 23.7998L24.7527 25.533L24.3409 27.2657C24.2947 27.4593 24.4197 27.6192 24.6179 27.6226C25.3261 27.6312 26.912 27.6489 27.8722 27.6489C30.9912 27.6489 32.6355 25.9208 33.6895 20.9478L34.923 15.2405L36.0801 9.88773C36.122 9.69299 35.9933 9.53365 35.7939 9.53365L35.7942 9.53357Z" fill="#131B28"/>
<path d="M92.2737 20.9415C92.0744 20.9415 91.9451 20.7816 91.987 20.5863L94.9779 6.57693" fill="#131B28"/>
<path d="M96.4304 20.5857L97.64 14.6063L96.4304 20.5857Z" fill="#131B28"/>
<path d="M92.0304 20.764C92.0061 20.6663 92.0203 20.4271 92.0626 20.2317L93.4821 13.5819L91.9867 20.5864C91.9447 20.7817 92.0741 20.9416 92.2734 20.9416H92.6366C92.437 20.9416 92.0544 20.8616 92.0304 20.764L92.0304 20.764Z" fill="#131B28"/>
<path d="M96.1942 20.8615C96.0857 20.9055 95.8332 20.9415 95.6337 20.9415H95.9969C96.1962 20.9415 96.3921 20.7816 96.4315 20.5857L96.5034 20.2305C96.4637 20.4258 96.303 20.8176 96.1942 20.8615Z" fill="#131B28"/>
<path d="M97.0362 17.596L97.5701 14.957C97.5699 14.9586 97.5697 14.961 97.5692 14.9621L97.0361 17.596H97.0362Z" fill="#131B28"/>
<path d="M108.837 7.51532L109.002 8.19607C109.048 8.39081 108.922 8.549 108.723 8.54957" fill="#131B28"/>
<path d="M96.5029 20.2306L97.0355 17.5963L96.5029 20.2306Z" fill="#131B28"/>
<path d="M108.674 6.81802L108.837 7.51533L108.674 6.81802Z" fill="#131B28"/>
<path d="M97.5696 14.9572C97.6093 14.7619 97.675 14.4455 97.7164 14.2519L98.2866 11.5803L97.6407 14.6065L97.5696 14.9572V14.9572Z" fill="#131B28"/>
<path d="M95.0269 6.34738C94.9872 6.53584 94.9364 6.77398 94.9027 6.93162L93.4833 13.5819L94.9787 6.577L95.0269 6.34742V6.34738Z" fill="#131B28"/>
<path d="M109.001 8.19602L108.836 7.51528L108.673 6.81797L108.591 6.46503C108.268 5.21034 107.32 4.4862 105.261 4.4862L102.057 4.48279L99.1054 4.47937H98.8521H95.7845C95.5852 4.47937 95.3879 4.6387 95.3468 4.83401H95.3465L95.1998 5.52788L95.0265 6.34739L94.9782 6.57697L93.4828 13.5819L92.0634 20.2317C92.0211 20.427 92.0068 20.6663 92.0311 20.764C92.0551 20.8616 92.4377 20.9416 92.6373 20.9416H95.6333C95.8329 20.9416 96.0854 20.9056 96.1938 20.8616C96.3026 20.8176 96.4634 20.4259 96.5031 20.2306L97.0356 17.5962L97.5687 14.9623C97.569 14.9611 97.5692 14.9588 97.5697 14.9571L97.6408 14.6065L98.2866 11.5803L98.8572 8.90752C98.8994 8.71335 99.0959 8.55458 99.2949 8.55402L108.722 8.54946C108.921 8.54899 109.047 8.39069 109.001 8.19596L109.001 8.19602Z" fill="#131B28"/>
<path d="M121.137 2.0408C120.937 2.04221 120.611 2.04345 120.411 2.04345H117.394C117.194 2.04345 116.939 2.17823 116.826 2.34298L110.154 12.1177C110.041 12.2828 109.913 12.2582 109.869 12.064L109.378 9.91047C109.334 9.71573 109.134 9.55697 108.934 9.55697H104.645C104.445 9.55697 104.327 9.71345 104.382 9.90534L106.304 16.6384C106.359 16.8303 106.363 17.1456 106.313 17.3386L105.475 20.5973C105.426 20.7909 105.548 20.9491 105.748 20.9491H109.987C110.187 20.9491 110.391 20.7909 110.44 20.5973L111.278 17.3386C111.327 17.1456 111.466 16.8566 111.586 16.6973L122.418 2.3209C122.538 2.16157 122.473 2.03192 122.274 2.03337L121.137 2.04078L121.137 2.0408Z" fill="#131B28"/>
<path d="M87.0597 10.4735L87.0595 10.4695C87.0343 10.6859 86.8347 10.8447 86.6354 10.8447H81.1973C81.0094 10.8447 80.9137 10.7167 80.9414 10.5591C80.9431 10.5546 80.9438 10.5506 80.9466 10.5466C80.9466 10.5466 80.9447 10.547 80.9431 10.5482C80.9443 10.5419 80.9443 10.5362 80.9461 10.5299C80.9461 10.5299 80.9564 10.4917 80.9709 10.4374C81.4903 9.05652 82.5483 8.15021 84.5365 8.15021C86.7749 8.15021 87.2119 9.24384 87.0598 10.4734L87.0597 10.4735ZM85.4643 4.1965C78.484 4.1965 76.83 8.43346 75.902 12.7097C74.974 17.0683 75.0539 21.1436 82.277 21.1436H82.5334C82.5562 21.1432 82.5797 21.1432 82.6025 21.1432H82.8047H82.8789H83.0685C83.0965 21.1427 83.1245 21.1427 83.153 21.1427C83.225 21.1427 83.2978 21.1422 83.3706 21.1422H83.4217C83.7076 21.1418 83.9977 21.1404 84.2883 21.1393H84.3029C86.2106 21.1319 88.1237 21.1176 88.8987 21.1113C89.0969 21.1084 89.2908 20.9486 89.3316 20.755L89.624 19.3256L89.6808 19.0474L90.0298 17.3427C90.0697 17.1474 89.9392 16.9875 89.7397 16.9875H83.2459C80.6632 16.9875 79.8961 16.301 80.1787 14.2834H90.5593L90.5584 14.2846C90.561 14.2846 90.5632 14.2834 90.5655 14.2834C90.7305 14.2805 90.883 14.1669 90.9436 14.0156C90.955 13.9864 90.9647 13.9562 90.9687 13.9248L90.9675 13.9259C92.5089 8.11213 92.0668 4.19681 85.4639 4.19681L85.4643 4.1965Z" fill="#131B28"/>
<path d="M52.4726 10.4512L52.3743 10.799C52.3743 10.8002 52.3741 10.8002 52.3741 10.8002L51.5903 13.578L50.8068 16.3553C50.7525 16.5472 50.5452 16.7042 50.3453 16.7042H46.1965C43.0496 16.7042 42.2833 14.2429 43.0496 10.6125C43.8158 6.8993 45.318 4.59099 48.4153 4.35731C52.6478 4.03806 53.4946 7.01509 52.4726 10.4513L52.4726 10.4512ZM55.3177 16.4905C55.3177 16.4905 57.2737 11.7413 57.718 8.99789C58.3238 5.32561 56.4852 0 49.3834 0C42.3222 0 39.256 5.08468 38.0859 10.6122C36.916 16.1796 38.4488 21.0625 45.47 21.0225L51.0089 21.0019L56.1858 20.983C56.3851 20.9814 56.589 20.8231 56.6398 20.6307L57.5416 17.1909C57.5918 16.9979 57.4699 16.8391 57.2706 16.838L56.4062 16.8328L55.5422 16.8277C55.3726 16.8265 55.2755 16.7169 55.2961 16.5713C55.2998 16.545 55.3058 16.5181 55.3172 16.4902L55.3177 16.4905Z" fill="#131B28"/>
<path d="M90.2737 13.3118C90.2737 13.4432 90.1672 13.55 90.0355 13.55C89.9042 13.55 89.7974 13.4432 89.7974 13.3118C89.7974 13.1805 89.9042 13.0742 90.0355 13.0742C90.1672 13.0742 90.2737 13.1805 90.2737 13.3118Z" fill="#131B28"/>
<path d="M1.39848 7.13661C-0.551229 9.93895 -0.308515 13.5848 1.18089 16.5623C1.2163 16.6337 1.25342 16.704 1.28997 16.7742C1.31339 16.8188 1.33537 16.8644 1.35964 16.9084C1.37336 16.9347 1.38877 16.9604 1.40305 16.9855C1.42846 17.0329 1.45444 17.078 1.48071 17.1243C1.52697 17.206 1.57437 17.2871 1.62291 17.3682C1.64976 17.4127 1.67631 17.4572 1.70401 17.5018C1.75769 17.5886 1.8128 17.6743 1.86905 17.7599C1.89247 17.7965 1.91531 17.833 1.9393 17.8684C2.01697 17.9844 2.09635 18.0997 2.17829 18.2134C2.18033 18.2163 2.18256 18.2196 2.18513 18.2225C2.198 18.2407 2.21227 18.2585 2.2254 18.2767C2.29621 18.3744 2.36931 18.4709 2.44327 18.5663C2.4704 18.6011 2.4978 18.6359 2.52522 18.6708C2.59118 18.7536 2.65828 18.8358 2.72653 18.9181C2.75194 18.9489 2.77764 18.9797 2.80334 19.01C2.895 19.1179 2.98837 19.2253 3.08373 19.3304C3.08549 19.332 3.08774 19.3344 3.08944 19.3361C3.09344 19.3406 3.09686 19.3435 3.10028 19.3481C3.19337 19.4497 3.28874 19.5491 3.38526 19.6485C3.41524 19.6793 3.4458 19.7101 3.47664 19.7404C3.55145 19.8158 3.6274 19.89 3.70422 19.9637C3.73534 19.9934 3.76618 20.0237 3.7973 20.0522C3.89981 20.1487 4.00347 20.2435 4.10912 20.3361C4.11087 20.3377 4.11224 20.339 4.11397 20.3401C4.13195 20.3561 4.15052 20.3709 4.16823 20.3863C4.26131 20.4668 4.35611 20.5468 4.45148 20.6256C4.49031 20.657 4.52972 20.6879 4.56884 20.7193C4.64679 20.7815 4.7256 20.8432 4.80498 20.9037C4.84695 20.9357 4.88893 20.9677 4.93119 20.9997C5.01885 21.0642 5.10708 21.1276 5.19617 21.1899C5.22872 21.2133 5.26013 21.2361 5.29268 21.2584C5.30181 21.2647 5.31011 21.2709 5.31923 21.2772C5.40376 21.3355 5.49027 21.3914 5.57652 21.4474C5.61364 21.472 5.65048 21.4977 5.68788 21.5217C5.82037 21.6056 5.95488 21.6884 6.09078 21.7684C6.12762 21.7895 6.16503 21.8101 6.20214 21.8312C6.30208 21.8889 6.4026 21.9454 6.50453 22.0008C6.55964 22.0305 6.61618 22.0585 6.67186 22.087C6.74382 22.1247 6.8152 22.163 6.8883 22.1995C6.90485 22.2076 6.922 22.2155 6.93827 22.2235C6.96768 22.2378 6.99738 22.2515 7.02679 22.2664C7.14015 22.3206 7.25437 22.3737 7.36974 22.4251C7.3943 22.436 7.418 22.4468 7.44227 22.4577C7.57447 22.5153 7.70781 22.5707 7.84231 22.6239C7.87458 22.637 7.90713 22.6496 7.93968 22.6621C8.06418 22.7101 8.1904 22.7575 8.31718 22.802C8.33318 22.8077 8.34859 22.8129 8.36458 22.8186C8.50364 22.8671 8.64414 22.9122 8.78547 22.9562C8.81917 22.9659 8.85314 22.9768 8.88712 22.9865C9.03104 23.0299 9.17325 23.0818 9.32172 23.1093C18.751 24.8288 21.4899 17.4428 21.4899 17.4428C19.1896 20.4398 15.1063 21.2302 11.2375 20.3502C11.091 20.3171 10.9488 20.2714 10.8058 20.2291C10.7695 20.2183 10.7338 20.2074 10.6981 20.1966C10.5585 20.1537 10.42 20.1086 10.2824 20.0612C10.2635 20.0544 10.2444 20.0475 10.2253 20.0407C10.1019 19.9973 9.97997 19.9516 9.85862 19.9047C9.82435 19.891 9.79008 19.8779 9.75582 19.8642C9.62276 19.8117 9.49056 19.7568 9.36006 19.6997C9.33321 19.6883 9.30752 19.6763 9.28096 19.6649C9.16874 19.6141 9.05766 19.5627 8.94716 19.5095C8.91518 19.4941 8.8832 19.4793 8.85064 19.4633C8.76386 19.421 8.67801 19.3758 8.5924 19.3318C8.53509 19.3017 8.47684 19.2731 8.42 19.2415C8.31544 19.1856 8.21275 19.1274 8.11053 19.068C8.07591 19.0486 8.04082 19.0298 8.00597 19.0097C7.87006 18.9297 7.73579 18.8469 7.60292 18.7629C7.5662 18.7395 7.53041 18.7145 7.49415 18.6904C7.39778 18.6282 7.30187 18.5648 7.20737 18.4998C7.17602 18.4785 7.14585 18.4558 7.11497 18.4348C7.02374 18.3702 6.93345 18.3049 6.84386 18.2387C6.80316 18.2086 6.76316 18.1781 6.72363 18.148C6.64152 18.085 6.55988 18.0217 6.47895 17.9566C6.4424 17.9275 6.40585 17.8984 6.36987 17.8692C6.26707 17.7847 6.16542 17.6996 6.06519 17.6123C6.05464 17.6031 6.0432 17.594 6.03178 17.5843C5.92328 17.4889 5.81677 17.3913 5.71141 17.293C5.68085 17.2639 5.65116 17.2353 5.62118 17.2062C5.54322 17.132 5.46641 17.0572 5.39103 16.9806C5.36076 16.9504 5.33049 16.9207 5.30079 16.8904C5.20485 16.7922 5.11062 16.6928 5.01838 16.5917C5.01382 16.5866 5.00897 16.582 5.00441 16.5769C4.90675 16.4701 4.81138 16.361 4.718 16.2508C4.69259 16.2205 4.66803 16.1914 4.6429 16.1617C4.57323 16.0778 4.50413 15.9927 4.43674 15.907C4.41147 15.8761 4.38621 15.8445 4.36118 15.8127C4.28001 15.7075 4.20071 15.6024 4.12305 15.4958C1.97515 12.566 1.20352 8.52502 2.92024 5.20642" fill="#0868AC"/>
<path d="M7.45078 4.77567C6.04077 6.80475 6.11728 9.52094 7.21721 11.6669C7.40167 12.0267 7.60897 12.3756 7.84083 12.708C8.05213 13.0107 8.28628 13.371 8.56668 13.6143C8.66833 13.7263 8.77456 13.8353 8.88305 13.9427C8.91045 13.9707 8.93845 13.9975 8.96643 14.0249C9.0718 14.1272 9.17888 14.2277 9.28966 14.3253C9.29422 14.3287 9.29823 14.3333 9.30279 14.3368C9.30396 14.3379 9.30513 14.3384 9.30592 14.3397C9.42842 14.4471 9.5549 14.5504 9.68342 14.6521C9.71198 14.6737 9.74024 14.6966 9.76908 14.7189C9.89786 14.8177 10.0292 14.9148 10.164 15.0073C10.168 15.0102 10.1714 15.013 10.1754 15.0158C10.2348 15.057 10.2953 15.0952 10.3556 15.1346C10.3844 15.1535 10.4118 15.1735 10.441 15.1912C10.5372 15.2528 10.6346 15.3128 10.7336 15.3705C10.7477 15.379 10.7613 15.3865 10.7751 15.3945C10.8604 15.4436 10.9469 15.4921 11.0338 15.5389C11.064 15.5561 11.0949 15.5709 11.1257 15.5869C11.1857 15.6183 11.2456 15.6503 11.3067 15.6806C11.3159 15.6851 11.3253 15.6891 11.3341 15.6932C11.4584 15.7543 11.5837 15.8131 11.7116 15.8691C11.739 15.8811 11.7673 15.8919 11.795 15.9033C11.8972 15.9467 12.0006 15.989 12.1045 16.029C12.1485 16.0455 12.1931 16.0615 12.237 16.0775C12.3313 16.1123 12.4258 16.1443 12.5211 16.1763C12.5643 16.19 12.6065 16.2043 12.6496 16.2174C12.7853 16.2597 12.9192 16.3128 13.0605 16.3362C20.3408 17.5423 22.0215 11.9371 22.0215 11.9371C20.5064 14.1193 17.5724 15.1603 14.4414 14.3477C14.3023 14.3111 14.1652 14.2711 14.029 14.2283C13.9873 14.2157 13.9465 14.2021 13.9051 14.1883C13.8083 14.1569 13.7121 14.1238 13.6167 14.089C13.573 14.073 13.5293 14.057 13.4865 14.0404C13.382 14.0004 13.2786 13.9588 13.1761 13.9154C13.1481 13.9034 13.1199 13.8925 13.0924 13.8799C12.964 13.824 12.8375 13.7652 12.7127 13.7035C12.6484 13.6721 12.5853 13.6389 12.5222 13.6064C12.4857 13.5876 12.4488 13.5687 12.4123 13.5499C12.3312 13.5059 12.2507 13.4602 12.1713 13.4139C12.1524 13.4031 12.1327 13.3928 12.1136 13.3814C12.0151 13.3237 11.918 13.2643 11.8218 13.2032C11.7921 13.1844 11.7635 13.1638 11.7338 13.1444C11.6704 13.1033 11.607 13.0616 11.5448 13.0193C11.4106 12.9268 11.2801 12.8297 11.1513 12.7315C11.1216 12.7081 11.0919 12.6852 11.0628 12.6618C9.69227 11.5797 8.60595 10.1011 8.08946 8.42438C7.54817 6.68543 7.6649 4.73339 8.60268 3.14929" fill="#0868AC"/>
<path d="M12.5411 3.01169C11.7099 4.23496 11.6282 5.75414 12.205 7.10525C12.8132 8.53927 14.0596 9.66432 15.5142 10.1977C15.5742 10.2199 15.6342 10.2399 15.695 10.2605C15.7215 10.2685 15.7478 10.2776 15.7747 10.2856C15.8603 10.3124 15.9454 10.3438 16.0339 10.3604C20.0538 11.1371 21.1441 8.29762 21.4344 7.8797C20.4793 9.25488 18.8742 9.58496 16.9048 9.10697C16.7492 9.06908 16.5783 9.01294 16.4283 8.95984C16.236 8.8913 16.0466 8.81317 15.8625 8.72475C15.5128 8.5568 15.1794 8.35282 14.8704 8.11937C13.1081 6.78229 12.0133 4.23142 13.1633 2.15399" fill="#0868AC"/>
<path d="M57.8152 26.8374L56.6565 29.4765H55.3772L55.482 27.0786L54.5403 29.4765H53.3016L53.269 26.8374L53.4058 26.1858H54.283L54.114 28.7924L55.0877 26.1858H56.3107L56.2222 28.8249L57.1879 26.1858H57.952L57.8152 26.8374H57.8152Z" fill="#0868AC"/>
<path d="M59.834 27.6187C59.9467 27.1036 59.9145 27.0071 59.6489 27.0071H59.2466L58.989 28.2143L58.5947 29.477H57.8466L58.4579 26.6129L58.5467 26.1943H59.2306L59.3191 26.3873C59.3191 26.3873 59.7134 26.1543 60.0992 26.1543C60.9202 26.1543 60.8559 26.7734 60.6786 27.6186H59.834L59.834 27.6187Z" fill="#0868AC"/>
<path d="M62.2643 25.7754C61.9348 25.7754 61.7255 25.6789 61.8057 25.2769C61.8942 24.8743 62.1518 24.7777 62.4733 24.7777C62.7957 24.7777 63.0127 24.8743 62.9242 25.2769C62.8437 25.6709 62.5864 25.7754 62.2643 25.7754H62.2643ZM61.9105 29.4767H61.1698L61.3149 28.1895L61.5724 26.9988L61.0576 26.8857L61.2024 26.1861H62.6101L61.9105 29.4767L61.9105 29.4767Z" fill="#0868AC"/>
<path d="M65.1204 26.8842L64.1953 26.9973L63.9294 28.2525C63.8569 28.5986 63.8569 28.6951 64.163 28.6951H64.7823L64.6536 29.3547C64.6536 29.3547 64.0907 29.5238 63.8489 29.5238C62.8995 29.5238 62.9074 29.0007 63.0768 28.22L63.3343 26.9893L62.8192 26.8768L62.972 26.1766H63.5114L63.8172 25.3474H64.5493L64.372 26.1766H65.2732L65.1204 26.8842L65.1204 26.8842Z" fill="#0868AC"/>
<path d="M67.0433 26.9263C66.609 26.9263 66.3834 27.1519 66.2952 27.5539L67.5341 27.4494C67.5904 27.1759 67.5341 26.9263 67.0433 26.9263V26.9263ZM66.1747 28.149C66.1178 28.5516 66.2709 28.6881 66.7857 28.6881H68.0809L67.9524 29.2998C67.9524 29.2998 67.172 29.5168 66.5927 29.5168C65.1524 29.5168 65.1361 28.7047 65.3214 27.8355C65.5065 26.9823 65.8363 26.1382 67.228 26.1382C68.5721 26.1382 68.6366 26.9503 68.3065 28.149H66.1746L66.1747 28.149Z" fill="#0868AC"/>
<path d="M71.2585 29.476H70.5187L70.6634 28.1888L71.1866 25.7427L70.6711 25.6222L70.8242 24.9221H72.2325L71.2585 29.476V29.476Z" fill="#0868AC"/>
<path d="M73.9322 26.9263C73.4973 26.9263 73.2723 27.1519 73.1835 27.5539L74.4227 27.4494C74.4787 27.1759 74.4227 26.9263 73.9322 26.9263L73.9322 26.9263ZM73.063 28.149C73.0067 28.5516 73.1598 28.6881 73.6743 28.6881H74.9698L74.8411 29.2998C74.8411 29.2998 74.0604 29.5168 73.481 29.5168C72.0407 29.5168 72.025 28.7047 72.21 27.8355C72.3954 26.9823 72.7252 26.1382 74.1169 26.1382C75.4607 26.1382 75.5249 26.9503 75.1954 28.149H73.063L73.063 28.149Z" fill="#0868AC"/>
<path d="M78.5894 26.9661C78.5894 26.9661 77.648 26.9741 77.3907 26.9741C76.8433 26.9741 76.7871 27.1426 76.7471 27.3196L76.7146 27.4806L78.4527 27.6097C78.4527 27.6097 78.4606 28.1648 78.3881 28.4784C78.2836 29.0015 77.7445 29.532 76.7711 29.532C76.288 29.532 75.5076 29.3476 75.5076 29.3476L75.6443 28.7119H76.8433C77.3744 28.7119 77.447 28.5669 77.4795 28.4224L77.5195 28.2134L75.8137 28.0843C75.8137 28.0843 75.7494 27.6577 75.8376 27.2317C75.9667 26.652 76.4972 26.1534 77.4709 26.1534C77.9538 26.1534 78.7342 26.3299 78.7342 26.3299L78.5894 26.9661L78.5894 26.9661Z" fill="#0868AC"/>
<path d="M81.8245 26.9661C81.8245 26.9661 80.8834 26.9741 80.6258 26.9741C80.0787 26.9741 80.0225 27.1426 79.9822 27.3196L79.9496 27.4806L81.688 27.6097C81.688 27.6097 81.696 28.1648 81.6235 28.4784C81.519 29.0015 80.9799 29.532 80.0062 29.532C79.5236 29.532 78.7429 29.3476 78.7429 29.3476L78.8797 28.7119H80.0787C80.6095 28.7119 80.682 28.5669 80.7146 28.4224L80.7546 28.2134L79.0487 28.0843C79.0487 28.0843 78.9845 27.6577 79.0727 27.2317C79.2018 26.652 79.7323 26.1534 80.7063 26.1534C81.1889 26.1534 81.9693 26.3299 81.9693 26.3299L81.8245 26.9661L81.8245 26.9661Z" fill="#0868AC"/>
<path d="M82.8374 30H82.194L82.218 29.5169C81.9844 29.5015 81.8639 29.3324 81.9202 29.0503C82.0087 28.6482 82.2583 28.5518 82.5881 28.5518C82.9099 28.5518 83.1266 28.6483 83.0387 29.0503L82.8374 30V30Z" fill="#0868AC"/>
<path d="M87.1416 26.9988C86.659 26.9988 86.4902 27.2884 86.3774 27.8195C86.2646 28.3506 86.2969 28.6641 86.7795 28.6641H87.4474L87.8177 26.9988H87.1416ZM88.244 29.0502L88.1552 29.4768L87.4799 29.4688L87.3831 29.2598C87.3831 29.2598 86.7875 29.5168 86.3857 29.5168C85.3555 29.5168 85.3072 28.6721 85.4922 27.8195C85.6773 26.9503 86.0796 26.1296 87.1016 26.1296C87.4719 26.1296 87.9705 26.3147 87.9705 26.3147L88.3808 24.9229H89.1213L88.2441 29.0502L88.244 29.0502Z" fill="#0868AC"/>
<path d="M90.9076 26.9661C90.2803 26.9661 90.0787 27.3196 89.9662 27.8347C89.8617 28.3578 89.9102 28.7119 90.5293 28.7119C91.1732 28.7119 91.3665 28.3658 91.4787 27.8347C91.5918 27.3356 91.5592 26.9661 90.9076 26.9661H90.9076ZM90.3608 29.5247C89.033 29.5247 88.9282 28.696 89.1053 27.8348C89.2906 26.9742 89.7572 26.1535 91.085 26.1535C92.4042 26.1535 92.5253 26.9742 92.3397 27.8348C92.1549 28.712 91.6881 29.5247 90.3608 29.5247Z" fill="#0868AC"/>
<path d="M97.8924 29.476L98.0375 28.2048L98.1097 27.8427C98.2145 27.3601 98.2788 27.0061 97.7716 27.0061H97.3776C97.3939 27.2556 97.3453 27.5372 97.2811 27.8347L96.9353 29.476H96.1868L96.3316 28.2048L96.4039 27.8427C96.5087 27.3601 96.5726 27.0061 96.0663 27.0061H95.7442L95.2131 29.476H94.3519L95.0521 26.1855H95.728L95.8325 26.3865C95.8325 26.3865 96.2914 26.1449 96.6614 26.1449C96.943 26.1449 97.1523 26.274 97.2248 26.4345C97.3856 26.346 97.8444 26.1449 98.1745 26.1449C99.2036 26.1449 99.1719 26.9816 98.9866 27.8348L98.6408 29.4761H97.8924L97.8924 29.476Z" fill="#0868AC"/>
<path d="M101.312 26.9661C100.684 26.9661 100.483 27.3196 100.371 27.8347C100.266 28.3578 100.315 28.7119 100.934 28.7119C101.578 28.7119 101.771 28.3658 101.884 27.8347C101.996 27.3356 101.964 26.9661 101.312 26.9661ZM100.765 29.5247C99.4371 29.5247 99.3329 28.696 99.5099 27.8348C99.6949 26.9742 100.162 26.1535 101.489 26.1535C102.809 26.1535 102.93 26.9742 102.744 27.8348C102.56 28.712 102.093 29.5247 100.765 29.5247Z" fill="#0868AC"/>
<path d="M104.98 27.6187C105.093 27.1036 105.061 27.0071 104.795 27.0071H104.393L104.135 28.2143L103.741 29.477H102.993L103.604 26.6129L103.693 26.1943H104.377L104.465 26.3873C104.465 26.3873 104.859 26.1543 105.246 26.1543C106.066 26.1543 106.002 26.7734 105.825 27.6186H104.98L104.98 27.6187Z" fill="#0868AC"/>
<path d="M107.862 26.9263C107.428 26.9263 107.202 27.1519 107.114 27.5539L108.353 27.4494C108.409 27.1759 108.353 26.9263 107.862 26.9263V26.9263ZM106.993 28.149C106.937 28.5516 107.09 28.6881 107.604 28.6881H108.9L108.771 29.2998C108.771 29.2998 107.991 29.5168 107.412 29.5168C105.971 29.5168 105.955 28.7047 106.14 27.8355C106.325 26.9823 106.655 26.1382 108.047 26.1382C109.39 26.1382 109.455 26.9503 109.125 28.149H106.993V28.149Z" fill="#0868AC"/>
<path d="M109.848 29.5251C109.51 29.5251 109.301 29.4286 109.39 29.0346C109.47 28.6314 109.719 28.5354 110.058 28.5354C110.371 28.5354 110.588 28.6314 110.508 29.0346C110.419 29.4206 110.162 29.5251 109.848 29.5251Z" fill="#0868AC"/>
</g>
<defs>
<clipPath id="clip0_6032_4619">
<rect width="122.477" height="30" fill="white"/>
</clipPath>
</defs>
</svg>
