<svg width="30" height="30" viewBox="0 0 30 30" fill="none" xmlns="http://www.w3.org/2000/svg">
<g clip-path="url(#clip0_6032_4686)">
<path d="M30 0H0V30H30V0Z" fill="#F7DF1E"/>
<path d="M20.1524 23.4376C20.7567 24.4243 21.5428 25.1495 22.9333 25.1495C24.1014 25.1495 24.8476 24.5657 24.8476 23.759C24.8476 22.7924 24.0809 22.45 22.7952 21.8876L22.0905 21.5852C20.0562 20.7186 18.7048 19.6328 18.7048 17.3376C18.7048 15.2233 20.3157 13.6138 22.8333 13.6138C24.6257 13.6138 25.9143 14.2376 26.8428 15.8709L24.6476 17.2805C24.1643 16.4138 23.6428 16.0724 22.8333 16.0724C22.0076 16.0724 21.4843 16.5962 21.4843 17.2805C21.4843 18.1262 22.0081 18.4686 23.2176 18.9924L23.9224 19.2943C26.3176 20.3214 27.67 21.3686 27.67 23.7228C27.67 26.2609 25.6762 27.6514 22.9986 27.6514C20.3805 27.6514 18.689 26.4038 17.8614 24.7686L20.1524 23.4376ZM10.1938 23.6819C10.6367 24.4676 11.0395 25.1319 12.0081 25.1319C12.9343 25.1319 13.5186 24.7695 13.5186 23.3605V13.7748H16.3376V23.3986C16.3376 26.3176 14.6262 27.6462 12.1281 27.6462C9.87095 27.6462 8.56381 26.4781 7.89905 25.0712L10.1938 23.6819Z" fill="black"/>
</g>
<defs>
<clipPath id="clip0_6032_4686">
<rect width="30" height="30" fill="white"/>
</clipPath>
</defs>
</svg>
