<svg width="44" height="30" viewBox="0 0 44 30" fill="none" xmlns="http://www.w3.org/2000/svg">
<g clip-path="url(#clip0_6032_4592)">
<path d="M43.636 14.0109C43.3236 13.6985 39.3141 8.64864 38.6372 7.81567C37.9082 6.9827 37.5957 7.13888 37.1271 7.19094C36.6584 7.243 31.6075 8.12803 31.0347 8.18009C30.4619 8.28421 30.0974 8.49246 30.4619 9.01306C30.7743 9.4816 34.1069 14.1671 34.8359 15.2603L21.5577 18.436L11.0392 0.787499C10.6226 0.162773 10.5185 -0.0454691 9.58118 0.00659142C8.6439 0.0586519 1.30179 0.683378 0.781078 0.683378C0.260362 0.735439 -0.312426 0.943681 0.20829 2.19313C0.729007 3.44259 9.06047 21.3514 9.26875 21.872C9.47704 22.3926 10.1019 23.2256 11.5078 22.9132C12.9658 22.5488 17.9647 21.2473 20.7245 20.5184C22.1825 23.1215 25.0985 28.4316 25.6713 29.2125C26.4003 30.2537 26.921 30.0455 28.0145 29.7331C28.8998 29.4728 41.6573 24.8915 42.2301 24.6312C42.8029 24.3709 43.1674 24.2147 42.7508 23.6421C42.4384 23.2256 39.1058 18.6963 37.3354 16.3536C38.533 16.0412 42.855 14.8959 43.3236 14.7397C43.8443 14.5835 43.9485 14.3232 43.636 14.0109ZM19.5269 18.9566C19.3707 19.0087 11.9244 20.7787 11.5599 20.8829C11.1433 20.987 11.1433 20.9349 11.1433 20.7787C11.0392 20.6226 2.29116 2.5055 2.13494 2.29725C2.0308 2.08901 2.0308 1.88077 2.13494 1.88077C2.23908 1.88077 9.16461 1.25604 9.3729 1.25604C9.63326 1.25604 9.58119 1.3081 9.68533 1.46429C9.68533 1.46429 19.4227 18.2798 19.5789 18.5401C19.7872 18.8004 19.6831 18.9046 19.5269 18.9566ZM40.4597 22.8612C40.5638 23.0694 40.72 23.1735 40.3034 23.2776C39.9389 23.4338 27.7542 27.5466 27.4938 27.6507C27.2335 27.7548 27.0773 27.8069 26.7648 27.3384C26.4524 26.8698 22.495 20.0499 22.495 20.0499L35.4608 16.666C35.7732 16.5618 35.8774 16.5098 36.0856 16.8221C36.2939 17.1866 40.3555 22.705 40.4597 22.8612ZM41.2928 13.6985C40.9804 13.7506 36.2419 14.948 36.2419 14.948L32.3365 9.63779C32.2323 9.48161 32.1282 9.32542 32.3886 9.27336C32.6489 9.2213 37.075 8.4404 37.2833 8.38834C37.4916 8.33627 37.6478 8.28421 37.9082 8.64864C38.1685 8.961 41.5011 13.23 41.6573 13.3861C41.8135 13.5423 41.6052 13.6464 41.2928 13.6985Z" fill="#FB503B"/>
</g>
<defs>
<clipPath id="clip0_6032_4592">
<rect width="43.7923" height="30" fill="white"/>
</clipPath>
</defs>
</svg>
