<svg width="30" height="30" viewBox="0 0 30 30" fill="none" xmlns="http://www.w3.org/2000/svg">
<g clip-path="url(#clip0_7224_8748)">
<path d="M16.5625 15L18.9858 17.7699L22.2443 19.8296L22.8125 15.0185L22.2443 10.2912L18.9233 12.1207L16.5625 15Z" fill="#188038"/>
<path d="M2.5 19.4034V23.5227C2.5 24.4645 3.26278 25.2273 4.20455 25.2273H8.32386L9.17614 22.1136L8.32386 19.4034L5.49716 18.5511L2.5 19.4034Z" fill="#1967D2"/>
<path d="M8.32386 4.77274L2.5 10.5966L5.49716 11.4489L8.32386 10.5966L9.16193 7.92188L8.32386 4.77274Z" fill="#EA4335"/>
<path d="M2.5 10.5966H8.32386V19.4034H2.5V10.5966Z" fill="#4285F4"/>
<path d="M25.9643 7.23865L22.2441 10.2912V19.8296L25.9799 23.0071C26.5396 23.4446 27.3578 23.0455 27.3578 22.3352V7.89774C27.3578 7.17757 26.5211 6.78268 25.9643 7.23865Z" fill="#34A853"/>
<path d="M16.5624 15V19.4034H8.32373V25.2273H20.5396C21.4814 25.2273 22.2442 24.4645 22.2442 23.5227V19.8295L16.5624 15Z" fill="#34A853"/>
<path d="M20.5396 4.77274H8.32373V10.5966H16.5624V15L22.2442 10.2912V6.47728C22.2442 5.53552 21.4814 4.77274 20.5396 4.77274V4.77274Z" fill="#FBBC04"/>
</g>
<defs>
<clipPath id="clip0_7224_8748">
<rect width="30" height="30" fill="white"/>
</clipPath>
</defs>
</svg>
