<svg width="112" height="30" viewBox="0 0 112 30" fill="none" xmlns="http://www.w3.org/2000/svg">
<path d="M13.444 12.034C11.913 5.27999 8.72202 3.48199 7.90802 2.21099C7.57237 1.65109 7.27502 1.06909 7.01802 0.468994C6.97502 1.06899 6.89602 1.44699 6.38602 1.90199C5.36202 2.81499 1.01302 6.35899 0.647023 14.033C0.306023 21.188 5.90702 25.6 6.64702 26.056C7.21602 26.336 7.90902 26.062 8.24702 25.805C10.947 23.952 14.636 19.012 13.447 12.034" fill="#10AA50"/>
<path d="M7.2499 22.246C7.1089 24.017 7.0079 25.046 6.6499 26.058C6.6499 26.058 6.8849 27.744 7.0499 29.53H7.6339C7.77321 28.2723 7.9859 27.0239 8.2709 25.791C7.5149 25.419 7.2789 23.8 7.2499 22.246Z" fill="#B8C4C2"/>
<path d="M8.26991 25.792C7.50591 25.439 7.28491 23.786 7.25091 22.246C7.43985 19.7057 7.49493 17.1571 7.41591 14.611C7.37591 13.275 7.43491 2.237 7.08691 0.621002C7.32497 1.16832 7.59924 1.69917 7.90791 2.21C8.72191 3.482 11.9139 5.28 13.4439 12.034C14.6359 19 10.9669 23.927 8.26991 25.792Z" fill="#12924F"/>
<path d="M108.97 23.35C108.643 23.35 108.323 23.2532 108.051 23.0719C107.778 22.8906 107.566 22.6329 107.439 22.3311C107.313 22.0293 107.279 21.6969 107.341 21.3757C107.403 21.0546 107.559 20.7589 107.789 20.526C108.019 20.2931 108.312 20.1333 108.632 20.0667C108.953 20.0002 109.285 20.0297 109.589 20.1518C109.892 20.2738 110.153 20.4829 110.338 20.7527C110.523 21.0225 110.624 21.3409 110.629 21.668C110.635 21.8886 110.596 22.1081 110.515 22.3133C110.434 22.5185 110.313 22.7053 110.158 22.8624C110.003 23.0195 109.818 23.1436 109.614 23.2274C109.409 23.3112 109.19 23.3529 108.97 23.35ZM108.97 20.182C108.671 20.18 108.378 20.2668 108.129 20.4313C107.879 20.5959 107.684 20.8308 107.568 21.1063C107.452 21.3818 107.421 21.6855 107.477 21.979C107.534 22.2724 107.677 22.5424 107.887 22.7547C108.098 22.9671 108.366 23.1122 108.659 23.1717C108.952 23.2313 109.256 23.2025 109.533 23.0891C109.809 22.9758 110.046 22.7829 110.213 22.5349C110.38 22.2869 110.469 21.9949 110.47 21.696C110.474 21.4973 110.438 21.2998 110.364 21.1153C110.29 20.9308 110.18 20.763 110.04 20.6218C109.9 20.4806 109.733 20.3689 109.55 20.2934C109.366 20.2178 109.169 20.18 108.97 20.182ZM109.37 22.74L108.942 21.817H108.597V22.74H108.346V20.64H108.965C109.426 20.64 109.618 20.84 109.618 21.227C109.618 21.535 109.473 21.727 109.203 21.786L109.645 22.737L109.37 22.74ZM108.607 21.6H108.97C109.264 21.6 109.376 21.5 109.376 21.232C109.376 20.964 109.269 20.873 108.938 20.873H108.607V21.6Z" fill="#21313C"/>
<path d="M84.2791 21.838C84.7281 22.197 85.6251 22.345 86.4161 22.345C87.4411 22.345 88.4461 22.155 89.4281 21.268C90.4281 20.359 91.1161 18.968 91.1161 16.747C91.1161 14.613 90.3041 12.881 88.6381 11.867C87.6981 11.276 86.4801 11.043 85.0911 11.043C84.6911 11.043 84.2791 11.064 84.0451 11.17C83.9491 11.2457 83.8812 11.3513 83.8521 11.47C83.8101 11.85 83.8101 14.744 83.8101 16.455C83.8101 18.209 83.8101 20.655 83.8521 20.955C83.8741 21.209 84.0021 21.655 84.2791 21.842M80.0151 10.093C80.3781 10.093 81.7581 10.156 82.4001 10.156C83.6001 10.156 84.4291 10.093 86.6721 10.093C88.5521 10.093 90.1341 10.6 91.2651 11.571C92.6331 12.755 93.3651 14.402 93.3651 16.409C93.3651 19.261 92.0651 20.909 90.7581 21.838C89.4581 22.81 87.7671 23.359 85.3581 23.359C84.0761 23.359 81.8751 23.317 80.0381 23.296H80.0001C79.9141 23.127 80.1571 22.468 80.3071 22.451C80.8071 22.395 80.9391 22.375 81.1691 22.28C81.5571 22.121 81.6481 21.923 81.6911 21.226C81.7551 19.916 81.7341 18.353 81.7341 16.578C81.7341 15.311 81.7551 12.839 81.7131 12.057C81.6481 11.403 81.3721 11.234 80.8131 11.107C80.4167 11.0228 80.0161 10.9594 79.6131 10.917C79.5711 10.79 79.8991 10.217 80.0061 10.093" fill="#21313C"/>
<path d="M98.66 11.165C98.575 11.186 98.4681 11.398 98.4681 11.503C98.4461 12.264 98.4251 14.249 98.4251 15.622C98.4305 15.6482 98.4435 15.6723 98.4625 15.6912C98.4816 15.71 98.5058 15.7228 98.5321 15.728C98.8091 15.749 99.4931 15.771 100.07 15.771C100.882 15.771 101.352 15.665 101.608 15.538C102.292 15.2 102.608 14.46 102.608 13.658C102.608 11.82 101.326 11.123 99.4251 11.123C99.1681 11.1198 98.9112 11.1338 98.6561 11.165M103.506 19.615C103.506 17.756 102.138 16.7 99.6381 16.7C99.5321 16.7 98.738 16.679 98.549 16.721C98.485 16.742 98.4211 16.784 98.4211 16.827C98.4211 18.158 98.3991 20.291 98.4641 21.136C98.5071 21.495 98.7641 22.002 99.0831 22.15C99.4251 22.34 100.194 22.382 100.728 22.382C102.202 22.382 103.506 21.559 103.506 19.615ZM94.8001 10.13C94.9931 10.13 95.5611 10.193 97.0141 10.193C98.3811 10.193 99.4921 10.151 100.814 10.151C102.459 10.151 104.723 10.743 104.723 13.193C104.723 14.393 103.869 15.369 102.758 15.834C102.694 15.855 102.694 15.897 102.758 15.918C104.339 16.318 105.727 17.291 105.727 19.15C105.727 20.967 104.595 22.108 102.95 22.826C101.95 23.27 100.707 23.417 99.4501 23.417C98.4891 23.417 95.9131 23.317 94.4811 23.333C94.3311 23.27 94.6181 22.593 94.7461 22.488C95.0741 22.4779 95.3996 22.4269 95.7151 22.336C96.2271 22.21 96.2881 22.045 96.3521 21.284C96.3951 20.629 96.3951 18.284 96.3951 16.615C96.3951 14.333 96.4171 12.792 96.3951 12.031C96.3741 11.44 96.16 11.249 95.754 11.144C95.434 11.08 94.9 11.017 94.473 10.954C94.366 10.848 94.6951 10.214 94.8011 10.13" fill="#21313C"/>
<path d="M18.175 23.35C18.12 23.2148 18.0977 23.0685 18.11 22.923C18.1052 22.8238 18.1277 22.7253 18.175 22.638C18.4514 22.5982 18.7251 22.5424 18.995 22.471C19.373 22.377 19.515 22.171 19.537 21.689C19.599 20.55 19.603 18.413 19.581 16.911V16.867C19.581 16.705 19.581 16.485 19.381 16.33C19.0295 16.1095 18.6479 15.941 18.248 15.83C18.069 15.777 17.97 15.683 17.975 15.573C17.98 15.463 18.093 15.333 18.326 15.287C18.945 15.224 20.567 14.837 21.204 14.543C21.2696 14.6285 21.3 14.7358 21.289 14.843C21.289 14.909 21.279 14.979 21.272 15.051C21.254 15.263 21.234 15.504 21.234 15.744C21.238 15.7732 21.2499 15.8006 21.2686 15.8234C21.2873 15.8461 21.312 15.8631 21.3398 15.8726C21.3677 15.882 21.3976 15.8835 21.4263 15.8769C21.4549 15.8702 21.4812 15.8557 21.502 15.835C22.715 14.884 23.802 14.545 24.359 14.545C25.276 14.545 25.99 14.983 26.543 15.885C26.5557 15.9068 26.5738 15.9249 26.5955 15.9377C26.6172 15.9505 26.6418 15.9575 26.667 15.958C26.6899 15.9578 26.7124 15.952 26.7326 15.9412C26.7528 15.9304 26.7701 15.9149 26.783 15.896C27.898 15.05 29.003 14.545 29.743 14.545C31.491 14.545 32.536 15.854 32.536 18.045C32.536 18.675 32.53 19.474 32.524 20.219C32.519 20.873 32.514 21.486 32.514 21.91C32.514 22.01 32.652 22.298 32.859 22.355C33.115 22.48 33.484 22.544 33.951 22.624H33.969C34.004 22.75 33.93 23.239 33.859 23.339C33.743 23.339 33.583 23.329 33.383 23.319C33.02 23.301 32.522 23.276 31.943 23.276C30.781 23.276 30.174 23.298 29.594 23.336C29.55 23.191 29.535 22.723 29.588 22.625C29.8282 22.5874 30.066 22.5357 30.3 22.47C30.67 22.348 30.777 22.18 30.8 21.689C30.809 21.34 30.876 18.265 30.757 17.535C30.647 16.778 30.077 15.892 28.83 15.892C28.367 15.892 27.62 16.085 26.908 16.625C26.8639 16.6751 26.839 16.7393 26.838 16.806V16.821C26.922 17.215 26.922 17.675 26.922 18.37C26.922 18.77 26.922 19.187 26.917 19.604C26.912 20.452 26.908 21.252 26.922 21.857C26.922 22.269 27.171 22.368 27.372 22.447C27.481 22.471 27.567 22.492 27.654 22.512C27.821 22.553 27.995 22.595 28.254 22.636C28.2924 22.8117 28.2889 22.9939 28.244 23.168C28.2334 23.2333 28.2078 23.2953 28.169 23.349C27.523 23.327 26.86 23.308 25.903 23.308C25.613 23.308 25.14 23.32 24.722 23.331C24.383 23.34 24.063 23.349 23.881 23.35C23.8318 23.2338 23.8099 23.1079 23.817 22.982C23.8068 22.8633 23.83 22.7442 23.884 22.638L24.141 22.591C24.365 22.551 24.559 22.517 24.741 22.471C25.057 22.371 25.176 22.199 25.199 21.796C25.261 20.856 25.309 18.147 25.176 17.469C24.95 16.381 24.331 15.829 23.335 15.829C22.752 15.829 22.015 16.11 21.413 16.561C21.3551 16.6174 21.3095 16.6851 21.2791 16.76C21.2486 16.8349 21.2339 16.9152 21.236 16.996C21.236 17.319 21.236 17.703 21.236 18.115C21.236 19.475 21.227 21.168 21.26 21.9C21.28 22.126 21.36 22.394 21.783 22.492C21.876 22.519 22.036 22.545 22.222 22.576C22.329 22.594 22.446 22.613 22.567 22.635C22.6055 22.8745 22.586 23.1197 22.51 23.35C22.324 23.35 22.095 23.338 21.833 23.327C21.433 23.309 20.933 23.287 20.368 23.287C19.7 23.287 19.235 23.309 18.862 23.327C18.611 23.339 18.394 23.349 18.177 23.35" fill="#21313C"/>
<path d="M39.6199 15.449C39.259 15.4415 38.904 15.5414 38.5999 15.736C37.8579 16.187 37.4799 17.088 37.4799 18.412C37.4799 20.89 38.7209 22.621 40.4979 22.621C40.9744 22.6361 41.4391 22.4716 41.7999 22.16C42.3459 21.715 42.6359 20.805 42.6359 19.531C42.6359 17.09 41.4229 15.449 39.6179 15.449M39.9599 23.54C36.7499 23.54 35.6069 21.185 35.6069 18.982C35.6069 17.443 36.2359 16.24 37.4769 15.405C38.3461 14.8669 39.3439 14.572 40.3659 14.551C42.8149 14.551 44.5259 16.312 44.5259 18.835C44.5259 20.549 43.8429 21.903 42.5499 22.749C41.9289 23.129 40.8499 23.54 39.9599 23.54Z" fill="#21313C"/>
<path d="M72.3001 15.449C71.9384 15.4408 71.5826 15.5407 71.2781 15.736C70.5361 16.187 70.1581 17.088 70.1581 18.412C70.1581 20.89 71.3991 22.621 73.1761 22.621C73.6539 22.6371 74.1202 22.4725 74.4821 22.16C75.0281 21.715 75.3171 20.805 75.3171 19.531C75.3171 17.09 74.1051 15.449 72.3001 15.449ZM72.6421 23.54C69.4321 23.54 68.2891 21.185 68.2891 18.983C68.2891 17.442 68.9181 16.24 70.1601 15.405C71.0288 14.8666 72.0262 14.5716 73.0481 14.551C75.4971 14.551 77.2081 16.313 77.2081 18.834C77.2081 20.55 76.5251 21.903 75.2321 22.748C74.6111 23.129 73.5321 23.54 72.6421 23.54Z" fill="#21313C"/>
<path d="M61.4921 15.365C60.5031 15.365 59.8631 16.146 59.8631 17.355C59.8631 18.564 60.4141 20.001 61.9631 20.001C62.2291 20.001 62.7111 19.883 62.9501 19.62C63.3101 19.289 63.5501 18.605 63.5501 17.883C63.5501 16.306 62.7821 15.365 61.4971 15.365M61.3691 23.709C61.0897 23.706 60.8142 23.7748 60.5691 23.909C59.7861 24.409 59.4231 24.909 59.4231 25.49C59.4231 26.034 59.6341 26.467 60.0881 26.851C60.6381 27.317 61.3801 27.544 62.3551 27.544C64.2741 27.544 65.1341 26.512 65.1341 25.49C65.1341 24.778 64.7771 24.301 64.0421 24.031C63.4761 23.824 62.5301 23.71 61.3721 23.71M61.5001 28.61C60.3481 28.61 59.5181 28.367 58.8091 27.821C58.1191 27.289 57.8091 26.499 57.8091 25.953C57.8165 25.6011 57.9508 25.2638 58.1871 25.003C58.3871 24.775 58.8521 24.348 59.9271 23.609C59.9437 23.6019 59.9579 23.5901 59.9679 23.575C59.9779 23.5598 59.9831 23.5421 59.9831 23.524C59.9834 23.5038 59.9769 23.4841 59.9645 23.4681C59.9522 23.4521 59.9347 23.4408 59.9151 23.436C59.0301 23.097 58.7631 22.536 58.6821 22.236C58.6821 22.225 58.6821 22.208 58.6731 22.189C58.6481 22.071 58.6241 21.959 58.7851 21.844C58.9091 21.756 59.1071 21.638 59.3191 21.513C59.6183 21.3473 59.9054 21.1605 60.1781 20.954C60.1927 20.9382 60.2036 20.9194 60.2098 20.8988C60.2161 20.8782 60.2175 20.8564 60.214 20.8352C60.2105 20.8139 60.2022 20.7938 60.1898 20.7762C60.1773 20.7587 60.161 20.7443 60.1421 20.734C58.8321 20.294 58.1721 19.321 58.1721 17.834C58.1681 17.3703 58.2759 16.9125 58.4866 16.4994C58.6972 16.0863 59.0044 15.7301 59.3821 15.461C59.9091 15.044 61.2321 14.543 62.0891 14.543H62.1391C63.0201 14.564 63.5171 14.749 64.2051 15.003C64.5964 15.1445 65.0111 15.2103 65.4271 15.197C66.1561 15.197 66.4751 14.966 66.7491 14.697C66.7935 14.8182 66.8172 14.946 66.8191 15.075C66.8358 15.3825 66.7523 15.6871 66.5811 15.943C66.4321 16.15 66.0811 16.3 65.7601 16.3C65.7271 16.3 65.6951 16.3 65.6601 16.295C65.4912 16.2831 65.3238 16.2553 65.1601 16.212L65.0781 16.241C65.0521 16.279 65.0691 16.321 65.0901 16.375C65.0952 16.3856 65.0992 16.3966 65.1021 16.408C65.1606 16.6749 65.2004 16.9456 65.2211 17.218C65.2211 18.773 64.6081 19.45 63.9451 19.952C63.3041 20.433 62.5428 20.7278 61.7451 20.804C61.7281 20.804 61.6451 20.811 61.4891 20.825C61.3891 20.834 61.2591 20.846 61.2401 20.846H61.2211C61.0771 20.886 60.7011 21.065 60.7011 21.398C60.7011 21.674 60.8711 22.017 61.6841 22.079L62.2101 22.116C63.2821 22.191 64.6211 22.284 65.2511 22.497C65.669 22.644 66.0299 22.9189 66.2825 23.2829C66.5351 23.6468 66.6665 24.0811 66.6581 24.524C66.6581 25.919 65.6661 27.231 64.0051 28.033C63.2218 28.4071 62.3641 28.5996 61.4961 28.596" fill="#21313C"/>
<path d="M56.5859 22.606C56.1159 22.543 55.7729 22.479 55.3679 22.289C55.2884 22.2067 55.2361 22.102 55.2179 21.989C55.1749 21.334 55.1749 19.433 55.1749 18.189C55.1749 17.174 55.0049 16.289 54.5749 15.654C54.0619 14.935 53.3359 14.513 52.3959 14.513C51.5629 14.513 50.4519 15.083 49.5339 15.865C49.5119 15.886 49.3709 16.02 49.3739 15.812C49.3769 15.604 49.4089 15.182 49.4289 14.912C49.4378 14.8403 49.4298 14.7675 49.4054 14.6994C49.3811 14.6313 49.3412 14.5699 49.2889 14.52C48.6889 14.82 47.0059 15.22 46.3829 15.281C45.9289 15.369 45.8139 15.806 46.2989 15.957H46.3059C46.6941 16.0641 47.0647 16.2271 47.4059 16.441C47.5979 16.589 47.5769 16.8 47.5769 16.969C47.5979 18.384 47.5979 20.56 47.5339 21.743C47.5129 22.208 47.3839 22.377 47.0419 22.462L47.0739 22.451C46.8135 22.5163 46.5493 22.5657 46.2829 22.599C46.1759 22.704 46.1759 23.317 46.2829 23.444C46.4969 23.444 47.5829 23.381 48.4829 23.381C49.7209 23.381 50.3619 23.444 50.6829 23.444C50.8119 23.296 50.8539 22.726 50.7689 22.599C50.4731 22.5856 50.1793 22.5431 49.8919 22.472C49.5509 22.388 49.4649 22.218 49.4439 21.839C49.4019 20.845 49.4019 18.733 49.4019 17.296C49.4019 16.896 49.5079 16.705 49.6359 16.596C50.0629 16.216 50.7689 15.963 51.3879 15.963C51.9879 15.963 52.3879 16.153 52.6879 16.406C53.0373 16.7109 53.2564 17.1383 53.2999 17.6C53.3849 18.4 53.3629 20.009 53.3629 21.4C53.3629 22.161 53.2999 22.352 53.0219 22.436C52.8939 22.499 52.5519 22.563 52.1459 22.605C52.0179 22.732 52.0599 23.323 52.1459 23.45C52.7009 23.45 53.3459 23.387 54.2819 23.387C55.4569 23.387 56.2049 23.45 56.5039 23.45C56.6319 23.302 56.6749 22.75 56.5899 22.605" fill="#21313C"/>
</svg>
