<svg width="58" height="30" viewBox="0 0 58 30" fill="none" xmlns="http://www.w3.org/2000/svg">
<g clip-path="url(#clip0_6032_4710)">
<path fill-rule="evenodd" clip-rule="evenodd" d="M0.0032873 27.3305H1.91006V19.7768L4.88791 26.3627C5.22521 27.1543 5.70979 27.4476 6.64805 27.4476C7.58631 27.4476 8.04197 27.154 8.39044 26.3627L11.3535 19.7768V27.3305H13.2751V19.7768C13.2751 19.0436 12.9815 18.6909 12.3654 18.5002C10.9133 18.0603 9.94512 18.4417 9.50525 19.424L6.58657 25.9366L3.77014 19.424C3.34474 18.4417 2.36176 18.0603 0.895195 18.5002C0.293577 18.6909 0.000328573 19.0433 0.000328573 19.7768L0 27.3305H0.0032873ZM14.8623 21.1848H16.7838V25.336C16.7694 25.5704 16.8572 26.0987 17.9016 26.1128C18.4441 26.1276 22.038 26.1128 22.0669 26.1128V21.1552H23.9885V27.9466C23.9885 29.6186 21.9173 29.9849 20.9521 30H14.9096V28.7244H20.9676C22.1997 28.5923 22.0531 27.9765 22.0531 27.771V27.272H17.9897C16.0974 27.2572 14.8797 26.4212 14.8656 25.4678V21.1841L14.8623 21.1848ZM56.0794 16.3735C54.9064 16.3439 53.9964 16.4616 53.2337 16.7844C53.0141 16.8732 52.6617 16.8732 52.6328 17.1513C52.7501 17.268 52.7643 17.459 52.8672 17.6208C53.043 17.9144 53.3514 18.3099 53.6299 18.515C53.9382 18.7501 54.2463 18.9845 54.5685 19.1899C55.1405 19.5417 55.7858 19.7472 56.3431 20.0993C56.6659 20.3047 56.9884 20.5687 57.3113 20.789C57.4756 20.9064 57.5752 21.0974 57.7807 21.1703V21.126C57.6781 20.9945 57.6486 20.8038 57.5463 20.6565C57.3994 20.5102 57.2527 20.3777 57.1058 20.2314C56.6807 19.6594 56.1524 19.1603 55.5804 18.7501C55.1109 18.4272 54.0845 17.9873 53.8939 17.4449L53.8649 17.4153C54.1871 17.3857 54.5685 17.2684 54.8768 17.1803C55.3759 17.0488 55.8302 17.0777 56.3431 16.9459C56.5781 16.8867 56.8125 16.8137 57.0476 16.7404V16.6089C56.7836 16.3449 56.5929 15.9928 56.3145 15.7436C55.5666 15.0983 54.7447 14.4674 53.8939 13.9394C53.4392 13.6462 52.8524 13.4552 52.3684 13.2063C52.1919 13.1182 51.899 13.0741 51.7964 12.9275C51.5318 12.6053 51.3855 12.1796 51.1948 11.7979C50.7697 10.9911 50.3588 10.0966 49.9922 9.2458C49.7282 8.67377 49.5665 8.10173 49.2443 7.57376C47.7334 5.08016 46.0902 3.56954 43.5674 2.08785C43.0249 1.77981 42.3796 1.64732 41.6935 1.48623L40.5935 1.42705C40.3584 1.32448 40.124 1.0457 39.9186 0.91354C39.0825 0.385562 36.9262 -0.7585 36.3098 0.752451C35.9137 1.70584 36.8967 2.64443 37.2303 3.12868C37.4802 3.46598 37.8024 3.84734 37.9789 4.22869C38.0775 4.47788 38.1104 4.7422 38.2133 5.00619C38.4477 5.65153 38.668 6.37052 38.976 6.97214C39.1404 7.28018 39.313 7.60334 39.5185 7.8818C39.6358 8.04289 39.8413 8.11653 39.885 8.38052C39.6795 8.67409 39.6654 9.11364 39.548 9.48085C39.0197 11.1384 39.2252 13.1918 39.9731 14.4089C40.2082 14.7754 40.7621 15.5825 41.5137 15.2741C42.1738 15.0102 42.0265 14.1741 42.2172 13.4407C42.2616 13.2648 42.232 13.1474 42.3198 13.0297V13.0593L42.9214 14.2767C43.3761 14.9954 44.1684 15.7436 44.8282 16.2427C45.1799 16.5066 45.4587 16.9616 45.8986 17.1227V17.0783H45.8696C45.7815 16.9468 45.6494 16.8877 45.532 16.7851C45.268 16.5211 44.9748 16.1983 44.7693 15.905C44.1536 15.0838 43.6111 14.1741 43.1269 13.2355C42.8918 12.7809 42.6863 12.2822 42.4963 11.8275C42.4075 11.6513 42.4075 11.387 42.2613 11.2995C42.041 11.6217 41.7188 11.9011 41.5567 12.297C41.278 12.9275 41.249 13.705 41.1464 14.5118C41.0873 14.5266 41.1136 14.5118 41.0873 14.5414C40.6185 14.4243 40.4567 13.9397 40.2808 13.5295C39.841 12.488 39.7673 10.8159 40.1487 9.61301C40.2513 9.30497 40.6918 8.33679 40.5159 8.04354C40.4271 7.76476 40.1345 7.60367 39.9728 7.38341C39.7821 7.10462 39.5773 6.75286 39.4451 6.44482C39.0934 5.62293 38.9175 4.71393 38.5358 3.89238C38.3593 3.51102 38.0516 3.11487 37.802 2.76311C37.5233 2.36696 37.2159 2.08818 36.9956 1.61905C36.9223 1.45796 36.8197 1.19364 36.9371 1.01743C36.966 0.900061 37.0252 0.856337 37.1419 0.82675C37.3326 0.66566 37.8757 0.870802 38.0664 0.95825C38.6088 1.17851 39.0635 1.38366 39.5181 1.69137C39.7236 1.838 39.9439 2.11678 40.2079 2.19042H40.5162C40.9857 2.29299 41.5133 2.22001 41.9529 2.35151C42.7304 2.60136 43.4342 2.96759 44.0654 3.36407C45.9867 4.58144 47.5713 6.31233 48.6417 8.38084C48.8176 8.71815 48.8909 9.02619 49.0526 9.37828C49.361 10.0973 49.7424 10.8304 50.0497 11.5349C50.3581 12.2243 50.6514 12.9288 51.0912 13.5009C51.3115 13.8089 52.1912 13.97 52.5871 14.1314C52.8806 14.2629 53.335 14.3813 53.5996 14.5423C54.098 14.8504 54.5967 15.2025 55.0659 15.5398C55.3003 15.7153 56.034 16.0822 56.0778 16.3748L56.0794 16.3735ZM41.1211 3.62707C40.9185 3.62528 40.7165 3.64992 40.5202 3.70038V3.72997H40.5491C40.6665 3.9647 40.8719 4.12612 41.0186 4.33159L41.3562 5.03578L41.3851 5.00619C41.5906 4.85957 41.6935 4.62484 41.6935 4.27307C41.6054 4.1705 41.5909 4.0676 41.5176 3.96503C41.4295 3.8184 41.2388 3.74476 41.1211 3.62773V3.62707Z" fill="#00678C"/>
<path fill-rule="evenodd" clip-rule="evenodd" d="M25.4526 27.3305H30.9678C31.6131 27.3305 32.2296 27.199 32.7279 26.964C33.564 26.5826 33.9601 26.0698 33.9601 25.3948V23.9868C33.9601 23.4443 33.5055 22.9305 32.5965 22.5787C32.127 22.4029 31.5402 22.3 30.9681 22.3H28.6504C27.8729 22.3 27.5064 22.0649 27.4035 21.552C27.389 21.4935 27.389 21.4347 27.389 21.3762V20.5106C27.389 20.4662 27.389 20.408 27.4035 20.3495C27.506 19.9533 27.7115 19.8504 28.3897 19.7774H34.0367V18.5009H28.6682C27.8907 18.5009 27.4801 18.5453 27.1132 18.6626C25.9836 19.0144 25.4849 19.572 25.4849 20.5543V21.6697C25.4849 22.5344 26.453 23.2685 28.0958 23.4443C28.2717 23.4591 28.4624 23.4591 28.6531 23.4591H30.6335C30.7068 23.4591 30.7798 23.4591 30.8383 23.4739C31.4399 23.5325 31.7039 23.635 31.8798 23.8546C31.9971 23.972 32.0267 24.0749 32.0267 24.2071V25.3215C32.0267 25.453 31.9386 25.6299 31.7627 25.7762C31.5868 25.9225 31.3074 26.0254 30.9408 26.0402C30.8675 26.0402 30.8241 26.055 30.7502 26.055H25.4526V27.3305ZM45.8995 25.1161C45.8995 26.4212 46.8857 27.1543 48.8484 27.3016C49.0391 27.3164 49.2149 27.3305 49.4056 27.3305H54.3928V26.055H49.3619C48.2464 26.055 47.8214 25.7762 47.8214 25.1016V18.5009H45.8958V25.1164L45.8995 25.1161ZM35.1772 25.1742V20.6276C35.1772 19.4687 35.9984 18.7642 37.5978 18.5446C37.7737 18.5298 37.9495 18.515 38.1106 18.515H41.748C41.9386 18.515 42.1004 18.5298 42.2911 18.5446C43.8898 18.7642 44.6962 19.4684 44.6962 20.6276V25.1742C44.6962 26.1128 44.3592 26.6119 43.5666 26.9495L45.4438 28.6505H43.2293L41.7039 27.272L40.1634 27.3601H38.11C37.7337 27.3583 37.3592 27.3091 36.9952 27.2138C35.7788 26.8759 35.1772 26.2309 35.1772 25.1742ZM37.245 25.0723C37.245 25.1309 37.2779 25.189 37.2894 25.263C37.392 25.7907 37.8904 26.0842 38.6531 26.0842H40.3843L38.8004 24.6466H41.0148L42.4081 25.9084C42.6727 25.7614 42.8338 25.5559 42.8924 25.2919C42.9071 25.2334 42.9071 25.1604 42.9071 25.1013V20.7446C42.9071 20.6861 42.9071 20.6279 42.8924 20.5687C42.7898 20.0704 42.2914 19.7919 41.5431 19.7919H38.6534C37.8026 19.7919 37.2454 20.1585 37.2454 20.7446L37.245 25.0723Z" fill="#CE8B2C"/>
</g>
<defs>
<clipPath id="clip0_6032_4710">
<rect width="58" height="30" fill="white"/>
</clipPath>
</defs>
</svg>
