<svg width="50" height="30" viewBox="0 0 50 30" fill="none" xmlns="http://www.w3.org/2000/svg">
<g clip-path="url(#clip0_6032_4519)">
<path d="M24.7131 30.0001C24.5481 30.0001 24.3842 29.9577 24.2395 29.8761L22.7321 29.0018C22.5069 28.8784 22.6168 28.8348 22.6911 28.8096C22.9913 28.7067 23.0522 28.6834 23.3726 28.5051C23.4063 28.4863 23.4504 28.493 23.4849 28.5129L24.6429 29.1861C24.6848 29.2083 24.7441 29.2083 24.7829 29.1861L29.2983 26.6327C29.3401 26.6094 29.3673 26.5618 29.3673 26.5131V21.4085C29.3673 21.3575 29.3401 21.3121 29.2974 21.2867L24.7838 18.7354C24.7419 18.7111 24.6866 18.7111 24.6447 18.7354L20.132 21.2867C20.0883 21.311 20.0605 21.3586 20.0605 21.4074V26.512C20.0605 26.5607 20.0876 26.6072 20.1305 26.6305L21.3671 27.3303C22.0384 27.6592 22.4487 27.2716 22.4487 26.8818V21.8436C22.4487 21.7717 22.5064 21.7163 22.5798 21.7163H23.1518C23.223 21.7163 23.2817 21.7717 23.2817 21.8436V26.8841C23.2817 27.761 22.7935 28.2649 21.9446 28.2649C21.6835 28.2649 21.4778 28.2649 20.9037 27.988L19.7191 27.3192C19.4264 27.1531 19.2455 26.8431 19.2455 26.512V21.4074C19.2455 21.0752 19.4264 20.7651 19.7191 20.6012L24.2391 18.0467C24.525 17.8884 24.9048 17.8884 25.1885 18.0467L29.7028 20.6023C29.9944 20.7673 30.1764 21.0763 30.1764 21.4085V26.5131C30.1764 26.8442 29.9944 27.1531 29.7028 27.3192L25.1885 29.8738C25.0438 29.9557 24.88 29.9978 24.7127 29.9978" fill="#689F63"/>
<path d="M26.1079 26.4827C24.1322 26.4827 23.718 25.5942 23.718 24.849C23.718 24.7781 23.7763 24.7216 23.8487 24.7216H24.4319C24.4964 24.7216 24.5506 24.7676 24.5608 24.8299C24.649 25.4121 24.9112 25.7058 26.1059 25.7058C27.0576 25.7058 27.4622 25.4952 27.4622 25.0008C27.4622 24.7162 27.3469 24.5047 25.8685 24.363C24.632 24.2434 23.8679 23.9765 23.8679 23.0076C23.8679 22.1151 24.6365 21.5836 25.9239 21.5836C27.3695 21.5836 28.0861 22.0753 28.1765 23.1316C28.1799 23.1682 28.1664 23.2036 28.1415 23.2302C28.1166 23.2557 28.0816 23.2712 28.0454 23.2712H27.4588C27.3978 23.2712 27.3447 23.2291 27.3322 23.1715C27.1909 22.5592 26.8496 22.3632 25.9216 22.3632C24.8829 22.3632 24.762 22.7175 24.762 22.9833C24.762 23.3055 24.9044 23.3996 26.3059 23.5812C27.6939 23.7617 28.3529 24.0164 28.3529 24.972C28.3529 25.9353 27.5323 26.4879 26.1014 26.4879L26.1079 26.4827ZM31.6012 21.0743H31.7527C31.877 21.0743 31.9008 20.989 31.9008 20.9392C31.9008 20.8085 31.8092 20.8085 31.7584 20.8085H31.6024L31.6012 21.0743ZM31.417 20.6557H31.7527C31.868 20.6557 32.094 20.6557 32.094 20.9082C32.094 21.0842 31.9788 21.1208 31.9098 21.1429C32.0443 21.1518 32.0534 21.2381 32.0714 21.3599C32.0805 21.4364 32.0952 21.5681 32.1223 21.6124H31.9155C31.9098 21.5681 31.8782 21.3245 31.8782 21.3112C31.8646 21.257 31.8454 21.2304 31.7764 21.2304H31.6058V21.6135H31.417V20.6557ZM31.0135 21.1318C31.0135 21.5283 31.3402 21.8494 31.7414 21.8494C32.146 21.8494 32.4727 21.5216 32.4727 21.1318C32.4727 20.7343 32.1415 20.4187 31.7403 20.4187C31.3447 20.4187 31.0124 20.7299 31.0124 21.1307L31.0135 21.1318ZM32.6128 21.1341C32.6128 21.6036 32.2206 21.9867 31.7425 21.9867C31.2678 21.9867 30.8722 21.608 30.8722 21.1341C30.8722 20.6513 31.2769 20.2814 31.7425 20.2814C32.2116 20.2814 32.6117 20.6524 32.6117 21.1341" fill="#689F63"/>
<path fill-rule="evenodd" clip-rule="evenodd" d="M10.7305 10.0266C10.7305 9.82288 10.6208 9.63574 10.4414 9.53442L5.65397 6.83593C5.57316 6.78942 5.48262 6.76506 5.39084 6.76174H5.34134C5.24956 6.76506 5.15902 6.78942 5.07685 6.83593L0.289698 9.53442C0.111341 9.6363 0.00012207 9.82343 0.00012207 10.0272L0.0106336 17.2955C0.0106336 17.3963 0.0637564 17.4904 0.154178 17.5402C0.242339 17.5934 0.353106 17.5934 0.441267 17.5402L3.28729 15.9435C3.46701 15.8387 3.57664 15.6536 3.57664 15.4518V12.0563C3.57664 11.8537 3.68628 11.6665 3.86543 11.5658L5.07708 10.8821C5.16705 10.8312 5.26583 10.8059 5.36643 10.8059C5.46544 10.8059 5.56649 10.831 5.65397 10.882L6.86506 11.5654C7.04432 11.6662 7.15441 11.8533 7.15441 12.056V15.4513C7.15441 15.6528 7.26551 15.8388 7.44432 15.9429L10.2885 17.5385C10.3778 17.5906 10.4889 17.5906 10.5779 17.5385C10.6656 17.4887 10.7212 17.3946 10.7212 17.2938L10.7305 10.0266ZM33.321 13.8109C33.321 13.8615 33.2935 13.9084 33.2487 13.9334L31.6043 14.862C31.5597 14.8871 31.5045 14.8871 31.46 14.862L29.8155 13.9334C29.7703 13.9083 29.7431 13.8614 29.7431 13.8109V11.9511C29.7431 11.9004 29.7703 11.8537 29.8143 11.8282L31.4577 10.8981C31.503 10.8726 31.5583 10.8726 31.6036 10.8981L33.2481 11.8282C33.2933 11.8537 33.3204 11.9004 33.3204 11.9511L33.321 13.8109ZM33.7652 0.0358831C33.6755 -0.0130596 33.5663 -0.0117308 33.4777 0.0388728C33.3895 0.0898087 33.335 0.182822 33.335 0.283586V7.48104C33.335 7.55191 33.2966 7.61724 33.234 7.65268C33.1718 7.68811 33.0944 7.68811 33.0317 7.65268L31.8324 6.976C31.6539 6.8748 31.4339 6.8748 31.2546 6.976L26.4657 9.68369C26.2868 9.78445 26.1763 9.97159 26.1763 10.1731V15.59C26.1763 15.7927 26.2868 15.9787 26.4657 16.0806L31.2546 18.7901C31.4334 18.8909 31.6536 18.8909 31.833 18.7901L36.622 16.0795C36.8005 15.9776 36.9113 15.7916 36.9113 15.5889V2.08871C36.9113 1.88319 36.7972 1.69418 36.614 1.59374L33.7652 0.0358831ZM49.7125 11.9022C49.8905 11.801 50 11.614 50 11.4125V10.0997C50 9.89773 49.8903 9.71137 49.7121 9.60972L44.9537 6.90348C44.7739 6.8016 44.5535 6.8016 44.3738 6.90348L39.586 9.61083C39.4063 9.7127 39.2966 9.89872 39.2966 10.1014V15.5161C39.2966 15.7198 39.4085 15.908 39.5882 16.0088L44.3456 18.6652C44.5208 18.7638 44.7355 18.7649 44.913 18.6686L47.7906 17.1017C47.8811 17.0519 47.9387 16.9578 47.9387 16.8559C47.9387 16.754 47.8833 16.6588 47.7929 16.609L42.9757 13.9005C42.8853 13.8507 42.8299 13.7566 42.8299 13.6558V11.9572C42.8299 11.8558 42.8841 11.7623 42.9745 11.7118L44.4733 10.8647C44.5626 10.8138 44.6722 10.8138 44.7615 10.8647L46.2614 11.7118C46.3507 11.7616 46.4061 11.8558 46.4061 11.9565V13.2919C46.4061 13.3927 46.4614 13.4868 46.5507 13.5378C46.64 13.5876 46.7508 13.5876 46.8401 13.5367L49.7125 11.9022Z" fill="#333333"/>
<path fill-rule="evenodd" clip-rule="evenodd" d="M44.5936 11.6488C44.6275 11.6292 44.67 11.6292 44.7044 11.6488L45.6233 12.1681C45.6577 12.1876 45.6787 12.2235 45.6787 12.2622V13.302C45.6787 13.3408 45.6577 13.3766 45.6233 13.3961L44.7044 13.9154C44.67 13.935 44.6275 13.935 44.5936 13.9154L43.6753 13.3961C43.6402 13.3766 43.6188 13.3408 43.6188 13.302V12.2622C43.6188 12.2235 43.6391 12.1876 43.6742 12.1681L44.5936 11.6488Z" fill="#689F63"/>
<mask id="mask0_6032_4519" style="mask-type:alpha" maskUnits="userSpaceOnUse" x="13" y="7" width="11" height="12">
<path d="M23.2088 9.73188L18.4356 7.06335C18.2834 6.97829 18.0979 6.97892 17.9463 7.06501L13.2522 9.73128C13.0963 9.81982 13 9.98527 13 10.1645V15.5303C13 15.7053 13.0918 15.8675 13.2419 15.9576L17.9361 18.7741C18.0929 18.8681 18.2885 18.8688 18.4459 18.7759L23.2191 15.957C23.3709 15.8674 23.464 15.7043 23.464 15.528V10.1668C23.464 9.98633 23.3664 9.81996 23.2088 9.73188Z" fill="#1A1A1A"/>
</mask>
<g mask="url(#mask0_6032_4519)">
<path d="M27 9.42439L15.7621 4L10 15.5753L21.2376 21L27 9.42439Z" fill="url(#paint0_linear_6032_4519)"/>
<path d="M11.0001 17L17.5001 20L27.5001 13L24.0001 9.5L11.0001 17Z" fill="url(#paint1_linear_6032_4519)"/>
<path d="M12.4999 8.5L15.4811 19.52L21.1184 19.3142L18.0001 6.00006L12.4999 8.5Z" fill="url(#paint2_linear_6032_4519)"/>
</g>
</g>
<defs>
<linearGradient id="paint0_linear_6032_4519" x1="21.3777" y1="6.70367" x2="15.7574" y2="18.3465" gradientUnits="userSpaceOnUse">
<stop offset="0.3" stop-color="#3E863D"/>
<stop offset="0.5" stop-color="#55934F"/>
<stop offset="0.8" stop-color="#5AAD45"/>
</linearGradient>
<linearGradient id="paint1_linear_6032_4519" x1="15.3966" y1="14.8425" x2="21.6454" y2="10.2095" gradientUnits="userSpaceOnUse">
<stop offset="0.57" stop-color="#3E863D"/>
<stop offset="0.72" stop-color="#619857"/>
<stop offset="1" stop-color="#76AC64"/>
</linearGradient>
<linearGradient id="paint2_linear_6032_4519" x1="15.2482" y1="13.0864" x2="20.8846" y2="12.8806" gradientUnits="userSpaceOnUse">
<stop offset="0.16" stop-color="#6BBF47"/>
<stop offset="0.38" stop-color="#79B461"/>
<stop offset="0.47" stop-color="#75AC64"/>
<stop offset="0.7" stop-color="#659E5A"/>
<stop offset="0.9" stop-color="#3E863D"/>
</linearGradient>
<clipPath id="clip0_6032_4519">
<rect width="50" height="30" fill="white"/>
</clipPath>
</defs>
</svg>
