<svg width="30" height="30" viewBox="0 0 30 30" fill="none" xmlns="http://www.w3.org/2000/svg">
<g clip-path="url(#clip0_7224_8809)">
<path d="M1.8051 1.29386L18.405 0.0677611C20.4441 -0.107139 20.9679 0.010761 22.2501 0.942861L27.549 4.67576C28.4229 5.31776 28.7139 5.49266 28.7139 6.19166V26.6646C28.7139 27.9477 28.248 28.7067 26.6169 28.8225L7.3401 29.9901C6.1161 30.048 5.5332 29.8731 4.8921 29.0562L0.99 23.982C0.2901 23.0481 0 22.3491 0 21.5319V3.33386C0 2.28476 0.4659 1.40996 1.8051 1.29386Z" fill="white"/>
<path fill-rule="evenodd" clip-rule="evenodd" d="M18.405 0.0680611L1.8051 1.29416C0.4659 1.40996 0 2.28506 0 3.33386V21.5319C0 22.3488 0.2901 23.0478 0.99 23.982L4.8921 29.0559C5.5332 29.8728 6.1161 30.048 7.3401 29.9898L26.6172 28.8228C28.2471 28.7067 28.7142 27.9477 28.7142 26.6649V6.19196C28.7142 5.52896 28.4523 5.33786 27.6813 4.77206L22.2501 0.942861C20.9682 0.010761 20.4441 -0.107139 18.405 0.0677611V0.0680611ZM7.776 5.85686C6.2019 5.96276 5.8449 5.98676 4.9509 5.25986L2.6781 3.45206C2.4471 3.21806 2.5632 2.92616 3.1452 2.86796L19.1031 1.70186C20.4432 1.58486 21.141 2.05196 21.6651 2.45996L24.402 4.44296C24.519 4.50206 24.81 4.85096 24.4599 4.85096L7.98 5.84306L7.776 5.85716V5.85686ZM5.9409 26.49V9.11006C5.9409 8.35106 6.174 8.00096 6.8718 7.94216L25.8 6.83396C26.442 6.77606 26.7321 7.18406 26.7321 7.94186V25.206C26.7321 25.965 26.6151 26.607 25.5672 26.6649L7.4541 27.7149C6.4062 27.7728 5.9412 27.4239 5.9412 26.49H5.9409ZM23.8209 10.0419C23.937 10.5669 23.8209 11.0919 23.2959 11.1519L22.4229 11.325V24.1569C21.6648 24.5649 20.967 24.798 20.3838 24.798C19.4517 24.798 19.2189 24.5061 18.5208 23.6319L12.8118 14.6499V23.34L14.6178 23.7489C14.6178 23.7489 14.6178 24.7989 13.1607 24.7989L9.1437 25.032C9.0267 24.798 9.1437 24.2151 9.5508 24.099L10.5999 23.808V12.318L9.144 12.2001C9.027 11.6751 9.318 10.917 10.134 10.8582L14.4441 10.5681L20.3841 19.6662V11.6172L18.87 11.4432C18.753 10.8003 19.2189 10.3332 19.8009 10.2762L23.8209 10.0422V10.0419Z" fill="black"/>
</g>
<defs>
<clipPath id="clip0_7224_8809">
<rect width="30" height="30" fill="white"/>
</clipPath>
</defs>
</svg>
