<svg width="31" height="30" viewBox="0 0 31 30" fill="none" xmlns="http://www.w3.org/2000/svg">
<g clip-path="url(#clip0_7984_9147)">
<path d="M5.48958 0H25.5104C28.5458 0 31 2.4359 31 5.44872V24.5513C31 27.5641 28.5458 30 25.5104 30H5.48958C2.45417 30 0 27.5641 0 24.5513V5.44872C0 2.4359 2.45417 0 5.48958 0Z" fill="#001E36"/>
<path d="M6.9751 21.0385V7.84615C6.9751 7.75641 7.01385 7.70513 7.10426 7.70513C7.32385 7.70513 7.53051 7.70513 7.8276 7.69231C8.1376 7.67949 8.46051 7.67949 8.80926 7.66667C9.15801 7.65385 9.5326 7.65385 9.93301 7.64102C10.3334 7.6282 10.7209 7.6282 11.1084 7.6282C12.1676 7.6282 13.0459 7.75641 13.7693 8.02564C14.4151 8.24359 15.0093 8.60256 15.5001 9.07692C15.9134 9.48718 16.2363 9.98718 16.443 10.5385C16.6368 11.0769 16.7401 11.6282 16.7401 12.2051C16.7401 13.3077 16.4818 14.2179 15.9651 14.9359C15.4484 15.6538 14.7251 16.1923 13.8855 16.5C13.0072 16.8205 12.0384 16.9359 10.9793 16.9359C10.6693 16.9359 10.4626 16.9359 10.3334 16.9231C10.2043 16.9103 10.0234 16.9103 9.77801 16.9103V21.0256C9.79093 21.1154 9.72635 21.1923 9.63593 21.2051C9.62301 21.2051 9.6101 21.2051 9.58426 21.2051H7.1301C7.02676 21.2051 6.9751 21.1538 6.9751 21.0385ZM9.79093 10.1795V14.4872C9.97177 14.5 10.1397 14.5128 10.2947 14.5128H10.9793C11.483 14.5128 11.9868 14.4359 12.4647 14.2821C12.878 14.1667 13.2397 13.9231 13.5238 13.6026C13.7951 13.2821 13.9243 12.8462 13.9243 12.2821C13.9372 11.8846 13.8338 11.4872 13.6272 11.141C13.4076 10.8077 13.0976 10.5513 12.723 10.4103C12.2451 10.2179 11.7284 10.141 11.1988 10.1538C10.863 10.1538 10.5659 10.1538 10.3205 10.1667C10.0622 10.1538 9.88135 10.1667 9.79093 10.1795Z" fill="#31A8FF"/>
<path d="M24.8002 13.7051C24.4127 13.5 23.9993 13.359 23.5602 13.2692C23.0822 13.1667 22.6043 13.1025 22.1135 13.1025C21.8552 13.0897 21.5839 13.1282 21.3385 13.1923C21.1706 13.2308 21.0285 13.3205 20.9381 13.4487C20.8735 13.5513 20.8348 13.6795 20.8348 13.7949C20.8348 13.9102 20.8864 14.0256 20.9639 14.1282C21.0802 14.2692 21.2352 14.3846 21.4031 14.4743C21.7002 14.6282 22.0102 14.7692 22.3202 14.8974C23.0177 15.1282 23.6893 15.4487 24.3093 15.8333C24.7356 16.1026 25.0843 16.4615 25.3298 16.8974C25.5364 17.3077 25.6398 17.7564 25.6268 18.2179C25.6398 18.8205 25.4589 19.4231 25.1231 19.9231C24.7614 20.4359 24.2577 20.8333 23.6764 21.0641C23.0435 21.3333 22.2685 21.4743 21.3385 21.4743C20.7443 21.4743 20.1631 21.4231 19.5818 21.3077C19.1298 21.2308 18.6777 21.0897 18.2643 20.8974C18.1739 20.8461 18.1093 20.7564 18.1223 20.6538V18.4231C18.1223 18.3846 18.1352 18.3333 18.1739 18.3077C18.2127 18.282 18.2514 18.2949 18.2902 18.3205C18.7939 18.6154 19.3235 18.8205 19.8918 18.9487C20.3827 19.0769 20.8993 19.141 21.416 19.141C21.9068 19.141 22.2556 19.0769 22.4881 18.9615C22.6948 18.8718 22.8368 18.6538 22.8368 18.4231C22.8368 18.2436 22.7335 18.0769 22.5268 17.9102C22.3202 17.7436 21.8939 17.5513 21.261 17.3077C20.6023 17.0769 19.9952 16.7692 19.4268 16.3846C19.0264 16.1026 18.6906 15.7308 18.4452 15.2949C18.2385 14.8846 18.1352 14.4359 18.1481 13.9872C18.1481 13.4359 18.3031 12.9102 18.5873 12.4359C18.9102 11.9231 19.3881 11.5128 19.9435 11.2564C20.5506 10.9487 21.3127 10.8077 22.2298 10.8077C22.7593 10.8077 23.3018 10.8461 23.8314 10.9231C24.2189 10.9743 24.5935 11.0769 24.9423 11.2179C24.9939 11.2308 25.0456 11.282 25.0714 11.3333C25.0843 11.3846 25.0973 11.4359 25.0973 11.4872V13.5769C25.0973 13.6282 25.0714 13.6795 25.0327 13.7051C24.9164 13.7308 24.8518 13.7308 24.8002 13.7051Z" fill="#31A8FF"/>
</g>
<defs>
<clipPath id="clip0_7984_9147">
<rect width="31" height="30" fill="white"/>
</clipPath>
</defs>
</svg>
