<svg width="56" height="30" viewBox="0 0 56 30" fill="none" xmlns="http://www.w3.org/2000/svg">
<path d="M0.782104 15C0.782104 22.8523 12.8834 29.2179 27.8104 29.2179C42.7375 29.2179 54.8389 22.8523 54.8389 15C54.8389 7.14782 42.7375 0.782068 27.8104 0.782068C12.8834 0.782068 0.782104 7.14782 0.782104 15Z" fill="url(#paint0_radial_6032_4594)"/>
<path d="M27.8104 28.1623C42.1545 28.1623 53.7829 22.2693 53.7829 15C53.7829 7.73072 42.1545 1.83763 27.8104 1.83763C13.4664 1.83763 1.83789 7.73072 1.83789 15C1.83789 22.2693 13.4664 28.1623 27.8104 28.1623Z" fill="#777BB3"/>
<path d="M15.4669 16.6319C16.6464 16.6319 17.5269 16.4144 18.084 15.9856C18.6352 15.5612 19.0159 14.826 19.2154 13.8004C19.4014 12.8418 19.3306 12.1724 19.0048 11.8112C18.6718 11.4423 17.9517 11.2552 16.8646 11.2552H14.9797L13.9348 16.6319H15.4669ZM9.30198 23.255C9.21449 23.255 9.1314 23.2159 9.07577 23.1483C9.02005 23.0807 8.99747 22.9918 9.01418 22.9058L11.7835 8.65743C11.8103 8.51969 11.931 8.42017 12.0714 8.42017H18.04C19.9157 8.42017 21.3119 8.92949 22.1895 9.93416C23.0718 10.9441 23.3442 12.3558 22.9993 14.1301C22.8589 14.8529 22.6174 15.5242 22.2816 16.1252C21.9454 16.7269 21.5011 17.2836 20.9608 17.7803C20.314 18.3856 19.582 18.8245 18.787 19.0828C18.0047 19.3377 16.9999 19.4669 15.8007 19.4669H13.3839L12.6937 23.0177C12.6669 23.1555 12.5463 23.255 12.4059 23.255H9.30198Z" fill="black"/>
<path d="M15.2214 11.5484H16.8646C18.1766 11.5484 18.6323 11.8363 18.7872 12.0079C19.0441 12.2927 19.0926 12.8934 18.9275 13.7447C18.7419 14.6979 18.398 15.3737 17.9051 15.7532C17.4005 16.1417 16.5801 16.3386 15.4669 16.3386H14.2905L15.2214 11.5484ZM18.0399 8.12685H12.0713C11.7905 8.12685 11.5491 8.32589 11.4956 8.60147L8.72624 22.8499C8.69281 23.0218 8.73797 23.1997 8.84932 23.3349C8.96077 23.4701 9.12676 23.5483 9.30194 23.5483H12.4058C12.6866 23.5483 12.928 23.3492 12.9816 23.0737L13.6256 19.7601H15.8007C17.0307 19.7601 18.0661 19.626 18.878 19.3616C19.713 19.0903 20.4811 18.6303 21.1611 17.9945C21.7234 17.4772 22.1865 16.8965 22.5375 16.2684C22.8885 15.6401 23.1408 14.9395 23.2871 14.1859C23.6503 12.3183 23.3552 10.8228 22.4103 9.74124C21.4746 8.67 20.0041 8.12685 18.0399 8.12685ZM13.5789 16.9251H15.4669C16.7183 16.9251 17.6504 16.6894 18.2629 16.2179C18.8755 15.7464 19.2886 14.9593 19.5033 13.8564C19.7087 12.7975 19.6151 12.0502 19.2226 11.6149C18.8296 11.1796 18.0437 10.9619 16.8646 10.9619H14.7379L13.5789 16.9251ZM18.0399 8.7134C19.8354 8.7134 21.1453 9.1846 21.9686 10.1271C22.7919 11.0696 23.0398 12.3851 22.7113 14.0741C22.5761 14.7698 22.3475 15.406 22.0255 15.9822C21.7032 16.5589 21.2824 17.0862 20.7623 17.5644C20.1425 18.1444 19.454 18.5577 18.6964 18.8039C17.9387 19.0507 16.9738 19.1736 15.8007 19.1736H13.142L12.4058 22.9617H9.30194L12.0713 8.7134H18.0399Z" fill="white"/>
<path d="M30.1159 19.4669C30.0283 19.4669 29.9453 19.4278 29.8896 19.3602C29.8338 19.2926 29.8112 19.2038 29.828 19.1177L31.053 12.8134C31.1695 12.2138 31.1408 11.7835 30.9721 11.6016C30.8689 11.4905 30.5588 11.3041 29.6419 11.3041H27.4226L25.8824 19.2296C25.8556 19.3674 25.7349 19.4669 25.5945 19.4669H22.5151C22.4275 19.4669 22.3445 19.4278 22.2888 19.3602C22.2331 19.2926 22.2105 19.2037 22.2272 19.1177L24.9965 4.8693C25.0233 4.73155 25.144 4.63204 25.2844 4.63204H28.3638C28.4514 4.63204 28.5344 4.67114 28.5901 4.73869C28.6459 4.80634 28.6684 4.8952 28.6517 4.98123L27.9834 8.42019H30.3709C32.1897 8.42019 33.423 8.74083 34.1414 9.40051C34.8736 10.0735 35.102 11.1495 34.8205 12.5991L33.532 19.2296C33.5053 19.3674 33.3846 19.4669 33.2441 19.4669H30.1159Z" fill="black"/>
<path d="M28.3639 4.33871H25.2845C25.0036 4.33871 24.7623 4.53775 24.7087 4.81333L21.9394 19.0617C21.9059 19.2337 21.9511 19.4115 22.0626 19.5467C22.174 19.6819 22.34 19.7601 22.5152 19.7601H25.5946C25.8753 19.7601 26.1168 19.5611 26.1704 19.2855L27.6644 11.5973H29.642C30.5573 11.5973 30.7494 11.7928 30.7571 11.8012C30.8126 11.8609 30.8857 12.1376 30.7651 12.7574L29.5401 19.0617C29.5067 19.2337 29.5518 19.4115 29.6633 19.5467C29.7747 19.6819 29.9407 19.7601 30.1159 19.7601H33.2442C33.525 19.7601 33.7664 19.5611 33.82 19.2855L35.1084 12.655C35.4107 11.0986 35.1521 9.93109 34.3399 9.18461C33.5648 8.47283 32.2666 8.12686 30.371 8.12686H28.3392L28.9397 5.0372C28.973 4.86524 28.928 4.68732 28.8165 4.55222C28.7051 4.41702 28.5391 4.33871 28.3639 4.33871ZM28.3639 4.92526L27.6277 8.71341H30.371C32.0971 8.71341 33.2877 9.0147 33.943 9.6165C34.5983 10.2187 34.7946 11.1944 34.5327 12.5432L33.2442 19.1736H30.1159L31.3409 12.8693C31.4803 12.1522 31.4291 11.663 31.1871 11.4022C30.9449 11.1413 30.4298 11.0107 29.642 11.0107H27.1808L25.5946 19.1736H22.5152L25.2845 4.92526H28.3639Z" fill="white"/>
<path d="M39.693 16.6319C40.8724 16.6319 41.753 16.4144 42.3101 15.9856C42.8612 15.5613 43.2419 14.8261 43.4415 13.8004C43.6276 12.8418 43.5567 12.1724 43.2309 11.8112C42.8978 11.4423 42.1777 11.2552 41.0906 11.2552H39.2058L38.1608 16.6319H39.693ZM33.5281 23.255C33.4407 23.255 33.3576 23.2159 33.3019 23.1483C33.2462 23.0807 33.2235 22.9918 33.2402 22.9058L36.0095 8.65743C36.0364 8.51969 36.1571 8.42017 36.2975 8.42017H42.266C44.1419 8.42017 45.538 8.92949 46.4156 9.93416C47.2979 10.944 47.5703 12.3557 47.2254 14.1301C47.0848 14.8529 46.8434 15.5242 46.5076 16.1252C46.1714 16.7269 45.7271 17.2836 45.1868 17.7803C44.5401 18.3856 43.808 18.8245 43.0131 19.0828C42.2307 19.3377 41.2259 19.4669 40.0267 19.4669H37.6099L36.92 23.0177C36.8931 23.1555 36.7725 23.255 36.632 23.255H33.5281Z" fill="black"/>
<path d="M39.4475 11.5484H41.0906C42.4027 11.5484 42.8584 11.8363 43.0133 12.0079C43.2703 12.2927 43.3188 12.8934 43.1535 13.7446C42.968 14.6979 42.624 15.3737 42.1312 15.7532C41.6266 16.1417 40.8062 16.3386 39.693 16.3386H38.5167L39.4475 11.5484ZM42.266 8.12685H36.2974C36.0167 8.12685 35.7753 8.32589 35.7217 8.60147L32.9524 22.8499C32.919 23.0218 32.9642 23.1997 33.0755 23.3349C33.187 23.4701 33.353 23.5483 33.5281 23.5483H36.632C36.9127 23.5483 37.1542 23.3492 37.2078 23.0737L37.8517 19.7601H40.0267C41.2567 19.7601 42.2922 19.626 43.1041 19.3616C43.939 19.0903 44.7074 18.6302 45.3873 17.9943C45.9496 17.4771 46.4126 16.8965 46.7636 16.2684C47.1146 15.6401 47.3668 14.9395 47.5132 14.1859C47.8764 12.3183 47.5813 10.8227 46.6364 9.74114C45.7006 8.67 44.2303 8.12685 42.266 8.12685ZM37.8051 16.9251H39.693C40.9444 16.9251 41.8765 16.6894 42.489 16.2179C43.1016 15.7464 43.5147 14.9593 43.7293 13.8564C43.9348 12.7975 43.8413 12.0502 43.4487 11.6149C43.0557 11.1796 42.2698 10.9619 41.0906 10.9619H38.964L37.8051 16.9251ZM42.266 8.7134C44.0615 8.7134 45.3714 9.1846 46.1947 10.1271C47.018 11.0696 47.2659 12.3851 46.9374 14.0741C46.8022 14.7698 46.5735 15.406 46.2516 15.9822C45.9293 16.5589 45.5084 17.0862 44.9884 17.5644C44.3686 18.1444 43.6801 18.5577 42.9224 18.8039C42.1648 19.0507 41.1998 19.1736 40.0267 19.1736H37.3681L36.632 22.9617H33.5281L36.2974 8.7134H42.266Z" fill="white"/>
<defs>
<radialGradient id="paint0_radial_6032_4594" cx="0" cy="0" r="1" gradientUnits="userSpaceOnUse" gradientTransform="translate(17.0101 5.78065) scale(35.4921 35.4921)">
<stop stop-color="#AEB2D5"/>
<stop offset="0.3" stop-color="#AEB2D5"/>
<stop offset="0.75" stop-color="#484C89"/>
<stop offset="1" stop-color="#484C89"/>
</radialGradient>
</defs>
</svg>
