<svg width="22" height="30" viewBox="0 0 22 30" fill="none" xmlns="http://www.w3.org/2000/svg">
<g clip-path="url(#clip0_7215_8723)">
<path fill-rule="evenodd" clip-rule="evenodd" d="M0.147705 25.0122V10.8022C0.147705 4.83628 4.98398 0 10.9499 0C16.9158 0 21.7521 4.83628 21.7521 10.8022C21.7521 16.6896 17.0421 21.4769 11.1847 21.6018V21.6044C9.49863 21.6044 8.13192 20.2376 8.13192 18.5516C8.13192 16.8813 9.47337 15.5242 11.1377 15.4992V15.4951C13.6445 15.3965 15.6465 13.3331 15.6465 10.8022C15.6465 8.20834 13.5437 6.10558 10.9499 6.10558C8.35604 6.10558 6.25328 8.20834 6.25328 10.8022V26.5358C6.25328 28.2219 4.88657 29.5886 3.20049 29.5886C2.57246 29.5896 1.95953 29.396 1.44603 29.0344C2.32411 28.7778 2.96566 27.9666 2.96566 27.0054C2.96566 25.8382 2.01939 24.892 0.852195 24.892C0.605154 24.892 0.368069 24.9343 0.147705 25.0122ZM11.1847 20.665C12.3519 20.665 13.2982 19.7188 13.2982 18.5516C13.2982 17.3844 12.3519 16.4381 11.1847 16.4381C10.0175 16.4381 9.07124 17.3844 9.07124 18.5516C9.07124 19.7188 10.0175 20.665 11.1847 20.665Z" fill="url(#paint0_linear_7215_8723)"/>
</g>
<defs>
<linearGradient id="paint0_linear_7215_8723" x1="10.9499" y1="0" x2="10.9499" y2="18.5278" gradientUnits="userSpaceOnUse">
<stop stop-color="#D378E5"/>
<stop offset="1" stop-color="#7526C2"/>
</linearGradient>
<clipPath id="clip0_7215_8723">
<rect width="21.9" height="30" fill="white"/>
</clipPath>
</defs>
</svg>
