<svg width="30" height="30" viewBox="0 0 30 30" fill="none" xmlns="http://www.w3.org/2000/svg">
<g clip-path="url(#clip0_7215_8746)">
<g filter="url(#filter0_dd_7215_8746)">
<g filter="url(#filter1_ii_7215_8746)">
<path fill-rule="evenodd" clip-rule="evenodd" d="M15.0453 25.4276V30.0043C14.2891 30.0043 13.6032 29.7035 13.0987 29.216C13.0969 29.216 13.0969 29.216 13.0969 29.2144L12.719 28.763L0.34323 14.0327C0.335125 14.0289 0.329279 14.0208 0.325082 14.0126L0.275124 13.9547C0.271232 13.9505 0.268958 13.9465 0.265386 13.9424C0.205065 13.8604 0.153155 13.772 0.119102 13.6757C0.0730525 13.5614 0.0471051 13.4373 0.0432129 13.3088V13.2328C0.0432129 13.2087 0.045151 13.1842 0.0493637 13.1603C0.0710987 12.9078 0.179103 12.6827 0.34323 12.5064C0.545301 12.2878 0.837214 12.1497 1.15898 12.1497H3.88583L15.0433 25.4296L15.0453 25.4276Z" fill="url(#paint0_linear_7215_8746)"/>
<path fill-rule="evenodd" clip-rule="evenodd" d="M15.0453 25.4276V30.0043C14.2891 30.0043 13.6032 29.7035 13.0987 29.216C13.0969 29.216 13.0969 29.216 13.0969 29.2144L12.719 28.763L0.34323 14.0327C0.335125 14.0289 0.329279 14.0208 0.325082 14.0126L0.275124 13.9547C0.271232 13.9505 0.268958 13.9465 0.265386 13.9424C0.205065 13.8604 0.153155 13.772 0.119102 13.6757C0.0730525 13.5614 0.0471051 13.4373 0.0432129 13.3088V13.2328C0.0432129 13.2087 0.045151 13.1842 0.0493637 13.1603C0.0710987 12.9078 0.179103 12.6827 0.34323 12.5064C0.545301 12.2878 0.837214 12.1497 1.15898 12.1497H3.88583L15.0433 25.4296L15.0453 25.4276Z" fill="url(#paint1_linear_7215_8746)"/>
</g>
<g filter="url(#filter2_ii_7215_8746)">
<path fill-rule="evenodd" clip-rule="evenodd" d="M15.0453 25.4276V30.0043C14.2891 30.0043 13.6032 29.7035 13.0987 29.216C13.0969 29.216 13.0969 29.216 13.0969 29.2144L12.719 28.763L3.48558 17.7736L0.34323 14.0327C0.335125 14.0289 0.329279 14.0208 0.325082 14.0126L0.275124 13.9547C0.271232 13.9505 0.268958 13.9465 0.265386 13.9424C0.205065 13.8604 0.153155 13.772 0.119102 13.6757C0.0730525 13.5614 0.0471051 13.4373 0.0432129 13.3088V13.2328C0.0432129 13.2087 0.045151 13.1842 0.0493637 13.1603C0.0710987 12.9078 0.179103 12.6827 0.34323 12.5064C0.545301 12.2878 0.837214 12.1497 1.15898 12.1497H3.88583L5.16801 13.6757L8.61039 17.7736L14.2548 24.491L15.0433 25.4296L15.0453 25.4276Z" fill="url(#paint2_linear_7215_8746)" fill-opacity="0.4"/>
</g>
<g filter="url(#filter3_ii_7215_8746)">
<path fill-rule="evenodd" clip-rule="evenodd" d="M15.0453 19.3482V25.4589L15.0433 25.4608L0.322472 7.98748C0.307559 7.97085 0.292631 7.95207 0.277719 7.93299C0.212209 7.84904 0.157703 7.75517 0.118125 7.65169C0.0733732 7.53752 0.0471051 7.41358 0.0432129 7.28247V7.20722C0.0506614 6.9279 0.163229 6.67651 0.34323 6.48543C0.544019 6.26385 0.836252 6.12695 1.15898 6.12695H3.9082L15.0453 19.3482Z" fill="url(#paint3_linear_7215_8746)"/>
<path fill-rule="evenodd" clip-rule="evenodd" d="M15.0453 19.3482V25.4589L15.0433 25.4608L0.322472 7.98748C0.307559 7.97085 0.292631 7.95207 0.277719 7.93299C0.212209 7.84904 0.157703 7.75517 0.118125 7.65169C0.0733732 7.53752 0.0471051 7.41358 0.0432129 7.28247V7.20722C0.0506614 6.9279 0.163229 6.67651 0.34323 6.48543C0.544019 6.26385 0.836252 6.12695 1.15898 6.12695H3.9082L15.0453 19.3482Z" fill="url(#paint4_linear_7215_8746)"/>
</g>
<g filter="url(#filter4_ii_7215_8746)">
<path fill-rule="evenodd" clip-rule="evenodd" d="M15.0453 19.3482V25.4589L15.0433 25.4608L14.2559 24.5247L8.61131 17.8253L5.16833 13.7383L3.88583 12.2153L0.322472 7.98748C0.307559 7.97085 0.292631 7.95207 0.277719 7.93299C0.212209 7.84904 0.157703 7.75517 0.118125 7.65169C0.0733732 7.53752 0.0471051 7.41358 0.0432129 7.28247V7.20722C0.0506614 6.9279 0.163229 6.67651 0.34323 6.48543C0.544019 6.26385 0.836252 6.12695 1.15898 6.12695H3.9082L5.19266 7.65169L9.03716 12.2153L10.3196 13.7383L13.7627 17.8253L15.0453 19.3482Z" fill="url(#paint5_linear_7215_8746)" fill-opacity="0.3"/>
</g>
<g filter="url(#filter5_ii_7215_8746)">
<path fill-rule="evenodd" clip-rule="evenodd" d="M1.11139 0C0.789957 0 0.495435 0.135584 0.295638 0.357773C0.115621 0.54591 0.00372558 0.801831 -0.00439453 1.08013V1.15409C-0.000822902 1.28609 0.0251245 1.41 0.0714947 1.52385C0.0734637 1.53391 0.0776612 1.54201 0.0812328 1.55207C0.11756 1.63804 0.163304 1.71782 0.221366 1.7921C0.241148 1.82033 0.263523 1.84627 0.287533 1.86995C0.291409 1.87611 0.297255 1.88196 0.303421 1.88811L14.9974 19.3288V30.0043C15.0678 30.0043 15.136 30.0025 15.2038 29.9967C15.8778 29.9489 16.4859 29.6606 16.944 29.2185C16.9461 29.2185 16.9461 29.2185 16.9461 29.2161L17.3242 28.7663L29.7182 14.0539C29.7339 14.038 29.748 14.0199 29.7623 14.002C29.8301 13.9181 29.884 13.8236 29.9238 13.72C29.974 13.596 30 13.46 30 13.3156V1.11613C30 0.821932 29.8858 0.551741 29.6981 0.355835C29.496 0.135585 29.2057 0 28.8816 0H1.11139Z" fill="url(#paint6_linear_7215_8746)"/>
<path fill-rule="evenodd" clip-rule="evenodd" d="M1.11139 0C0.789957 0 0.495435 0.135584 0.295638 0.357773C0.115621 0.54591 0.00372558 0.801831 -0.00439453 1.08013V1.15409C-0.000822902 1.28609 0.0251245 1.41 0.0714947 1.52385C0.0734637 1.53391 0.0776612 1.54201 0.0812328 1.55207C0.11756 1.63804 0.163304 1.71782 0.221366 1.7921C0.241148 1.82033 0.263523 1.84627 0.287533 1.86995C0.291409 1.87611 0.297255 1.88196 0.303421 1.88811L14.9974 19.3288V30.0043C15.0678 30.0043 15.136 30.0025 15.2038 29.9967C15.8778 29.9489 16.4859 29.6606 16.944 29.2185C16.9461 29.2185 16.9461 29.2185 16.9461 29.2161L17.3242 28.7663L29.7182 14.0539C29.7339 14.038 29.748 14.0199 29.7623 14.002C29.8301 13.9181 29.884 13.8236 29.9238 13.72C29.974 13.596 30 13.46 30 13.3156V1.11613C30 0.821932 29.8858 0.551741 29.6981 0.355835C29.496 0.135585 29.2057 0 28.8816 0H1.11139Z" fill="url(#paint7_linear_7215_8746)"/>
<path fill-rule="evenodd" clip-rule="evenodd" d="M1.11139 0C0.789957 0 0.495435 0.135584 0.295638 0.357773C0.115621 0.54591 0.00372558 0.801831 -0.00439453 1.08013V1.15409C-0.000822902 1.28609 0.0251245 1.41 0.0714947 1.52385C0.0734637 1.53391 0.0776612 1.54201 0.0812328 1.55207C0.11756 1.63804 0.163304 1.71782 0.221366 1.7921C0.241148 1.82033 0.263523 1.84627 0.287533 1.86995C0.291409 1.87611 0.297255 1.88196 0.303421 1.88811L14.9974 19.3288V30.0043C15.0678 30.0043 15.136 30.0025 15.2038 29.9967C15.8778 29.9489 16.4859 29.6606 16.944 29.2185C16.9461 29.2185 16.9461 29.2185 16.9461 29.2161L17.3242 28.7663L29.7182 14.0539C29.7339 14.038 29.748 14.0199 29.7623 14.002C29.8301 13.9181 29.884 13.8236 29.9238 13.72C29.974 13.596 30 13.46 30 13.3156V1.11613C30 0.821932 29.8858 0.551741 29.6981 0.355835C29.496 0.135585 29.2057 0 28.8816 0H1.11139Z" fill="url(#paint8_linear_7215_8746)"/>
<path fill-rule="evenodd" clip-rule="evenodd" d="M1.11139 0C0.789957 0 0.495435 0.135584 0.295638 0.357773C0.115621 0.54591 0.00372558 0.801831 -0.00439453 1.08013V1.15409C-0.000822902 1.28609 0.0251245 1.41 0.0714947 1.52385C0.0734637 1.53391 0.0776612 1.54201 0.0812328 1.55207C0.11756 1.63804 0.163304 1.71782 0.221366 1.7921C0.241148 1.82033 0.263523 1.84627 0.287533 1.86995C0.291409 1.87611 0.297255 1.88196 0.303421 1.88811L14.9974 19.3288V30.0043C15.0678 30.0043 15.136 30.0025 15.2038 29.9967C15.8778 29.9489 16.4859 29.6606 16.944 29.2185C16.9461 29.2185 16.9461 29.2185 16.9461 29.2161L17.3242 28.7663L29.7182 14.0539C29.7339 14.038 29.748 14.0199 29.7623 14.002C29.8301 13.9181 29.884 13.8236 29.9238 13.72C29.974 13.596 30 13.46 30 13.3156V1.11613C30 0.821932 29.8858 0.551741 29.6981 0.355835C29.496 0.135585 29.2057 0 28.8816 0H1.11139Z" fill="url(#paint9_linear_7215_8746)"/>
<path fill-rule="evenodd" clip-rule="evenodd" d="M1.11139 0C0.789957 0 0.495435 0.135584 0.295638 0.357773C0.115621 0.54591 0.00372558 0.801831 -0.00439453 1.08013V1.15409C-0.000822902 1.28609 0.0251245 1.41 0.0714947 1.52385C0.0734637 1.53391 0.0776612 1.54201 0.0812328 1.55207C0.11756 1.63804 0.163304 1.71782 0.221366 1.7921C0.241148 1.82033 0.263523 1.84627 0.287533 1.86995C0.291409 1.87611 0.297255 1.88196 0.303421 1.88811L14.9974 19.3288V30.0043C15.0678 30.0043 15.136 30.0025 15.2038 29.9967C15.8778 29.9489 16.4859 29.6606 16.944 29.2185C16.9461 29.2185 16.9461 29.2185 16.9461 29.2161L17.3242 28.7663L29.7182 14.0539C29.7339 14.038 29.748 14.0199 29.7623 14.002C29.8301 13.9181 29.884 13.8236 29.9238 13.72C29.974 13.596 30 13.46 30 13.3156V1.11613C30 0.821932 29.8858 0.551741 29.6981 0.355835C29.496 0.135585 29.2057 0 28.8816 0H1.11139Z" fill="url(#paint10_linear_7215_8746)"/>
<path fill-rule="evenodd" clip-rule="evenodd" d="M1.11139 0C0.789957 0 0.495435 0.135584 0.295638 0.357773C0.115621 0.54591 0.00372558 0.801831 -0.00439453 1.08013V1.15409C-0.000822902 1.28609 0.0251245 1.41 0.0714947 1.52385C0.0734637 1.53391 0.0776612 1.54201 0.0812328 1.55207C0.11756 1.63804 0.163304 1.71782 0.221366 1.7921C0.241148 1.82033 0.263523 1.84627 0.287533 1.86995C0.291409 1.87611 0.297255 1.88196 0.303421 1.88811L14.9974 19.3288V30.0043C15.0678 30.0043 15.136 30.0025 15.2038 29.9967C15.8778 29.9489 16.4859 29.6606 16.944 29.2185C16.9461 29.2185 16.9461 29.2185 16.9461 29.2161L17.3242 28.7663L29.7182 14.0539C29.7339 14.038 29.748 14.0199 29.7623 14.002C29.8301 13.9181 29.884 13.8236 29.9238 13.72C29.974 13.596 30 13.46 30 13.3156V1.11613C30 0.821932 29.8858 0.551741 29.6981 0.355835C29.496 0.135585 29.2057 0 28.8816 0H1.11139Z" fill="url(#paint11_linear_7215_8746)"/>
</g>
</g>
</g>
<defs>
<filter id="filter0_dd_7215_8746" x="-1.53803" y="-1.16848" width="34.0941" height="34.094" filterUnits="userSpaceOnUse" color-interpolation-filters="sRGB">
<feFlood flood-opacity="0" result="BackgroundImageFix"/>
<feColorMatrix in="SourceAlpha" type="matrix" values="0 0 0 0 0 0 0 0 0 0 0 0 0 0 0 0 0 0 127 0" result="hardAlpha"/>
<feOffset dx="0.511209" dy="0.876358"/>
<feGaussianBlur stdDeviation="1.02242"/>
<feColorMatrix type="matrix" values="0 0 0 0 1 0 0 0 0 0.875 0 0 0 0 0.843 0 0 0 0.63 0"/>
<feBlend mode="normal" in2="BackgroundImageFix" result="effect1_dropShadow_7215_8746"/>
<feColorMatrix in="SourceAlpha" type="matrix" values="0 0 0 0 0 0 0 0 0 0 0 0 0 0 0 0 0 0 127 0" result="hardAlpha"/>
<feOffset dx="0.219089" dy="0.438179"/>
<feGaussianBlur stdDeviation="0.730298"/>
<feColorMatrix type="matrix" values="0 0 0 0 0.771137 0 0 0 0 0.469437 0 0 0 0 0.40806 0 0 0 0.3 0"/>
<feBlend mode="normal" in2="effect1_dropShadow_7215_8746" result="effect2_dropShadow_7215_8746"/>
<feBlend mode="normal" in="SourceGraphic" in2="effect2_dropShadow_7215_8746" result="shape"/>
</filter>
<filter id="filter1_ii_7215_8746" x="-1.3012" y="12.1497" width="18.026" height="20.3377" filterUnits="userSpaceOnUse" color-interpolation-filters="sRGB">
<feFlood flood-opacity="0" result="BackgroundImageFix"/>
<feBlend mode="normal" in="SourceGraphic" in2="BackgroundImageFix" result="shape"/>
<feColorMatrix in="SourceAlpha" type="matrix" values="0 0 0 0 0 0 0 0 0 0 0 0 0 0 0 0 0 0 127 0" result="hardAlpha"/>
<feOffset dx="1.67968" dy="4.1627"/>
<feGaussianBlur stdDeviation="1.24151"/>
<feComposite in2="hardAlpha" operator="arithmetic" k2="-1" k3="1"/>
<feColorMatrix type="matrix" values="0 0 0 0 1 0 0 0 0 0.651 0 0 0 0 0.58 0 0 0 1 0"/>
<feBlend mode="normal" in2="shape" result="effect1_innerShadow_7215_8746"/>
<feColorMatrix in="SourceAlpha" type="matrix" values="0 0 0 0 0 0 0 0 0 0 0 0 0 0 0 0 0 0 127 0" result="hardAlpha"/>
<feOffset dx="-1.34441" dy="8.87312"/>
<feGaussianBlur stdDeviation="1.20998"/>
<feComposite in2="hardAlpha" operator="arithmetic" k2="-1" k3="1"/>
<feColorMatrix type="matrix" values="0 0 0 0 1 0 0 0 0 0.875 0 0 0 0 0.843 0 0 0 0.48 0"/>
<feBlend mode="normal" in2="effect1_innerShadow_7215_8746" result="effect2_innerShadow_7215_8746"/>
</filter>
<filter id="filter2_ii_7215_8746" x="0.0432129" y="11.3464" width="15.9513" height="18.658" filterUnits="userSpaceOnUse" color-interpolation-filters="sRGB">
<feFlood flood-opacity="0" result="BackgroundImageFix"/>
<feBlend mode="normal" in="SourceGraphic" in2="BackgroundImageFix" result="shape"/>
<feColorMatrix in="SourceAlpha" type="matrix" values="0 0 0 0 0 0 0 0 0 0 0 0 0 0 0 0 0 0 127 0" result="hardAlpha"/>
<feOffset dx="0.0730298" dy="-0.876358"/>
<feGaussianBlur stdDeviation="0.328634"/>
<feComposite in2="hardAlpha" operator="arithmetic" k2="-1" k3="1"/>
<feColorMatrix type="matrix" values="0 0 0 0 1 0 0 0 0 0.604589 0 0 0 0 0.591667 0 0 0 0.2 0"/>
<feBlend mode="multiply" in2="shape" result="effect1_innerShadow_7215_8746"/>
<feColorMatrix in="SourceAlpha" type="matrix" values="0 0 0 0 0 0 0 0 0 0 0 0 0 0 0 0 0 0 127 0" result="hardAlpha"/>
<feOffset dx="0.949388" dy="-0.803328"/>
<feGaussianBlur stdDeviation="0.474694"/>
<feComposite in2="hardAlpha" operator="arithmetic" k2="-1" k3="1"/>
<feColorMatrix type="matrix" values="0 0 0 0 1 0 0 0 0 1 0 0 0 0 1 0 0 0 0.3 0"/>
<feBlend mode="normal" in2="effect1_innerShadow_7215_8746" result="effect2_innerShadow_7215_8746"/>
</filter>
<filter id="filter3_ii_7215_8746" x="-1.3012" y="6.12695" width="18.026" height="21.8169" filterUnits="userSpaceOnUse" color-interpolation-filters="sRGB">
<feFlood flood-opacity="0" result="BackgroundImageFix"/>
<feBlend mode="normal" in="SourceGraphic" in2="BackgroundImageFix" result="shape"/>
<feColorMatrix in="SourceAlpha" type="matrix" values="0 0 0 0 0 0 0 0 0 0 0 0 0 0 0 0 0 0 127 0" result="hardAlpha"/>
<feOffset dx="1.67968" dy="4.1627"/>
<feGaussianBlur stdDeviation="1.24151"/>
<feComposite in2="hardAlpha" operator="arithmetic" k2="-1" k3="1"/>
<feColorMatrix type="matrix" values="0 0 0 0 1 0 0 0 0 0.651 0 0 0 0 0.58 0 0 0 1 0"/>
<feBlend mode="normal" in2="shape" result="effect1_innerShadow_7215_8746"/>
<feColorMatrix in="SourceAlpha" type="matrix" values="0 0 0 0 0 0 0 0 0 0 0 0 0 0 0 0 0 0 127 0" result="hardAlpha"/>
<feOffset dx="-1.34441" dy="8.87312"/>
<feGaussianBlur stdDeviation="1.20998"/>
<feComposite in2="hardAlpha" operator="arithmetic" k2="-1" k3="1"/>
<feColorMatrix type="matrix" values="0 0 0 0 1 0 0 0 0 0.875 0 0 0 0 0.843 0 0 0 0.48 0"/>
<feBlend mode="normal" in2="effect1_innerShadow_7215_8746" result="effect2_innerShadow_7215_8746"/>
</filter>
<filter id="filter4_ii_7215_8746" x="0.0432129" y="5.98089" width="15.5132" height="19.699" filterUnits="userSpaceOnUse" color-interpolation-filters="sRGB">
<feFlood flood-opacity="0" result="BackgroundImageFix"/>
<feBlend mode="normal" in="SourceGraphic" in2="BackgroundImageFix" result="shape"/>
<feColorMatrix in="SourceAlpha" type="matrix" values="0 0 0 0 0 0 0 0 0 0 0 0 0 0 0 0 0 0 127 0" result="hardAlpha"/>
<feOffset dx="0.21909" dy="-0.14606"/>
<feGaussianBlur stdDeviation="0.547724"/>
<feComposite in2="hardAlpha" operator="arithmetic" k2="-1" k3="1"/>
<feColorMatrix type="matrix" values="0 0 0 0 0.996078 0 0 0 0 0.458823 0 0 0 0 0.411765 0 0 0 0.5 0"/>
<feBlend mode="normal" in2="shape" result="effect1_innerShadow_7215_8746"/>
<feColorMatrix in="SourceAlpha" type="matrix" values="0 0 0 0 0 0 0 0 0 0 0 0 0 0 0 0 0 0 127 0" result="hardAlpha"/>
<feOffset dx="1.16847" dy="0.21909"/>
<feGaussianBlur stdDeviation="0.255604"/>
<feComposite in2="hardAlpha" operator="arithmetic" k2="-1" k3="1"/>
<feColorMatrix type="matrix" values="0 0 0 0 1 0 0 0 0 1 0 0 0 0 1 0 0 0 0.08 0"/>
<feBlend mode="normal" in2="effect1_innerShadow_7215_8746" result="effect2_innerShadow_7215_8746"/>
</filter>
<filter id="filter5_ii_7215_8746" x="-1.4647" y="-1.09498" width="31.4647" height="32.0483" filterUnits="userSpaceOnUse" color-interpolation-filters="sRGB">
<feFlood flood-opacity="0" result="BackgroundImageFix"/>
<feBlend mode="normal" in="SourceGraphic" in2="BackgroundImageFix" result="shape"/>
<feColorMatrix in="SourceAlpha" type="matrix" values="0 0 0 0 0 0 0 0 0 0 0 0 0 0 0 0 0 0 127 0" result="hardAlpha"/>
<feOffset dx="-1.46031" dy="-1.09498"/>
<feGaussianBlur stdDeviation="1.05875"/>
<feComposite in2="hardAlpha" operator="arithmetic" k2="-1" k3="1"/>
<feColorMatrix type="matrix" values="0 0 0 0 0 0 0 0 0 0 0 0 0 0 0 0 0 0 0.1 0"/>
<feBlend mode="hard-light" in2="shape" result="effect1_innerShadow_7215_8746"/>
<feColorMatrix in="SourceAlpha" type="matrix" values="0 0 0 0 0 0 0 0 0 0 0 0 0 0 0 0 0 0 127 0" result="hardAlpha"/>
<feOffset dx="-0.145929" dy="0.949049"/>
<feGaussianBlur stdDeviation="0.912822"/>
<feComposite in2="hardAlpha" operator="arithmetic" k2="-1" k3="1"/>
<feColorMatrix type="matrix" values="0 0 0 0 1 0 0 0 0 0.87451 0 0 0 0 0.843137 0 0 0 0.7 0"/>
<feBlend mode="soft-light" in2="effect1_innerShadow_7215_8746" result="effect2_innerShadow_7215_8746"/>
</filter>
<linearGradient id="paint0_linear_7215_8746" x1="9.05273" y1="17.3177" x2="6.4431" y2="19.3654" gradientUnits="userSpaceOnUse">
<stop stop-color="#FFA794" stop-opacity="0.3"/>
<stop offset="1" stop-color="#FF9794"/>
</linearGradient>
<linearGradient id="paint1_linear_7215_8746" x1="9.05273" y1="17.3177" x2="6.4431" y2="19.3654" gradientUnits="userSpaceOnUse">
<stop stop-color="#FFA794" stop-opacity="0.3"/>
<stop offset="1" stop-color="#FF9794"/>
</linearGradient>
<linearGradient id="paint2_linear_7215_8746" x1="8.83049" y1="23.9478" x2="11.6293" y2="21.4468" gradientUnits="userSpaceOnUse">
<stop stop-color="#FFDFD7"/>
<stop offset="1" stop-color="#FFDFD7"/>
</linearGradient>
<linearGradient id="paint3_linear_7215_8746" x1="9.05273" y1="11.7232" x2="6.15896" y2="14.6133" gradientUnits="userSpaceOnUse">
<stop stop-color="#FFA794" stop-opacity="0.3"/>
<stop offset="1" stop-color="#FF9794"/>
</linearGradient>
<linearGradient id="paint4_linear_7215_8746" x1="9.05273" y1="11.7232" x2="6.15896" y2="14.6133" gradientUnits="userSpaceOnUse">
<stop stop-color="#FFA794" stop-opacity="0.3"/>
<stop offset="1" stop-color="#FF9794"/>
</linearGradient>
<linearGradient id="paint5_linear_7215_8746" x1="9.66387" y1="18.7798" x2="12.6088" y2="15.7793" gradientUnits="userSpaceOnUse">
<stop stop-color="#FFA694"/>
<stop offset="1" stop-color="#FFB7A9"/>
</linearGradient>
<linearGradient id="paint6_linear_7215_8746" x1="24.777" y1="20.0585" x2="4.4967" y2="6.1114" gradientUnits="userSpaceOnUse">
<stop stop-color="#FF6661"/>
<stop offset="1" stop-color="#FF7D73"/>
</linearGradient>
<linearGradient id="paint7_linear_7215_8746" x1="24.777" y1="20.0585" x2="4.4967" y2="6.1114" gradientUnits="userSpaceOnUse">
<stop stop-color="#FF6661"/>
<stop offset="1" stop-color="#FF7D73"/>
</linearGradient>
<linearGradient id="paint8_linear_7215_8746" x1="24.777" y1="20.0585" x2="4.4967" y2="6.1114" gradientUnits="userSpaceOnUse">
<stop stop-color="#FF6661"/>
<stop offset="1" stop-color="#FF7D73"/>
</linearGradient>
<linearGradient id="paint9_linear_7215_8746" x1="24.777" y1="20.0585" x2="4.4967" y2="6.1114" gradientUnits="userSpaceOnUse">
<stop stop-color="#FF6661"/>
<stop offset="1" stop-color="#FF7D73"/>
</linearGradient>
<linearGradient id="paint10_linear_7215_8746" x1="24.777" y1="20.0585" x2="4.4967" y2="6.1114" gradientUnits="userSpaceOnUse">
<stop stop-color="#FF6661"/>
<stop offset="1" stop-color="#FF7D73"/>
</linearGradient>
<linearGradient id="paint11_linear_7215_8746" x1="24.777" y1="20.0585" x2="4.4967" y2="6.1114" gradientUnits="userSpaceOnUse">
<stop stop-color="#FF6661"/>
<stop offset="1" stop-color="#FF7D73"/>
</linearGradient>
<clipPath id="clip0_7215_8746">
<rect width="30" height="30" fill="white"/>
</clipPath>
</defs>
</svg>
