<svg width="34" height="30" viewBox="0 0 34 30" fill="none" xmlns="http://www.w3.org/2000/svg">
<g clip-path="url(#clip0_6032_4529)">
<path d="M17 18.0054C18.6737 18.0054 20.0304 16.6598 20.0304 15C20.0304 13.3402 18.6737 11.9947 17 11.9947C15.3263 11.9947 13.9696 13.3402 13.9696 15C13.9696 16.6598 15.3263 18.0054 17 18.0054Z" fill="#61DAFB"/>
<path d="M17 21.1573C25.9806 21.1573 33.2609 18.4006 33.2609 15C33.2609 11.5994 25.9806 8.84268 17 8.84268C8.01937 8.84268 0.739136 11.5994 0.739136 15C0.739136 18.4006 8.01937 21.1573 17 21.1573Z" stroke="#61DAFB"/>
<path d="M11.6231 18.0787C16.1134 25.7917 22.1609 30.6661 25.1304 28.9658C28.1 27.2655 26.8672 19.6344 22.3769 11.9213C17.8866 4.20826 11.8391 -0.666073 8.86957 1.03422C5.9 2.73452 7.1328 10.3656 11.6231 18.0787Z" stroke="#61DAFB"/>
<path d="M11.6231 11.9213C7.1328 19.6344 5.89999 27.2655 8.86957 28.9658C11.8391 30.6661 17.8866 25.7917 22.3769 18.0787C26.8672 10.3656 28.1 2.73452 25.1304 1.03423C22.1609 -0.666065 16.1134 4.20826 11.6231 11.9213Z" stroke="#61DAFB"/>
</g>
<defs>
<clipPath id="clip0_6032_4529">
<rect width="34" height="30" fill="white"/>
</clipPath>
</defs>
</svg>
