<svg width="32" height="30" viewBox="0 0 32 30" fill="none" xmlns="http://www.w3.org/2000/svg">
<g clip-path="url(#clip0_6032_4578)">
<path d="M21.7968 20.8684C22.9577 20.7481 23.8384 19.7469 23.7983 18.5453C23.7584 17.3438 22.7575 16.3825 21.5566 16.3825H21.4766C20.2355 16.4226 19.2748 17.4639 19.3148 18.7055C19.3549 19.3063 19.595 19.8269 19.9553 20.1874C18.5943 22.871 16.5127 24.8335 13.3903 26.4756C11.2686 27.5971 9.06692 27.9976 6.86525 27.7173C5.06381 27.477 3.66272 26.676 2.78191 25.3541C1.50099 23.3916 1.38094 21.2688 2.4618 19.1461C3.22244 17.6241 4.42323 16.5026 5.18387 15.9419C5.02375 15.4212 4.78352 14.5401 4.66347 13.8993C-1.14108 18.1048 -0.540556 23.7922 1.22082 26.4756C2.5418 28.4783 5.22393 29.7199 8.18623 29.7199C8.9868 29.7199 9.78737 29.6397 10.5881 29.4396C15.7121 28.4382 19.5951 25.3942 21.7968 20.8684ZM28.8423 15.9019C25.7999 12.3372 21.3165 10.3747 16.1924 10.3747H15.552C15.1917 9.6538 14.4311 9.1731 13.5904 9.1731H13.5103C12.2694 9.21318 11.3088 10.2545 11.3487 11.4962C11.3888 12.6977 12.3895 13.659 13.5904 13.659H13.6704C14.5511 13.6189 15.3117 13.0582 15.632 12.2972H16.3526C19.395 12.2972 22.2771 13.1783 24.8793 14.9006C26.8808 16.2223 28.3219 17.9446 29.1225 20.0272C29.803 21.7094 29.763 23.3515 29.0424 24.7534C27.9216 26.8761 26.0401 28.0377 23.5582 28.0377C21.9569 28.0377 20.4358 27.557 19.6351 27.1965C19.1948 27.5971 18.3941 28.2378 17.8336 28.6385C19.5551 29.4395 21.3165 29.8801 22.9977 29.8801C26.8407 29.8801 29.683 27.7573 30.7638 25.6346C31.9247 23.3115 31.8446 19.3063 28.8423 15.9019ZM8.50646 21.5491C8.54651 22.7507 9.54726 23.7119 10.7482 23.7119H10.8283C12.0693 23.6719 13.03 22.6305 12.9899 21.3889C12.95 20.1873 11.9491 19.2261 10.7482 19.2261H10.6682C10.5881 19.2261 10.4679 19.2261 10.388 19.2661C8.74669 16.5426 8.06617 13.5788 8.30641 10.3746C8.4664 7.97147 9.26709 5.88872 10.6682 4.16644C11.829 2.68451 14.0708 1.96358 15.592 1.92362C19.8353 1.84346 21.6366 7.13031 21.7567 9.25313C22.2771 9.37325 23.1578 9.65368 23.7584 9.85395C23.2779 3.3656 19.2748 0.00119019 15.4319 0.00119019C11.829 0.00119019 8.50646 2.60459 7.18536 6.44958C5.34398 11.5762 6.5449 16.5026 8.78662 20.3877C8.58657 20.668 8.4664 21.1086 8.50646 21.5492V21.5491Z" fill="#764ABC"/>
</g>
<defs>
<clipPath id="clip0_6032_4578">
<rect width="31.4576" height="30" fill="white"/>
</clipPath>
</defs>
</svg>
