<svg width="41" height="30" viewBox="0 0 41 30" fill="none" xmlns="http://www.w3.org/2000/svg">
<g clip-path="url(#clip0_7223_8820)">
<path d="M34.4422 17.2431C33.0467 17.2504 31.8339 17.5865 30.8183 18.0833C30.4457 17.3454 30.073 16.6878 30.0073 16.2056C29.9342 15.643 29.8465 15.2996 29.9342 14.6274C30.0219 13.9552 30.4164 12.9981 30.4091 12.925C30.4018 12.8519 30.3214 12.5085 29.5177 12.5012C28.714 12.4939 28.0199 12.6547 27.9396 12.8665C27.8592 13.0784 27.7058 13.5606 27.6035 14.0575C27.4646 14.7881 25.9961 17.3965 25.1558 18.7628C24.8855 18.2294 24.6517 17.7618 24.6005 17.3892C24.5275 16.8266 24.4398 16.4832 24.5275 15.811C24.6152 15.1388 25.0097 14.1817 25.0024 14.1086C24.9951 14.0356 24.9147 13.6922 24.111 13.6849C23.3073 13.6775 22.6132 13.8383 22.5328 14.0502C22.4525 14.2621 22.3648 14.7589 22.1967 15.2411C22.0287 15.7233 20.0779 20.0779 19.5664 21.2031C19.3034 21.7803 19.0769 22.2406 18.9162 22.5548C18.9162 22.5548 18.9089 22.5767 18.887 22.6133C18.7481 22.8836 18.6678 23.0297 18.6678 23.0297C18.6678 23.0297 18.6678 23.0297 18.6678 23.037C18.5582 23.2343 18.4413 23.417 18.3828 23.417C18.339 23.417 18.2586 22.8909 18.3974 22.1749C18.6897 20.6624 19.3838 18.3098 19.3765 18.2294C19.3765 18.1856 19.508 17.7764 18.9235 17.5645C18.3536 17.3527 18.149 17.7034 18.0979 17.7034C18.0467 17.7034 18.0102 17.8276 18.0102 17.8276C18.0102 17.8276 18.6458 15.1827 16.7973 15.1827C15.6429 15.1827 14.0501 16.4467 13.261 17.5865C12.7642 17.8568 11.7048 18.434 10.5723 19.055C10.1412 19.2962 9.69553 19.5373 9.27907 19.7638C9.24984 19.7345 9.22062 19.698 9.19139 19.6688C6.95564 17.2796 2.82023 15.5918 2.99558 12.3843C3.06134 11.2153 3.46319 8.14662 10.9376 4.42036C17.0896 1.38822 21.9849 2.22845 22.8324 4.09158C24.0453 6.7511 20.2094 11.6902 13.8529 12.4062C11.4271 12.6766 10.1558 11.7414 9.83435 11.3907C9.49826 11.0253 9.44711 11.0034 9.3229 11.0765C9.11833 11.1861 9.24984 11.5149 9.3229 11.7048C9.51287 12.2017 10.2947 13.0784 11.6171 13.5095C12.7861 13.8894 15.6283 14.1013 19.0696 12.7716C22.9201 11.2811 25.9303 7.13834 25.0462 3.66781C24.1622 0.146132 18.3171 -1.01558 12.7861 0.949834C9.49826 2.11885 5.93274 3.96006 3.3682 6.35656C0.321443 9.20604 -0.160778 11.6829 0.0364945 12.7204C0.745213 16.4028 5.82315 18.7993 7.85432 20.5748C7.75203 20.6332 7.65705 20.6844 7.57668 20.7282C6.56109 21.2323 2.68871 23.2562 1.72427 25.397C0.628311 27.8227 1.89962 29.5616 2.73986 29.7954C5.34823 30.5188 8.02967 29.2182 9.46903 27.0701C10.9084 24.9221 10.733 22.131 10.0682 20.8524C10.0608 20.8378 10.0535 20.8232 10.0389 20.8086C10.302 20.6551 10.5723 20.4944 10.8353 20.341C11.3541 20.0341 11.8655 19.7492 12.3039 19.5153C12.0555 20.1948 11.8728 21.0058 11.7852 22.1749C11.6756 23.5485 12.2381 25.3312 12.9761 26.0326C13.3049 26.3395 13.6921 26.3468 13.9405 26.3468C14.8027 26.3468 15.1899 25.6308 15.621 24.7832C16.1471 23.7457 16.622 22.5402 16.622 22.5402C16.622 22.5402 16.0302 25.7988 17.6376 25.7988C18.2221 25.7988 18.8139 25.039 19.0769 24.6517C19.0769 24.659 19.0769 24.659 19.0769 24.659C19.0769 24.659 19.0915 24.6371 19.1208 24.586C19.1792 24.491 19.2157 24.4325 19.2157 24.4325C19.2157 24.4325 19.2157 24.4252 19.2157 24.4179C19.4495 24.0088 19.9756 23.0809 20.7574 21.5392C21.7657 19.5519 22.7374 17.0677 22.7374 17.0677C22.7374 17.0677 22.8251 17.6741 23.1247 18.6824C23.3 19.2742 23.6653 19.9245 23.9576 20.5529C23.7238 20.8816 23.5777 21.0643 23.5777 21.0643C23.5777 21.0643 23.5777 21.0643 23.585 21.0716C23.395 21.32 23.1904 21.5904 22.9639 21.8534C22.1675 22.8032 21.2177 23.8919 21.0862 24.206C20.9327 24.5787 20.9693 24.849 21.2615 25.0682C21.4734 25.2289 21.8533 25.2509 22.2406 25.2289C22.9566 25.1778 23.4608 25.0024 23.7092 24.8928C24.0964 24.754 24.5494 24.5421 24.9732 24.228C25.755 23.6508 26.2299 22.8251 26.186 21.7365C26.1641 21.1374 25.9668 20.5382 25.7257 19.9756C25.7988 19.8734 25.8645 19.7711 25.9376 19.6688C27.1724 17.8641 28.1295 15.8841 28.1295 15.8841C28.1295 15.8841 28.2172 16.4905 28.5168 17.4988C28.6629 18.0102 28.9625 18.5655 29.2255 19.1062C28.0638 20.0487 27.3477 21.1447 27.092 21.8607C26.6317 23.1905 26.9897 23.7896 27.6692 23.9284C27.9761 23.9942 28.4145 23.848 28.736 23.7092C29.1451 23.5777 29.6273 23.3512 30.0876 23.0151C30.8694 22.4379 31.622 21.6342 31.5781 20.5455C31.5562 20.0487 31.4247 19.5592 31.242 19.0843C32.2284 18.6751 33.4997 18.4486 35.1217 18.6386C38.5996 19.0477 39.2864 21.2177 39.1549 22.131C39.0233 23.0443 38.2927 23.5412 38.0516 23.6946C37.8105 23.848 37.7301 23.8992 37.752 24.0088C37.7813 24.1695 37.8982 24.1622 38.1027 24.133C38.3877 24.0818 39.9293 23.395 39.9951 21.7146C40.1047 19.5665 38.0589 17.2211 34.4422 17.2431ZM7.61321 26.2884C6.4588 27.5451 4.8514 28.02 4.15729 27.6181C3.41204 27.187 3.7043 25.3312 5.12174 24.0015C5.98389 23.1905 7.09446 22.4379 7.8324 21.9776C8.00045 21.8753 8.24887 21.7292 8.54843 21.5465C8.59957 21.5173 8.6288 21.5027 8.6288 21.5027C8.68725 21.4661 8.7457 21.4296 8.80415 21.3931C9.3229 23.2927 8.82607 24.9659 7.61321 26.2884ZM16.0155 20.5748C15.6137 21.5538 14.7735 24.0599 14.262 23.9211C13.8236 23.8042 13.5533 21.9045 14.1743 20.0268C14.4885 19.0843 15.1534 17.9591 15.5406 17.5207C16.169 16.8193 16.8631 16.5855 17.0311 16.8704C17.243 17.2431 16.264 19.961 16.0155 20.5748ZM22.9493 23.8919C22.7813 23.9795 22.6205 24.038 22.5475 23.9942C22.4963 23.9649 22.6205 23.848 22.6205 23.848C22.6205 23.848 23.49 22.9128 23.8334 22.489C24.0306 22.2406 24.2645 21.9484 24.5129 21.6196C24.5129 21.6488 24.5129 21.6853 24.5129 21.7146C24.5129 22.8324 23.4315 23.585 22.9493 23.8919ZM28.2976 22.6717C28.1734 22.584 28.1953 22.2918 28.6117 21.3785C28.7725 21.0205 29.1524 20.4213 29.8027 19.8441C29.8758 20.0779 29.9269 20.3044 29.9196 20.5163C29.9123 21.9265 28.904 22.4525 28.2976 22.6717Z" fill="#CD6799"/>
</g>
<defs>
<clipPath id="clip0_7223_8820">
<rect width="40.0244" height="30" fill="white"/>
</clipPath>
</defs>
</svg>
