<svg width="34" height="30" viewBox="0 0 34 30" fill="none" xmlns="http://www.w3.org/2000/svg">
<g clip-path="url(#clip0_7215_8823)">
<path d="M7.22952 0.987232L16.5677 0L25.9058 0.987232L33.1353 10.6922L16.5677 29.9851L0 10.6922L7.22952 0.987232Z" fill="#FDB300"/>
<path d="M6.71073 10.6922L16.5677 29.9851L0 10.6922H6.71073Z" fill="#EA6C00"/>
<path d="M26.4246 10.6922L16.5676 29.9851L33.1353 10.6922H26.4246Z" fill="#EA6C00"/>
<path d="M6.71069 10.6922H26.4246L16.5676 29.9851L6.71069 10.6922Z" fill="#FDAD00"/>
<path d="M16.5676 0L7.22946 0.987219L6.71069 10.6922L16.5676 0Z" fill="#FDD231"/>
<path d="M16.5676 0L25.9058 0.987219L26.4246 10.6922L16.5676 0Z" fill="#FDD231"/>
<path d="M33.1353 10.6922L25.9058 0.987213L26.4246 10.6922H33.1353ZM0 10.6922L7.22949 0.987213L6.71073 10.6922H0Z" fill="#FDAD00"/>
<path d="M16.5676 0L6.71069 10.6922H26.4246L16.5676 0Z" fill="#FEEEB7"/>
</g>
<defs>
<clipPath id="clip0_7215_8823">
<rect width="33.2022" height="30" fill="white"/>
</clipPath>
</defs>
</svg>
