<svg width="29" height="30" viewBox="0 0 29 30" fill="none" xmlns="http://www.w3.org/2000/svg">
<g clip-path="url(#clip0_7224_8703)">
<path d="M17.0907 8.73C17.0907 11.0453 16.1904 13.2658 14.5879 14.903C12.9853 16.5402 10.8117 17.46 8.54537 17.46C6.27899 17.46 4.10545 16.5402 2.50288 14.903C0.900313 13.2658 1.03843e-09 11.0453 0 8.73C0 6.41466 0.900313 4.19415 2.50288 2.55696C4.10545 0.919765 6.27899 0 8.54537 0C10.8117 0 12.9853 0.919765 14.5879 2.55696C16.1904 4.19415 17.0907 6.41466 17.0907 8.73Z" fill="url(#paint0_linear_7224_8703)"/>
<path d="M28.9999 21.267C28.9999 22.4138 28.7788 23.5494 28.3492 24.609C27.9196 25.6685 27.29 26.6312 26.4962 27.4422C25.7024 28.2531 24.76 28.8964 23.7229 29.3352C22.6858 29.7741 21.5742 30 20.4516 30C18.1845 30 16.0102 29.0799 14.4071 27.4422C12.8039 25.8044 11.9033 23.5831 11.9033 21.267C11.9033 18.9509 12.8039 16.7296 14.4071 15.0918C16.0102 13.4541 18.1845 12.534 20.4516 12.534C21.5742 12.534 22.6858 12.7599 23.7229 13.1988C24.76 13.6376 25.7024 14.2809 26.4962 15.0918C27.29 15.9028 27.9196 16.8655 28.3492 17.925C28.7788 18.9846 28.9999 20.1202 28.9999 21.267Z" fill="url(#paint1_linear_7224_8703)"/>
<path opacity="0.05" fill-rule="evenodd" clip-rule="evenodd" d="M0.03125 9.47699C0.163982 11.1265 0.749987 12.7036 1.72136 14.0257C2.69274 15.3478 4.00972 16.3607 5.5197 16.947C7.02967 17.5334 8.67084 17.6692 10.253 17.3387C11.8352 17.0081 13.2936 16.2249 14.4593 15.0796C15.625 13.9343 16.4502 12.4739 16.8393 10.8676C17.2284 9.2613 17.1655 7.57487 16.6579 6.00372C16.1503 4.43256 15.2187 3.041 13.9711 1.99029C12.7235 0.939573 11.211 0.272715 9.60881 0.0669861C7.43335 0.812897 5.44617 2.04363 3.79014 3.67069C2.1341 5.29774 0.850376 7.2807 0.03125 9.47699Z" fill="black"/>
<path opacity="0.05" fill-rule="evenodd" clip-rule="evenodd" d="M28.9775 20.64C28.8659 18.9704 28.2901 17.3685 27.3182 16.0238C26.3463 14.6791 25.0191 13.6479 23.4934 13.052C21.9677 12.4562 20.3075 12.3207 18.709 12.6616C17.1106 13.0025 15.6408 13.8055 14.4736 14.9757C13.3064 16.1458 12.4906 17.6341 12.1227 19.2646C11.7548 20.895 11.8501 22.5994 12.3975 24.176C12.9448 25.7526 13.9213 27.1356 15.2113 28.1613C16.5013 29.1871 18.051 29.8126 19.677 29.964C21.793 29.1917 23.7204 27.958 25.326 26.3481C26.9317 24.7382 28.1775 22.7903 28.9775 20.639V20.64Z" fill="black"/>
<path opacity="0.1" fill-rule="evenodd" clip-rule="evenodd" d="M0.431152 11.473C0.879995 12.8804 1.66974 14.1481 2.72654 15.1576C3.78333 16.1671 5.07264 16.8853 6.47389 17.2452C7.87513 17.6051 9.34253 17.5948 10.7389 17.2153C12.1352 16.8359 13.4148 16.0996 14.458 15.0754C15.5013 14.0512 16.274 12.7726 16.7041 11.359C17.1341 9.94547 17.2073 8.44322 16.917 6.99277C16.6266 5.54232 15.982 4.19106 15.0436 3.06535C14.1052 1.93965 12.9036 1.07628 11.5512 0.556C8.88596 1.12514 6.43037 2.45032 4.46429 4.38051C2.49821 6.3107 1.10073 8.76824 0.431152 11.473Z" fill="black"/>
<path opacity="0.1" fill-rule="evenodd" clip-rule="evenodd" d="M28.5893 18.588C28.1471 17.164 27.3567 15.8796 26.2933 14.8572C25.23 13.8347 23.9291 13.1082 22.5144 12.7466C21.0997 12.3851 19.6183 12.4007 18.2111 12.7919C16.8039 13.183 15.5178 13.9367 14.4751 14.9813C13.4325 16.0259 12.6679 17.3266 12.2542 18.7596C11.8405 20.1926 11.7915 21.7103 12.1118 23.1683C12.432 24.6262 13.1109 25.9759 14.0839 27.0889C15.0568 28.202 16.2914 29.0413 17.6703 29.527C20.3013 28.9218 22.7162 27.578 24.6446 25.6461C26.573 23.7142 27.9388 21.2703 28.5893 18.588Z" fill="black"/>
<path opacity="0.1" fill-rule="evenodd" clip-rule="evenodd" d="M0.745361 12.301C1.30136 13.5851 2.15077 14.7132 3.22179 15.59C4.29282 16.4667 5.554 17.0663 6.89877 17.338C8.24353 17.6098 9.63236 17.5458 10.9479 17.1514C12.2634 16.757 13.467 16.0439 14.457 15.0722C15.4469 14.1005 16.1941 12.8988 16.6355 11.5687C17.0768 10.2386 17.1993 8.81915 16.9926 7.4303C16.7859 6.04145 16.256 4.724 15.4478 3.58929C14.6396 2.45458 13.5769 1.53595 12.3493 0.911011C9.51027 1.36396 6.87527 2.69903 4.80014 4.73591C2.725 6.7728 1.3097 9.41337 0.745361 12.301Z" fill="black"/>
<path opacity="0.1" fill-rule="evenodd" clip-rule="evenodd" d="M28.2742 17.743C27.7211 16.444 26.8685 15.302 25.7898 14.4152C24.7111 13.5284 23.4385 12.9232 22.0813 12.6518C20.7241 12.3803 19.3229 12.4505 17.998 12.8566C16.6732 13.2626 15.4643 13.9922 14.4752 14.9827C13.4861 15.9732 12.7464 17.1951 12.3196 18.5432C11.8928 19.8914 11.7917 21.3256 12.025 22.7227C12.2583 24.1198 12.8189 25.4379 13.6588 26.5639C14.4987 27.6898 15.5927 28.59 16.8469 29.187C19.661 28.6969 22.2624 27.3389 24.3041 25.2942C26.3459 23.2495 27.7308 20.6153 28.2742 17.743Z" fill="black"/>
<path d="M28.0361 15.065C28.0361 16.8808 27.686 18.6788 27.0058 20.3564C26.3256 22.0339 25.3287 23.5582 24.0719 24.8422C22.8151 26.1261 21.323 27.1446 19.6809 27.8395C18.0388 28.5344 16.2788 28.892 14.5014 28.892C12.724 28.892 10.964 28.5344 9.32195 27.8395C7.67985 27.1446 6.18781 26.1261 4.931 24.8422C3.67419 23.5582 2.67724 22.0339 1.99706 20.3564C1.31688 18.6788 0.966797 16.8808 0.966797 15.065C0.966797 13.2492 1.31688 11.4512 1.99706 9.77364C2.67724 8.09607 3.67419 6.5718 4.931 5.28784C6.18781 4.00389 7.67985 2.9854 9.32195 2.29052C10.964 1.59565 12.724 1.23801 14.5014 1.23801C16.2788 1.23801 18.0388 1.59565 19.6809 2.29052C21.323 2.9854 22.8151 4.00389 24.0719 5.28784C25.3287 6.5718 26.3256 8.09607 27.0058 9.77364C27.686 11.4512 28.0361 13.2492 28.0361 15.065Z" fill="url(#paint2_linear_7224_8703)"/>
<path fill-rule="evenodd" clip-rule="evenodd" d="M10.6957 14.585C10.1487 14.216 9.69233 13.7225 9.36204 13.143C9.04316 12.5307 8.88577 11.8437 8.90545 11.15C8.88128 10.2696 9.17442 9.41089 9.72887 8.738C10.3051 8.06227 11.0456 7.55507 11.8752 7.268C12.7775 6.94129 13.7281 6.77719 14.685 6.783C15.311 6.77694 15.9364 6.82612 16.5542 6.93C16.9965 7 17.4308 7.11489 17.8508 7.273C18.2365 7.40681 18.5847 7.63468 18.8655 7.937C19.0723 8.18573 19.1836 8.5032 19.1786 8.83C19.186 8.99978 19.1607 9.16938 19.1041 9.32912C19.0475 9.48886 18.9608 9.63561 18.8489 9.761C18.743 9.87654 18.6144 9.96781 18.4717 10.0288C18.3289 10.0898 18.1752 10.1192 18.0206 10.115C17.8078 10.1132 17.5979 10.0648 17.405 9.973C16.9293 9.75478 16.4393 9.571 15.9386 9.423C15.4777 9.29843 15.0026 9.23788 14.5259 9.243C13.9047 9.21957 13.2901 9.3807 12.7562 9.707C12.5309 9.84733 12.3464 10.0471 12.2222 10.2855C12.0979 10.5238 12.0384 10.792 12.0498 11.062C12.0466 11.4165 12.1781 11.7583 12.4167 12.015C12.7001 12.3165 13.0351 12.5623 13.405 12.74C13.8193 12.9507 14.4372 13.23 15.2586 13.578C15.3496 13.6075 15.4383 13.644 15.524 13.687C16.3256 14.012 17.0942 14.417 17.8186 14.896C18.3908 15.2784 18.8732 15.7859 19.2313 16.382C19.5839 17.0086 19.7605 17.7229 19.7415 18.446C19.7711 19.3313 19.5236 20.2032 19.0352 20.934C18.5378 21.6259 17.8498 22.1494 17.0596 22.437C16.1073 22.7858 15.1009 22.9538 14.0898 22.933C12.7004 22.9828 11.3176 22.7147 10.042 22.148C9.71593 21.9991 9.43 21.7713 9.20887 21.484C9.02527 21.2208 8.93009 20.9035 8.93765 20.58C8.92853 20.4094 8.95565 20.2388 9.01713 20.0799C9.07861 19.9211 9.17299 19.7778 9.29374 19.66C9.54691 19.4328 9.87557 19.3139 10.2118 19.328C10.5864 19.3332 10.9544 19.4303 11.285 19.611C11.696 19.8217 12.0202 19.9797 12.2576 20.085C12.5288 20.2013 12.8096 20.2924 13.0967 20.357C13.4507 20.4366 13.8123 20.4748 14.1747 20.471C14.8156 20.5179 15.4534 20.3437 15.9864 19.976C16.186 19.8159 16.3455 19.6095 16.4517 19.3737C16.5579 19.1378 16.6078 18.8795 16.5972 18.62C16.5978 18.252 16.4609 17.8978 16.2147 17.63C15.8894 17.2857 15.5085 17.0015 15.0889 16.79C14.5926 16.522 13.8947 16.1953 12.9952 15.81C12.1907 15.4814 11.4204 15.071 10.6957 14.585Z" fill="white"/>
</g>
<defs>
<linearGradient id="paint0_linear_7224_8703" x1="7.21268" y1="0.106" x2="10.0095" y2="17.3327" gradientUnits="userSpaceOnUse">
<stop offset="0.012" stop-color="#00B7F0"/>
<stop offset="0.339" stop-color="#009DE5"/>
<stop offset="0.755" stop-color="#0082D9"/>
<stop offset="1" stop-color="#0078D4"/>
</linearGradient>
<linearGradient id="paint1_linear_7224_8703" x1="13.0526" y1="25.645" x2="28.0301" y2="17.2093" gradientUnits="userSpaceOnUse">
<stop stop-color="#0078D4"/>
<stop offset="0.37" stop-color="#007AD5"/>
<stop offset="0.573" stop-color="#0082D9"/>
<stop offset="0.735" stop-color="#0090DF"/>
<stop offset="0.875" stop-color="#00A3E7"/>
<stop offset="1" stop-color="#00BCF2"/>
</linearGradient>
<linearGradient id="paint2_linear_7224_8703" x1="9.21948" y1="5.68901" x2="23.2292" y2="29.3624" gradientUnits="userSpaceOnUse">
<stop stop-color="#00B7F0"/>
<stop offset="1" stop-color="#007CC1"/>
</linearGradient>
<clipPath id="clip0_7224_8703">
<rect width="29" height="30" fill="white"/>
</clipPath>
</defs>
</svg>
