<svg width="30" height="30" viewBox="0 0 30 30" fill="none" xmlns="http://www.w3.org/2000/svg">
<g clip-path="url(#clip0_7224_8793)">
<path d="M6.30964 18.9048C6.30964 20.6429 4.90488 22.0476 3.16678 22.0476C1.42869 22.0476 0.0239258 20.6429 0.0239258 18.9048C0.0239258 17.1667 1.42869 15.7619 3.16678 15.7619H6.30964V18.9048ZM7.88107 18.9048C7.88107 17.1667 9.28583 15.7619 11.0239 15.7619C12.762 15.7619 14.1668 17.1667 14.1668 18.9048V26.7619C14.1668 28.5 12.762 29.9048 11.0239 29.9048C9.28583 29.9048 7.88107 28.5 7.88107 26.7619V18.9048Z" fill="#E01E5A"/>
<path d="M11.0238 6.28571C9.28571 6.28571 7.88095 4.88095 7.88095 3.14286C7.88095 1.40476 9.28571 0 11.0238 0C12.7619 0 14.1667 1.40476 14.1667 3.14286V6.28571H11.0238ZM11.0238 7.88095C12.7619 7.88095 14.1667 9.28572 14.1667 11.0238C14.1667 12.7619 12.7619 14.1667 11.0238 14.1667H3.14286C1.40476 14.1667 0 12.7619 0 11.0238C0 9.28572 1.40476 7.88095 3.14286 7.88095H11.0238Z" fill="#36C5F0"/>
<path d="M23.6189 11.0238C23.6189 9.28572 25.0236 7.88095 26.7617 7.88095C28.4998 7.88095 29.9046 9.28572 29.9046 11.0238C29.9046 12.7619 28.4998 14.1667 26.7617 14.1667H23.6189V11.0238ZM22.0474 11.0238C22.0474 12.7619 20.6427 14.1667 18.9046 14.1667C17.1665 14.1667 15.7617 12.7619 15.7617 11.0238V3.14286C15.7617 1.40476 17.1665 0 18.9046 0C20.6427 0 22.0474 1.40476 22.0474 3.14286V11.0238Z" fill="#2EB67D"/>
<path d="M18.9046 23.619C20.6427 23.619 22.0474 25.0238 22.0474 26.7619C22.0474 28.5 20.6427 29.9048 18.9046 29.9048C17.1665 29.9048 15.7617 28.5 15.7617 26.7619V23.619H18.9046ZM18.9046 22.0476C17.1665 22.0476 15.7617 20.6429 15.7617 18.9048C15.7617 17.1667 17.1665 15.7619 18.9046 15.7619H26.7855C28.5236 15.7619 29.9284 17.1667 29.9284 18.9048C29.9284 20.6429 28.5236 22.0476 26.7855 22.0476H18.9046Z" fill="#ECB22E"/>
</g>
<defs>
<clipPath id="clip0_7224_8793">
<rect width="30" height="30" fill="white"/>
</clipPath>
</defs>
</svg>
