<svg width="30" height="30" viewBox="0 0 30 30" fill="none" xmlns="http://www.w3.org/2000/svg">
<g clip-path="url(#clip0_6032_4535)">
<path d="M29.9978 8.3094C29.9961 8.00769 29.9927 7.70613 29.9844 7.40406C29.9668 6.74699 29.928 6.08396 29.8112 5.43391C29.6927 4.77376 29.499 4.15993 29.1937 3.56024C28.894 2.97131 28.5022 2.43239 28.0349 1.96505C27.5676 1.4977 27.0287 1.10598 26.4395 0.806133C25.8403 0.501188 25.2264 0.307522 24.5669 0.189019C23.9165 0.0718796 23.2534 0.0332879 22.5959 0.0155074C22.2939 0.00732435 21.9923 0.00388948 21.6905 0.00202051C21.3323 0 20.9738 0 20.6157 0H12.6742H9.38429C9.0258 0 8.66772 0 8.30958 0.00207102C8.00767 0.00394 7.7057 0.00737486 7.40424 0.0155579C7.23987 0.0200031 7.07515 0.0257615 6.91033 0.033692C6.41591 0.057534 5.92073 0.101228 5.43318 0.189069C4.93851 0.277972 4.46945 0.409103 4.01312 0.597768C3.86103 0.660606 3.71029 0.729909 3.56047 0.806133C3.11859 1.03102 2.70489 1.30757 2.32862 1.62894C2.2032 1.73607 2.08192 1.84816 1.96513 1.965C1.49768 2.43234 1.10591 2.97126 0.806215 3.56019C0.500916 4.15988 0.307452 4.77371 0.188848 5.43386C0.0721638 6.08391 0.03337 6.74694 0.0156906 7.40401C0.00740648 7.70608 0.0039211 8.00764 0.0019511 8.30935C-0.000321973 8.66769 -1.8896e-05 9.02607 -1.8896e-05 9.38431V14.2749V20.6155C-1.8896e-05 20.9741 -0.000372485 21.3321 0.0019511 21.6907C0.0039211 21.9924 0.00740648 22.294 0.0156906 22.5956C0.03337 23.253 0.0721133 23.9162 0.188848 24.5659C0.307452 25.2259 0.500916 25.8403 0.806215 26.4398C1.10591 27.0289 1.49768 27.5676 1.96513 28.0348C2.43222 28.5023 2.97129 28.894 3.56052 29.1941C4.15976 29.499 4.77364 29.6925 5.43334 29.811C6.08333 29.928 6.74687 29.9668 7.40429 29.9844C7.70575 29.9925 8.00772 29.996 8.30963 29.9978C8.66777 30.0003 9.02585 30 9.38434 30H20.6157C20.9738 30 21.3323 30.0003 21.6905 29.9978C21.9923 29.996 22.2939 29.9925 22.5958 29.9844C23.2534 29.9668 23.9164 29.9279 24.5668 29.811C25.2264 29.6925 25.8403 29.499 26.4395 29.1941C27.0287 28.8941 27.5676 28.5023 28.0348 28.0348C28.5022 27.5676 28.894 27.0289 29.1936 26.4398C29.4989 25.8403 29.6926 25.2259 29.8111 24.5659C29.9279 23.9162 29.9668 23.253 29.9844 22.5956C29.9926 22.294 29.996 21.9925 29.9978 21.6907C30.0001 21.3321 29.9999 20.9741 29.9999 20.6155V9.38431C30 9.02607 30.0001 8.66769 29.9978 8.3094Z" fill="#F05138"/>
<path d="M23.7716 18.5183C23.7709 18.5174 23.7702 18.5168 23.7695 18.5159C23.8026 18.403 23.8369 18.2907 23.8659 18.175C25.1111 13.2141 22.0722 7.34911 16.9297 4.26102C19.1832 7.31598 20.1797 11.0162 19.2944 14.2522C19.2154 14.5408 19.1205 14.8178 19.0156 15.0871C18.9017 15.0123 18.7583 14.9273 18.5656 14.8211C18.5656 14.8211 13.4503 11.6627 7.90602 6.07624C7.76054 5.9296 10.8624 10.5097 14.3827 14.229C12.7242 13.2982 8.10206 9.93516 5.17596 7.25703C5.53546 7.85657 5.96305 8.43388 6.43307 8.98967C8.87662 12.0886 12.0633 15.9121 15.8811 18.8482C13.1987 20.4898 9.40837 20.6174 5.63451 18.8499C4.70109 18.4125 3.82358 17.8847 3.01128 17.285C4.60875 19.8402 7.06908 22.0447 10.0635 23.3318C13.6345 24.8664 17.1856 24.7623 19.8305 23.3569L19.8284 23.3599C19.8405 23.3523 19.8558 23.344 19.8684 23.3362C19.977 23.2779 20.0847 23.2184 20.1902 23.1556C21.4609 22.496 23.9709 21.8268 25.3181 24.4481C25.6481 25.0896 26.3492 21.6899 23.7716 18.5183Z" fill="white"/>
</g>
<defs>
<clipPath id="clip0_6032_4535">
<rect width="30" height="30" fill="white"/>
</clipPath>
</defs>
</svg>
