<svg width="30" height="30" viewBox="0 0 30 30" fill="none" xmlns="http://www.w3.org/2000/svg">
<g clip-path="url(#clip0_7224_8777)">
<path d="M15 30C23.2843 30 30 23.2843 30 15C30 6.71573 23.2843 0 15 0C6.71573 0 0 6.71573 0 15C0 23.2843 6.71573 30 15 30Z" fill="url(#paint0_linear_7224_8777)"/>
<path d="M10.1538 16.0965L11.9334 21.0222C11.9334 21.0222 12.1559 21.4831 12.3942 21.4831C12.6324 21.4831 16.1761 17.7966 16.1761 17.7966L20.1167 10.1854L10.2173 14.825L10.1538 16.0965Z" fill="#C8DAEA"/>
<path d="M12.5131 17.3597L12.1715 20.9905C12.1715 20.9905 12.0285 22.103 13.1408 20.9905C14.253 19.878 15.3176 19.0201 15.3176 19.0201" fill="#A9C6D8"/>
<path d="M10.1855 16.2722L6.52477 15.0795C6.52477 15.0795 6.08727 14.902 6.22814 14.4995C6.25714 14.4165 6.31564 14.3459 6.49064 14.2245C7.30177 13.6591 21.5039 8.55449 21.5039 8.55449C21.5039 8.55449 21.9049 8.41936 22.1414 8.50924C22.1999 8.52735 22.2525 8.56068 22.2939 8.60581C22.3353 8.65095 22.364 8.70627 22.377 8.76611C22.4026 8.87182 22.4133 8.98058 22.4088 9.08924C22.4076 9.18324 22.3963 9.27036 22.3876 9.40699C22.3011 10.8026 19.7126 21.2186 19.7126 21.2186C19.7126 21.2186 19.5578 21.8281 19.0029 21.849C18.8665 21.8534 18.7307 21.8303 18.6034 21.7811C18.4762 21.7319 18.3602 21.6575 18.2623 21.5625C17.1734 20.6259 13.4099 18.0966 12.5783 17.5404C12.5595 17.5276 12.5437 17.5109 12.5319 17.4915C12.5202 17.4721 12.5127 17.4504 12.51 17.4279C12.4984 17.3692 12.5621 17.2966 12.5621 17.2966C12.5621 17.2966 19.1154 11.4716 19.2898 10.8601C19.3033 10.8127 19.2523 10.7894 19.1838 10.8101C18.7485 10.9702 11.2033 15.7351 10.3705 16.261C10.3106 16.2791 10.2472 16.283 10.1855 16.2722Z" fill="white"/>
</g>
<defs>
<linearGradient id="paint0_linear_7224_8777" x1="15" y1="30" x2="15" y2="0" gradientUnits="userSpaceOnUse">
<stop stop-color="#1D93D2"/>
<stop offset="1" stop-color="#38B0E3"/>
</linearGradient>
<clipPath id="clip0_7224_8777">
<rect width="30" height="30" fill="white"/>
</clipPath>
</defs>
</svg>
