<svg width="51" height="30" viewBox="0 0 51 30" fill="none" xmlns="http://www.w3.org/2000/svg">
<g clip-path="url(#clip0_7223_8834)">
<path d="M4.65863 0H45.5175C48.1031 0 50.1965 2.09314 50.1965 4.67902V20.2755C50.1965 22.8612 48.1033 24.9545 45.5175 24.9545H30.8651L32.8763 29.8796L24.0314 24.9545H4.67941C2.09373 24.9545 0.000393751 22.8614 0.000393751 20.2755V4.67902C-0.0201278 2.11373 2.07314 0 4.65882 0H4.65863Z" fill="#7F54B3"/>
<path d="M2.85838 4.2647C3.14405 3.87701 3.57256 3.67296 4.14389 3.63215C5.18454 3.55053 5.77628 4.04025 5.91913 5.10131C6.55168 9.36601 7.24544 12.9776 7.98011 15.9364L12.4487 7.42758C12.8568 6.65219 13.367 6.24409 13.9791 6.20329C14.8769 6.14207 15.4279 6.71341 15.6523 7.91731C16.1624 10.6312 16.8154 12.9369 17.5908 14.8957C18.1213 9.7128 19.0191 5.97888 20.2843 3.67299C20.5904 3.10166 21.0393 2.81599 21.631 2.77517C22.1003 2.73436 22.5289 2.8772 22.9165 3.18327C23.3042 3.48935 23.5083 3.87703 23.5491 4.34635C23.5695 4.71364 23.5083 5.0197 23.345 5.32578C22.5492 6.79494 21.8963 9.26401 21.3658 12.6919C20.8557 16.0179 20.672 18.6093 20.7945 20.4662C20.8353 20.9763 20.7537 21.4252 20.5496 21.8129C20.3048 22.2618 19.9375 22.5067 19.4682 22.5475C18.9376 22.5883 18.3867 22.3434 17.8562 21.7925C15.9585 19.854 14.4485 16.9566 13.3468 13.0999C12.0205 15.7117 11.0411 17.6707 10.4085 18.9766C9.20466 21.2823 8.18442 22.4658 7.32736 22.527C6.77642 22.5678 6.30711 22.0985 5.89901 21.1191C4.85836 18.4459 3.73607 13.2836 2.53215 5.6318C2.45053 5.10127 2.57296 4.63196 2.85862 4.26466L2.85838 4.2647ZM46.7094 7.46823C45.9748 6.18272 44.8933 5.40725 43.4447 5.10117C43.057 5.01955 42.6897 4.97874 42.3428 4.97874C40.3839 4.97874 38.7924 5.999 37.5477 8.03953C36.4866 9.77394 35.9561 11.6921 35.9561 13.7936C35.9561 15.3648 36.2826 16.7115 36.9355 17.8338C37.6701 19.1193 38.7516 19.8948 40.2002 20.2009C40.5879 20.2825 40.9552 20.3233 41.3021 20.3233C43.2813 20.3233 44.8729 19.3031 46.0972 17.2625C47.1583 15.5077 47.6888 13.5896 47.6888 11.488C47.7092 9.89645 47.3623 8.57019 46.7094 7.46823ZM44.1384 13.1204C43.8527 14.4671 43.3426 15.4669 42.5876 16.1404C41.9959 16.6709 41.445 16.8954 40.9348 16.7933C40.4451 16.6913 40.037 16.2628 39.7309 15.467C39.4861 14.8345 39.3636 14.2019 39.3636 13.6102C39.3636 13.1001 39.4044 12.5899 39.5065 12.1206C39.6901 11.284 40.037 10.4678 40.5879 9.69241C41.2613 8.69256 41.9755 8.28446 42.7101 8.42731C43.1998 8.52933 43.6079 8.95784 43.914 9.75362C44.1588 10.3862 44.2813 11.0187 44.2813 11.6105C44.2813 12.141 44.2404 12.6511 44.1384 13.1204L44.1384 13.1204ZM33.9358 7.46823C33.2013 6.18272 32.0994 5.40725 30.6711 5.10117C30.2834 5.01955 29.9161 4.97874 29.5693 4.97874C27.6104 4.97874 26.0189 5.999 24.7742 8.03953C23.7131 9.77394 23.1826 11.6921 23.1826 13.7936C23.1826 15.3648 23.509 16.7115 24.162 17.8338C24.8966 19.1193 25.978 19.8948 27.4267 20.2009C27.8144 20.2825 28.1817 20.3233 28.5286 20.3233C30.5078 20.3233 32.0994 19.3031 33.3237 17.2625C34.3847 15.5077 34.9153 13.5896 34.9153 11.488C34.9153 9.89645 34.5888 8.57019 33.9358 7.46823ZM31.3445 13.1204C31.0588 14.4671 30.5487 15.4669 29.7937 16.1404C29.202 16.6709 28.651 16.8954 28.1409 16.7933C27.6512 16.6913 27.2431 16.2628 26.937 15.467C26.6921 14.8345 26.5697 14.2019 26.5697 13.6102C26.5697 13.1001 26.6105 12.5899 26.7125 12.1206C26.8962 11.284 27.2431 10.4678 27.794 9.69241C28.4674 8.69256 29.1815 8.28446 29.9162 8.42731C30.4059 8.52933 30.814 8.95784 31.12 9.75362C31.3649 10.3862 31.4873 11.0187 31.4873 11.6105C31.5077 12.141 31.4465 12.6511 31.3445 13.1204L31.3445 13.1204Z" fill="white"/>
</g>
<defs>
<clipPath id="clip0_7223_8834">
<rect width="50.1961" height="30" fill="white"/>
</clipPath>
</defs>
</svg>
