<svg width="30" height="30" viewBox="0 0 30 30" fill="none" xmlns="http://www.w3.org/2000/svg">
<g clip-path="url(#clip0_6032_4708)">
<path d="M15.0006 30C6.68786 30 -0.06214 23.3748 0.000555309 15C0.0632506 6.62519 6.37556 0 15.0006 0C23.6262 0 30.0006 6.75 30.0006 15C30.0006 23.25 23.3133 30 15.0006 30ZM19.4379 27.6873L15.1881 16.2498L11.1879 27.9375C14.1258 28.6254 16.1256 28.8123 19.4379 27.6873ZM9.06325 27.0627L2.68825 9.62519C1.81286 11.5002 1.62595 13.0629 1.50056 15C1.56325 20.1246 4.43786 24.8121 9.06325 27.0627ZM28.4385 15C28.5006 11.6877 27.0012 9.06269 26.8758 8.68769C27.0012 11.2506 26.6256 12.5625 26.1885 14.0004L21.8133 26.5629C27.3135 23.25 28.3752 18.3123 28.5006 15H28.4385ZM14.5635 14.4375L12.4383 8.625L10.8756 8.50019C10.2509 8.0625 10.6254 7.37519 11.0631 7.37519C13.8756 7.56269 15.4377 7.56269 18.2508 7.37519C18.9387 7.37519 19.1256 8.37539 18.3129 8.50019L16.8129 8.625L21.6873 22.9998L23.9994 15.1248C24.1248 11.6877 23.1867 11.3127 21.9369 8.8125C20.9367 6.8748 21.9996 4.9998 23.9373 4.93769C22.374 3.43769 19.1871 1.56269 14.9994 1.5C10.8117 1.4373 6.37439 3.5625 3.74939 7.56269L8.37478 7.43789C8.93728 7.68808 8.68708 8.50019 8.37478 8.56289L6.74997 8.68769L11.625 23.3127L14.5635 14.4375Z" fill="#21759B"/>
</g>
<defs>
<clipPath id="clip0_6032_4708">
<rect width="30" height="30" fill="white"/>
</clipPath>
</defs>
</svg>
