<svg width="30" height="30" viewBox="0 0 30 30" fill="none" xmlns="http://www.w3.org/2000/svg">
<g clip-path="url(#clip0_7224_8785)">
<path d="M15 0C6.71667 0 0 6.715 0 15C0 23.285 6.71667 30 15 30C23.2833 30 30 23.285 30 15C30 6.715 23.2833 0 15 0ZM24.025 12.9867C23.26 13.665 21.5433 13.755 21.3683 13.895C21.1683 14.0533 21.11 14.35 21.11 15.1684V19.6833C21.105 21.9083 19.2933 23.7183 17.0733 23.72H16.8517C15.8717 23.7183 14.9067 23.3466 14.175 22.6966C13.44 23.3483 12.4733 23.7183 11.4967 23.72H11.275C9.05333 23.7183 7.24167 21.9083 7.23833 19.6833V12.7367C7.23833 11.9867 7.85 11.3766 8.6 11.3766C9.34834 11.3766 9.95667 11.9884 9.95667 12.7367V19.6833C9.95833 20.3967 10.5633 21.0017 11.275 21.0017H11.4983C12.2117 21 12.815 20.3967 12.8167 19.6817V16.7434C12.8167 15.9934 13.4267 15.3833 14.1767 15.3833C14.9267 15.3833 15.535 15.995 15.535 16.7434V19.6833C15.5367 20.3967 16.14 21.0017 16.8533 21.0017H17.075C17.785 21 18.39 20.3966 18.3917 19.68V12.045C18.3917 10.3183 18.99 8.84167 20.0533 7.86C21.5267 6.49833 24.685 6.54003 25.29 7.3117C25.9133 8.11003 25.505 11.6717 24.025 12.9867Z" fill="#77BB00"/>
</g>
<defs>
<clipPath id="clip0_7224_8785">
<rect width="30" height="30" fill="white"/>
</clipPath>
</defs>
</svg>
