<svg width="31" height="30" viewBox="0 0 31 30" fill="none" xmlns="http://www.w3.org/2000/svg">
<g clip-path="url(#clip0_7215_8795)">
<path d="M5.44872 0H25.3205C28.3333 0 30.7692 2.4359 30.7692 5.44872V24.5513C30.7692 27.5641 28.3333 30 25.3205 30H5.44872C2.4359 30 0 27.5641 0 24.5513V5.44872C0 2.4359 2.4359 0 5.44872 0Z" fill="#470137"/>
<path d="M16.1795 7.8846L12.3334 14.2308L16.4359 20.9615C16.4616 21.0128 16.4744 21.0641 16.4616 21.1154C16.4487 21.1666 16.3975 21.1282 16.3205 21.141H13.3846C13.1795 21.141 13.0385 21.1282 12.9487 21C12.6795 20.4615 12.3975 19.9359 12.1282 19.3974C11.859 18.8718 11.5641 18.3333 11.2564 17.782C10.9487 17.2308 10.6411 16.6795 10.3334 16.1154H10.3077C10.0385 16.6666 9.74362 17.2179 9.44875 17.7692C9.15387 18.3205 8.859 18.8718 8.57695 19.4102C8.28208 19.9487 7.98721 20.5 7.69234 21.0256C7.64105 21.1538 7.53849 21.1666 7.39746 21.1666H4.57695C4.52567 21.1666 4.48721 21.1923 4.48721 21.1282C4.47439 21.0769 4.48721 21.0256 4.51285 20.9872L8.50003 14.4487L4.61541 7.87178C4.57695 7.8205 4.56413 7.76921 4.58977 7.74357C4.61541 7.70511 4.66669 7.69229 4.71798 7.69229H7.62823C7.69234 7.69229 7.75644 7.70511 7.80772 7.71793C7.859 7.74357 7.89746 7.78203 7.93593 7.83332C8.17951 8.3846 8.46157 8.93588 8.75644 9.48716C9.06413 10.0384 9.359 10.5769 9.67951 11.1154C9.98721 11.6538 10.2693 12.1923 10.5385 12.7436H10.5641C10.8334 12.1795 11.1154 11.6282 11.3975 11.0897C11.6795 10.5513 11.9744 10.0128 12.2693 9.47434C12.5641 8.93588 12.8462 8.3846 13.1282 7.85896C13.1411 7.80768 13.1667 7.75639 13.2052 7.73075C13.2564 7.70511 13.3077 7.69229 13.3718 7.70511H16.077C16.1411 7.69229 16.2052 7.73075 16.218 7.79486C16.2308 7.80768 16.2052 7.85896 16.1795 7.8846Z" fill="#FF61F6"/>
<path d="M22.1025 21.4102C21.1538 21.4231 20.2051 21.2308 19.3461 20.8333C18.5384 20.4615 17.8717 19.8461 17.4102 19.0897C16.9358 18.3077 16.7051 17.3333 16.7051 16.1667C16.6923 15.2179 16.9358 14.282 17.4102 13.4615C17.8974 12.6282 18.6025 11.9359 19.4487 11.4743C20.3461 10.9743 21.423 10.7308 22.6923 10.7308C22.7564 10.7308 22.8461 10.7308 22.9615 10.7436C23.0769 10.7564 23.2051 10.7564 23.3589 10.7692V6.71794C23.3589 6.6282 23.3974 6.57691 23.4871 6.57691H26.0897C26.1538 6.56409 26.2051 6.61537 26.2179 6.66666C26.2179 6.67948 26.2179 6.6923 26.2179 6.6923V18.8974C26.2179 19.1282 26.2307 19.3846 26.2435 19.6667C26.2692 19.9359 26.282 20.1923 26.2948 20.4102C26.2948 20.5 26.2564 20.5769 26.1666 20.6154C25.4999 20.8974 24.7948 21.1026 24.0769 21.2308C23.423 21.3461 22.7692 21.4102 22.1025 21.4102ZM23.3589 18.8461V13.2051C23.2435 13.1795 23.1281 13.1538 23.0128 13.141C22.8717 13.1282 22.7307 13.1154 22.5897 13.1154C22.0897 13.1154 21.5897 13.2179 21.141 13.4487C20.7051 13.6667 20.3333 13.9872 20.0512 14.3974C19.7692 14.8077 19.6281 15.359 19.6281 16.0256C19.6153 16.4743 19.6923 16.9231 19.8461 17.3461C19.9743 17.6923 20.1666 18 20.423 18.2564C20.6666 18.4872 20.9615 18.6667 21.2948 18.7692C21.641 18.8846 21.9999 18.9359 22.3589 18.9359C22.5512 18.9359 22.7307 18.9231 22.8974 18.9102C23.064 18.9231 23.2051 18.8974 23.3589 18.8461Z" fill="#FF61F6"/>
</g>
<defs>
<clipPath id="clip0_7215_8795">
<rect width="30.7692" height="30" fill="white"/>
</clipPath>
</defs>
</svg>
