<svg width="134" height="30" viewBox="0 0 134 30" fill="none" xmlns="http://www.w3.org/2000/svg">
<g clip-path="url(#clip0_7224_8806)">
<path fill-rule="evenodd" clip-rule="evenodd" d="M108.692 8.99622C109.202 9.87663 109.369 10.8783 109.424 12.0044L109.497 13.5054V24.0009L109.571 25.5035C109.719 27.9573 111.528 29.7716 114.001 29.926L115.496 30V13.5054L115.57 12.0044C115.631 10.8909 115.796 9.87033 116.315 8.98362C116.843 8.07413 117.601 7.31956 118.512 6.79565C119.424 6.27175 120.458 5.99696 121.51 5.99888C122.561 6.00079 123.594 6.27934 124.504 6.80656C125.414 7.33378 126.169 8.09111 126.694 9.00252C127.204 9.88293 127.363 10.9035 127.424 12.0044L127.498 13.5006V24.0009L127.572 25.5035C127.727 27.9699 129.522 29.7842 132.003 29.926L133.497 30V12.0044C133.497 8.8223 132.234 5.77045 129.984 3.51991C127.734 1.26937 124.683 0.00440702 121.501 0.00315416C119.798 0.00135801 118.114 0.363042 116.562 1.06404C115.009 1.76504 113.625 2.78922 112.5 4.06815C111.375 2.78972 109.99 1.76579 108.438 1.06459C106.886 0.363378 105.202 0.000993004 103.499 0.00157889C101.007 0.00157889 98.6954 0.757564 96.7802 2.06321C95.6116 0.759138 92.9972 0.00157889 91.4962 0.00157889V30L92.9972 29.926C95.5077 29.7606 97.322 27.9951 97.4197 25.5035L97.5 24.0009V13.5054L97.574 12.0044C97.637 10.872 97.7945 9.87663 98.3064 8.98992C98.8348 8.081 99.5925 7.3266 100.504 6.80206C101.415 6.27751 102.448 6.00117 103.499 6.00063C104.551 6.00086 105.585 6.27775 106.496 6.80352C107.408 7.3293 108.165 8.08548 108.692 8.99622ZM5.99905 29.9275L7.5 30H29.9984L29.9244 28.5038C29.7212 26.0374 27.9746 24.2356 25.5003 24.075L23.9994 24.0009H10.5019L28.4975 5.99906L28.4235 4.50441C28.3069 2.01281 26.4862 0.212625 23.9994 0.0756019L22.4984 0.00787863L0 0.00157889L0.0740235 1.50252C0.270895 3.9453 2.04273 5.78486 4.49653 5.92661L5.99905 6.00063H19.4965L1.50094 24.0025L1.57497 25.5035C1.72302 27.9762 3.50745 29.7669 5.99905 29.926V29.9275ZM85.6074 4.39259C87.0005 5.78537 88.1055 7.43892 88.8595 9.25882C89.6134 11.0787 90.0015 13.0293 90.0015 14.9992C90.0015 16.9691 89.6134 18.9197 88.8595 20.7396C88.1055 22.5595 87.0005 24.2131 85.6074 25.6058C82.7929 28.418 78.9771 29.9977 74.9984 29.9977C71.0198 29.9977 67.2039 28.418 64.3894 25.6058C58.5321 19.7485 58.5321 10.2499 64.3894 4.39259C65.7812 3.00028 67.4336 1.89575 69.2523 1.14207C71.071 0.388386 73.0203 0.000310915 74.989 3.61581e-06C76.9608 -0.00136539 78.9136 0.386026 80.7356 1.14002C82.5576 1.89401 84.2131 2.99981 85.6074 4.39417V4.39259ZM81.3629 8.64028C83.05 10.3287 83.9977 12.6179 83.9977 15.0047C83.9977 17.3916 83.05 19.6808 81.3629 21.3692C79.6745 23.0563 77.3853 24.004 74.9984 24.004C72.6116 24.004 70.3224 23.0563 68.634 21.3692C66.9468 19.6808 65.9991 17.3916 65.9991 15.0047C65.9991 12.6179 66.9468 10.3287 68.634 8.64028C70.3224 6.95316 72.6116 6.00545 74.9984 6.00545C77.3853 6.00545 79.6745 6.95316 81.3629 8.64028ZM43.5085 3.61581e-06C45.4773 0.000517755 47.4267 0.38884 49.2453 1.1428C51.064 1.89675 52.7164 3.00157 54.108 4.39417C59.9669 10.2499 59.9669 19.7501 54.108 25.6058C51.2936 28.418 47.4777 29.9977 43.4991 29.9977C39.5204 29.9977 35.7045 28.418 32.8901 25.6058C27.0328 19.7485 27.0328 10.2499 32.8901 4.39259C34.2819 3.00028 35.9343 1.89575 37.7529 1.14207C39.5716 0.388386 41.5209 0.000310915 43.4896 3.61581e-06H43.5085ZM49.8635 8.63713C51.5511 10.3256 52.4991 12.6151 52.4991 15.0024C52.4991 17.3896 51.5511 19.6791 49.8635 21.3676C48.1751 23.0547 45.8859 24.0024 43.4991 24.0024C41.1122 24.0024 38.823 23.0547 37.1346 21.3676C35.4475 19.6792 34.4998 17.39 34.4998 15.0032C34.4998 12.6163 35.4475 10.3271 37.1346 8.6387C38.823 6.95158 41.1122 6.00387 43.4991 6.00387C45.8859 6.00387 48.1751 6.95158 49.8635 8.6387V8.63713Z" fill="#2D8CFF"/>
</g>
<defs>
<clipPath id="clip0_7224_8806">
<rect width="133.497" height="30" fill="white"/>
</clipPath>
</defs>
</svg>
