<svg width="113" height="32" viewBox="0 0 113 32" fill="none" xmlns="http://www.w3.org/2000/svg">
<path d="M29.2956 0H34.4787V31.9998H29.2956V0Z" fill="#1A1A1A"/>
<path d="M52.5067 21.8581C52.5067 26.8158 48.4504 27.2665 47.0983 27.2665C43.9434 27.2665 43.4927 24.337 43.4927 22.7595V10.3652H38.3096V22.5342C38.3096 25.4637 39.211 28.1679 41.0138 29.7454C42.5913 31.3228 44.6194 31.9989 47.0983 31.9989C48.9011 31.9989 51.1546 31.5482 52.5067 30.1961V31.9989H57.6898V10.3652H52.5067V21.8581Z" fill="#1A1A1A"/>
<path d="M67.8306 2.47852H62.6475V10.3658H58.8165V15.3235H62.6475V31.9994H67.8306V15.3235H71.6615V10.3658H67.8306V2.47852Z" fill="#1A1A1A"/>
<path d="M87.8867 25.4652C86.76 26.3666 85.1825 27.0427 83.6051 27.0427C79.9994 27.0427 77.5206 24.3385 77.5206 20.7328C77.5206 17.1272 79.9994 14.6484 83.6051 14.6484C85.1825 14.6484 86.76 15.0991 87.8867 16.2258L88.5628 16.9019L92.1684 13.5216L91.267 12.8456C89.2388 11.0428 86.5346 9.91602 83.6051 9.91602C77.2952 9.91602 72.5629 14.6484 72.5629 20.9582C72.5629 27.268 77.2952 32.0004 83.6051 32.0004C86.5346 32.0004 89.2388 30.8736 91.267 29.0708L92.1684 28.3948L88.5628 24.7892L87.8867 25.4652Z" fill="#1A1A1A"/>
<path d="M110.422 12.1689C108.844 10.5915 107.267 9.91543 104.788 9.91543C102.985 9.91543 101.182 10.3661 99.8303 11.7182V0H94.6472V31.9998H99.8303V20.0562C99.8303 15.0985 103.211 14.6478 104.563 14.6478C107.718 14.6478 107.492 17.5774 107.492 19.1548V31.7744H112.675V19.3802C112.675 16.4506 111.999 13.7464 110.422 12.1689Z" fill="#1A1A1A"/>
<path d="M22.0844 24.1123C20.2816 25.9151 17.5774 27.0419 14.6478 27.0419C9.01403 27.0419 4.95771 22.5349 4.95771 16.4504C4.95771 10.3659 9.01402 5.85893 14.8731 5.85893C17.5773 5.85893 20.2816 6.98568 22.3097 9.01384L22.9858 9.68989L26.366 6.30963L25.69 5.63358C22.7604 2.70402 18.9295 1.12657 14.8731 1.12657C6.30982 0.901216 0 7.66174 0 16.4504C0 25.2391 6.30982 31.9996 14.6478 31.9996C18.7041 31.9996 22.7604 30.4222 25.4646 27.4926L26.1407 26.8165L22.7604 23.4363L22.0844 24.1123Z" fill="#1A1A1A"/>
<path d="M83.3797 24.5647C85.371 24.5647 86.9853 22.9505 86.9853 20.9591C86.9853 18.9678 85.371 17.3535 83.3797 17.3535C81.3883 17.3535 79.774 18.9678 79.774 20.9591C79.774 22.9505 81.3883 24.5647 83.3797 24.5647Z" fill="#EF4335"/>
</svg>
