<svg width="154" height="154" viewBox="0 0 154 154" fill="none" xmlns="http://www.w3.org/2000/svg">
<g filter="url(#filter0_d_5523_2892)">
<circle cx="77" cy="61" r="45" fill="white"/>
</g>
<path d="M69.8294 94.985C70.011 95.3422 70.236 95.6239 70.5044 95.8299C70.7646 96.0423 71.1272 96.1795 71.5924 96.2417C72.1303 96.3136 72.5837 96.2152 72.9526 95.9463C73.3142 95.6765 73.5309 95.2727 73.6028 94.7348C73.6378 94.4731 73.6263 94.2274 73.5682 93.9977C73.5091 93.7753 73.4135 93.5775 73.2813 93.4045C73.1418 93.2305 72.9688 93.0853 72.7624 92.9689C72.555 92.8598 72.3205 92.7877 72.0588 92.7527C71.6009 92.6915 71.2154 92.7251 70.9023 92.8534C70.5819 92.9807 70.2945 93.1939 70.04 93.4928L68.8903 92.6288C69.2724 92.0954 69.744 91.7219 70.3053 91.5084C70.8592 91.2939 71.4997 91.2353 72.2265 91.3324C72.7135 91.3975 73.1545 91.5305 73.5493 91.7312C73.9442 91.932 74.2763 92.1873 74.5457 92.497C74.8068 92.8131 74.9983 93.179 75.1203 93.5948C75.235 94.0097 75.2598 94.4606 75.1947 94.9476C75.1296 95.4346 74.984 95.8591 74.7581 96.221C74.5312 96.5902 74.2471 96.8888 73.9058 97.117C73.5636 97.3524 73.1793 97.5155 72.7528 97.6065C72.3181 97.7038 71.8609 97.7203 71.3811 97.6562C69.9274 97.4618 68.9643 96.7523 68.4917 95.5275L69.8294 94.985Z" fill="black"/>
<path d="M64.4152 92.4824C64.5266 92.227 64.5874 91.9775 64.5975 91.7339C64.5981 91.4942 64.5567 91.2681 64.4732 91.0557C64.3802 90.8472 64.2538 90.66 64.094 90.4944C63.9246 90.3325 63.7222 90.2003 63.4869 90.0977C63.2584 89.998 63.0272 89.9412 62.7933 89.9272C62.5564 89.92 62.3333 89.9547 62.1238 90.0314C61.9115 90.1148 61.721 90.2397 61.5524 90.4062C61.3742 90.5765 61.2293 90.7894 61.118 91.0448C61.0066 91.3003 60.9506 91.5479 60.9501 91.7876C60.9399 92.0312 60.978 92.2558 61.0643 92.4614C61.1477 92.6738 61.2741 92.8609 61.4436 93.0228C61.6101 93.1914 61.8076 93.3255 62.0361 93.4252C62.2714 93.5277 62.5075 93.5827 62.7443 93.5899C62.9715 93.601 63.1946 93.5663 63.4137 93.4858C63.6232 93.4091 63.817 93.2856 63.9952 93.1153C64.1638 92.9488 64.3038 92.7379 64.4152 92.4824ZM59.6257 90.3942C59.8162 89.9572 60.0779 89.5953 60.411 89.3086C60.7344 89.0256 61.0963 88.8193 61.4967 88.6899C61.8904 88.5576 62.3096 88.5044 62.7543 88.5303C63.1923 88.5532 63.6197 88.6556 64.0365 88.8373C64.4533 89.019 64.8225 89.264 65.1441 89.5722C65.459 89.8775 65.7053 90.2209 65.8829 90.6024C66.0539 90.9809 66.1491 91.3864 66.1685 91.8189C66.1783 92.2552 66.0879 92.6918 65.8974 93.1287C65.7069 93.5656 65.45 93.9256 65.1266 94.2086C64.7935 94.4954 64.4302 94.705 64.0365 94.8373C63.636 94.9667 63.2168 95.02 62.7788 94.997C62.3341 94.9711 61.9034 94.8673 61.4866 94.6856C61.0698 94.5039 60.704 94.2603 60.3891 93.955C60.0675 93.6468 59.8212 93.3034 59.6502 92.9249C59.4726 92.5434 59.3788 92.1346 59.369 91.6983C59.3496 91.2658 59.4351 90.8311 59.6257 90.3942Z" fill="black"/>
<path d="M54.3782 90.2246L54.2028 85.3186L51.8658 88.1535L50.6266 87.1319L54.4959 82.4382L55.6417 83.3828L55.8171 88.2888L58.1541 85.4539L59.3849 86.4684L55.5155 91.1622L54.3782 90.2246Z" fill="black"/>
<path d="M44.5389 79.0616L45.7275 78.2277L47.0859 80.1637L50.8769 77.5039L51.8119 78.8365L48.0209 81.4964L49.3793 83.4324L48.1906 84.2663L44.5389 79.0616Z" fill="black"/>
<path d="M45.7837 72.2297L45.0815 70.2029L43.1701 71.8431L43.2529 72.0822L45.7837 72.2297ZM41.4592 71.3067L46.3606 66.8726L46.9224 68.494L46.2066 69.1495L47.3086 72.33L48.273 72.3917L48.842 74.0339L42.2299 73.531L41.4592 71.3067Z" fill="black"/>
<path d="M42.245 59.9675C41.9259 60.21 41.689 60.4816 41.5342 60.7825C41.3717 61.0764 41.3014 61.4578 41.3232 61.9266C41.3485 62.4687 41.5263 62.8972 41.8567 63.2121C42.1867 63.5198 42.6227 63.6609 43.1648 63.6357C43.4285 63.6234 43.6682 63.5681 43.8839 63.47C44.0922 63.3722 44.2697 63.2428 44.4164 63.0818C44.5627 62.9134 44.6747 62.7173 44.7523 62.4935C44.8227 62.2699 44.8517 62.0263 44.8394 61.7626C44.8179 61.3011 44.7161 60.9278 44.5339 60.6426C44.3514 60.3501 44.0904 60.1054 43.7509 59.9083L44.3957 58.6229C44.9887 58.9036 45.4404 59.301 45.7507 59.8151C46.0606 60.3218 46.2327 60.9415 46.2668 61.674C46.2897 62.1648 46.2376 62.6224 46.1106 63.0468C45.9836 63.4712 45.7917 63.8435 45.535 64.1638C45.2706 64.4771 44.9448 64.7309 44.5574 64.9252C44.1697 65.1121 43.7304 65.217 43.2396 65.2399C42.7488 65.2628 42.3052 65.1954 41.9088 65.0377C41.505 64.8803 41.1604 64.6541 40.875 64.3591C40.5823 64.0644 40.3532 63.7154 40.1875 63.312C40.0142 62.9016 39.9163 62.4547 39.8937 61.9712C39.8254 60.5061 40.3516 59.4318 41.4723 58.7482L42.245 59.9675Z" fill="black"/>
<path d="M41.7918 49.0461L43.2079 49.3672L42.6849 51.6736L47.2013 52.6977L46.8413 54.2854L42.3249 53.2613L41.8019 55.5678L40.3859 55.2467L41.7918 49.0461Z" fill="black"/>
<path d="M47.2673 38.9677L49.7308 40.8708C50.1603 41.2026 50.5679 41.3646 50.9538 41.3569C51.3339 41.3447 51.6853 41.1297 52.0081 40.7119C52.3264 40.2998 52.4435 39.9084 52.3593 39.5375C52.2693 39.1622 52.0096 38.8087 51.5801 38.4769L49.1166 36.5738L50.1118 35.2855L52.5667 37.1819C52.9671 37.4912 53.2763 37.8227 53.4942 38.1764C53.7121 38.5301 53.8426 38.895 53.8856 39.2711C53.9287 39.6472 53.8865 40.0316 53.7592 40.4244C53.6318 40.8171 53.4225 41.2021 53.1311 41.5794C52.8396 41.9566 52.52 42.2564 52.1721 42.4788C51.8243 42.7012 51.4629 42.839 51.0881 42.8924C50.7133 42.9457 50.3273 42.9116 49.9301 42.7901C49.5328 42.6685 49.134 42.4531 48.7336 42.1437L46.2787 40.2474L47.2673 38.9677Z" fill="black"/>
<path d="M58.2178 31.3106C57.7822 31.3203 57.3795 31.3971 57.0097 31.5411C56.6399 31.6851 56.2655 31.9018 55.8867 32.1911C55.6827 32.3469 55.5226 32.4876 55.4063 32.6133C55.2915 32.7287 55.2117 32.8357 55.1671 32.9344C55.1181 33.0272 55.0968 33.108 55.1032 33.1769C55.1155 33.2413 55.1417 33.2998 55.1817 33.3522C55.2574 33.4513 55.3552 33.4827 55.4752 33.4465C55.5907 33.4044 55.728 33.3365 55.887 33.2427L57.4147 32.3252C57.9941 31.9843 58.5272 31.8125 59.0141 31.8097C59.501 31.807 59.9225 32.0387 60.2786 32.505C60.4922 32.7848 60.6099 33.0778 60.6316 33.3842C60.6547 33.6803 60.6038 33.9821 60.4789 34.2897C60.3495 34.5915 60.1519 34.8947 59.8861 35.1991C59.6262 35.4991 59.3156 35.7871 58.9542 36.063C58.453 36.4458 57.9545 36.7295 57.4589 36.9142C56.9633 37.0989 56.4016 37.1911 55.7739 37.1907L55.616 35.7334C56.1263 35.7128 56.592 35.634 57.0132 35.4968C57.4403 35.3553 57.8403 35.1421 58.2133 34.8572C58.5455 34.6035 58.7964 34.352 58.9658 34.1027C59.1411 33.8489 59.1664 33.6404 59.0418 33.4772C58.9795 33.3956 58.9101 33.347 58.8337 33.3316C58.7573 33.3161 58.6389 33.3604 58.4784 33.4645L56.6705 34.5406C56.1131 34.874 55.6041 35.0412 55.1436 35.0422C54.6844 35.033 54.2768 34.7953 53.9208 34.329C53.7205 34.0667 53.6052 33.7949 53.5749 33.5136C53.546 33.222 53.5845 32.9341 53.6906 32.6501C53.8025 32.3617 53.9732 32.0837 54.2026 31.8163C54.4276 31.543 54.6974 31.2862 55.0121 31.0458C55.4784 30.6898 55.9607 30.4091 56.4591 30.2038C56.953 29.9928 57.5058 29.889 58.1175 29.8925L58.2178 31.3106Z" fill="black"/>
<path d="M67.9703 26.5868C68.1475 26.5395 68.3234 26.5304 68.4982 26.5597C68.6801 26.587 68.8438 26.6458 68.9893 26.736C69.14 26.8172 69.2726 26.9298 69.3869 27.0739C69.4994 27.2108 69.5792 27.3679 69.6265 27.545C69.6757 27.7292 69.6866 27.9123 69.6593 28.0941C69.63 28.2689 69.5713 28.4326 69.483 28.5852C69.3999 28.7289 69.2863 28.8578 69.1422 28.9722C69.0053 29.0847 68.8482 29.1645 68.6711 29.2118C68.4869 29.261 68.3074 29.271 68.1326 29.2417C67.9578 29.2125 67.7951 29.1573 67.6444 29.0761C67.4918 28.9878 67.3592 28.8751 67.2468 28.7382C67.1395 28.5922 67.0613 28.4272 67.0121 28.2429C66.9648 28.0658 66.9522 27.8908 66.9744 27.7179C67.0017 27.536 67.0605 27.3723 67.1507 27.2268C67.239 27.0742 67.3516 26.9417 67.4886 26.8292C67.6255 26.7167 67.7861 26.6359 67.9703 26.5868Z" fill="#FDDD0A"/>
<path d="M84.4001 26.9731C84.2207 26.6148 83.9975 26.3317 83.7304 26.124C83.4715 25.9101 83.1097 25.7705 82.6449 25.7054C82.1075 25.6302 81.6535 25.7258 81.283 25.9923C80.9197 26.2599 80.7004 26.6624 80.6252 27.1998C80.5886 27.4612 80.5986 27.707 80.6552 27.9371C80.7129 28.1599 80.8073 28.3582 80.9384 28.5321C81.0768 28.707 81.2489 28.8533 81.4546 28.9709C81.6612 29.0813 81.8953 29.1548 82.1568 29.1914C82.6143 29.2555 83 29.2244 83.3139 29.098C83.6351 28.9727 83.9238 28.7613 84.1802 28.464L85.3244 29.3351C84.9391 29.8661 84.4651 30.2367 83.9025 30.4467C83.3473 30.6577 82.7065 30.7124 81.9802 30.6107C81.4936 30.5425 81.0535 30.4068 80.6599 30.2036C80.2663 30.0004 79.9358 29.7431 79.6684 29.4317C79.4093 29.114 79.22 28.7469 79.1007 28.3303C78.9885 27.9147 78.9665 27.4636 79.0347 26.9771C79.1028 26.4905 79.251 26.0669 79.4792 25.7064C79.7084 25.3387 79.9943 25.0418 80.337 24.8158C80.6807 24.5825 81.066 24.4217 81.4931 24.3334C81.9284 24.2389 82.3857 24.2252 82.865 24.2923C84.3175 24.4957 85.2762 25.2112 85.7411 26.4389L84.4001 26.9731Z" fill="black"/>
<path d="M89.7987 29.5094C89.6857 29.7641 89.6234 30.0133 89.6117 30.2568C89.6096 30.4965 89.6496 30.7228 89.7317 30.9357C89.8235 31.1449 89.9487 31.3328 90.1075 31.4994C90.2759 31.6624 90.4774 31.7958 90.712 31.8999C90.94 32.001 91.1708 32.0592 91.4046 32.0747C91.6414 32.0834 91.8648 32.0501 92.0747 31.9747C92.2876 31.8926 92.4788 31.7689 92.6485 31.6034C92.8278 31.4342 92.9739 31.2223 93.0869 30.9675C93.1998 30.7128 93.2573 30.4656 93.2594 30.2258C93.2711 29.9823 93.2344 29.7575 93.1494 29.5513C93.0673 29.3384 92.942 29.1505 92.7736 28.9876C92.6082 28.8179 92.4115 28.6826 92.1836 28.5815C91.9489 28.4775 91.7132 28.4211 91.4764 28.4123C91.2493 28.3999 91.026 28.4332 90.8064 28.5123C90.5965 28.5877 90.4019 28.71 90.2226 28.8791C90.0529 29.0446 89.9116 29.2547 89.7987 29.5094ZM94.5751 31.6275C94.3819 32.0632 94.1178 32.4235 93.783 32.7082C93.4579 32.9892 93.0947 33.1931 92.6935 33.32C92.2989 33.4499 91.8794 33.5005 91.4349 33.4719C90.997 33.4462 90.5703 33.3412 90.1546 33.1568C89.739 32.9725 89.3714 32.7253 89.0517 32.415C88.7387 32.1078 88.4945 31.7629 88.3192 31.3803C88.1507 31.0007 88.058 30.5946 88.0412 30.162C88.0342 29.7257 88.1273 29.2897 88.3205 28.8539C88.5137 28.4182 88.7729 28.0598 89.0981 27.7788C89.4329 27.4941 89.7976 27.2868 90.1921 27.1569C90.5933 27.03 91.0128 26.9794 91.4507 27.0051C91.8952 27.0338 92.3253 27.1403 92.741 27.3246C93.1566 27.5089 93.5209 27.7547 93.8339 28.0619C94.1536 28.3721 94.3977 28.7171 94.5663 29.0967C94.7416 29.4792 94.8328 29.8887 94.8398 30.325C94.8566 30.7576 94.7683 31.1918 94.5751 31.6275Z" fill="black"/>
<path d="M99.8214 31.8298L99.9662 36.7368L102.321 33.9165L103.554 34.9458L99.6551 39.6153L98.5152 38.6636L98.3704 33.7566L96.0158 36.5769L94.7914 35.5546L98.6899 30.8851L99.8214 31.8298Z" fill="black"/>
<path d="M109.591 43.0538L108.397 43.8804L107.051 41.9359L103.243 44.5721L102.317 43.2336L106.124 40.5974L104.778 38.653L105.972 37.8265L109.591 43.0538Z" fill="black"/>
<path d="M108.303 49.8778L108.993 51.9089L110.914 50.2807L110.833 50.0411L108.303 49.8778ZM112.622 50.8278L107.693 55.2312L107.141 53.6063L107.861 52.9553L106.779 49.768L105.815 49.7003L105.256 48.0546L111.865 48.5987L112.622 50.8278Z" fill="black"/>
<path d="M111.766 62.1619C112.086 61.9214 112.325 61.6513 112.482 61.3514C112.646 61.0585 112.719 60.6776 112.7 60.2086C112.678 59.6664 112.503 59.2368 112.174 58.9198C111.846 58.6101 111.411 58.4662 110.869 58.4881C110.605 58.4988 110.365 58.5525 110.149 58.6493C109.94 58.7458 109.761 58.8741 109.614 59.0342C109.466 59.2016 109.353 59.397 109.274 59.6204C109.202 59.8434 109.172 60.0869 109.182 60.3507C109.201 60.8123 109.301 61.1862 109.481 61.4725C109.662 61.7661 109.921 62.0125 110.259 62.2117L109.607 63.4931C109.015 63.2087 108.566 62.8085 108.259 62.2925C107.952 61.7838 107.784 61.1631 107.755 60.4303C107.735 59.9394 107.79 59.4822 107.919 59.0586C108.049 58.635 108.243 58.2639 108.502 57.9452C108.768 57.6335 109.096 57.3817 109.484 57.1899C109.873 57.0054 110.313 56.9032 110.804 56.8834C111.295 56.8636 111.738 56.9338 112.133 57.0939C112.536 57.2538 112.879 57.4822 113.163 57.779C113.454 58.0755 113.681 58.4259 113.844 58.8303C114.015 59.2418 114.11 59.6893 114.129 60.1729C114.189 61.6384 113.656 62.7094 112.531 63.386L111.766 62.1619Z" fill="black"/>
<path d="M112.151 73.0859L110.737 72.756L111.274 70.4529L106.764 69.4007L107.134 67.8153L111.644 68.8674L112.181 66.5643L113.596 66.8942L112.151 73.0859Z" fill="black"/>
<path d="M106.613 83.1299L104.161 81.2115C103.734 80.8771 103.327 80.7125 102.941 80.7178C102.561 80.7276 102.208 80.9405 101.883 81.3563C101.562 81.7663 101.442 82.157 101.524 82.5284C101.612 82.9043 101.869 83.2594 102.297 83.5938L104.748 85.5123L103.745 86.7944L101.302 84.8827C100.904 84.5709 100.597 84.2375 100.381 83.8824C100.165 83.5274 100.037 83.1617 99.9962 82.7853C99.9555 82.409 100 82.0248 100.13 81.6328C100.26 81.2409 100.471 80.8572 100.765 80.4818C101.059 80.1064 101.38 79.8086 101.73 79.5884C102.079 79.3681 102.441 79.2325 102.816 79.1815C103.191 79.1306 103.577 79.1671 103.974 79.2911C104.37 79.4151 104.768 79.633 105.166 79.9448L107.609 81.8565L106.613 83.1299Z" fill="black"/>
<path d="M95.6147 90.7186C96.0503 90.7117 96.4534 90.6373 96.8241 90.4956C97.1948 90.3539 97.5705 90.1396 97.9512 89.8527C98.1561 89.6982 98.3171 89.5585 98.4341 89.4335C98.5497 89.3188 98.6301 89.2123 98.6754 89.1139C98.725 89.0214 98.7468 88.9407 98.7408 88.8718C98.7289 88.8073 98.7031 88.7487 98.6633 88.696C98.5883 88.5964 98.4907 88.5644 98.3705 88.5999C98.2547 88.6412 98.117 88.7083 97.9574 88.8011L96.424 89.709C95.8426 90.0463 95.3084 90.2148 94.8214 90.2145C94.3345 90.2142 93.9145 89.9799 93.5613 89.5114C93.3494 89.2303 93.2336 88.9365 93.2138 88.63C93.1925 88.3338 93.2453 88.0323 93.3722 87.7255C93.5034 87.4245 93.7029 87.1226 93.9706 86.8198C94.2324 86.5214 94.5448 86.2354 94.9079 85.9617C95.4115 85.5821 95.9117 85.3015 96.4084 85.1198C96.9052 84.9382 97.4674 84.8496 98.0952 84.8539L98.2439 86.3122C97.7336 86.3295 97.2674 86.4055 96.8453 86.54C96.4173 86.6789 96.016 86.8896 95.6412 87.1721C95.3074 87.4237 95.055 87.6737 94.884 87.922C94.7072 88.1747 94.6806 88.383 94.8042 88.547C94.866 88.6289 94.935 88.6779 95.0113 88.6939C95.0876 88.7098 95.2063 88.6663 95.3674 88.5632L97.182 87.4984C97.7415 87.1685 98.2515 87.0044 98.712 87.0062C99.1711 87.0183 99.5772 87.2586 99.9304 87.7271C100.129 87.9906 100.243 88.2631 100.271 88.5446C100.298 88.8364 100.258 89.124 100.15 89.4073C100.036 89.6951 99.864 89.972 99.6329 90.238C99.4062 90.5099 99.1348 90.765 98.8186 91.0034C98.3501 91.3565 97.866 91.6342 97.3664 91.8363C96.8712 92.0443 96.3177 92.1447 95.7061 92.1374L95.6147 90.7186Z" fill="black"/>
<path d="M85.8327 95.3817C85.6553 95.4278 85.4793 95.4358 85.3047 95.4054C85.123 95.3769 84.9596 95.3172 84.8147 95.2261C84.6645 95.1439 84.5326 95.0305 84.4192 94.8857C84.3076 94.7481 84.2287 94.5905 84.1825 94.4131C84.1345 94.2286 84.1247 94.0455 84.1532 93.8638C84.1835 93.6892 84.2433 93.5258 84.3326 93.3738C84.4165 93.2307 84.5309 93.1024 84.6757 92.9889C84.8133 92.8773 84.9709 92.7984 85.1483 92.7523C85.3328 92.7042 85.5124 92.6954 85.687 92.7257C85.8616 92.756 86.024 92.8123 86.1742 92.8944C86.3262 92.9837 86.4581 93.0971 86.5697 93.2348C86.676 93.3814 86.7532 93.5469 86.8013 93.7315C86.8474 93.9089 86.8589 94.084 86.8357 94.2567C86.8072 94.4384 86.7474 94.6018 86.6563 94.7467C86.5671 94.8988 86.4536 95.0306 86.316 95.1422C86.1783 95.2538 86.0172 95.3336 85.8327 95.3817Z" fill="#FDDD0A"/>
<path d="M72 56H83M83 56V67M83 56L72 67" stroke="#FDDD0A" stroke-width="1.5"/>
<defs>
<filter id="filter0_d_5523_2892" x="0" y="0" width="154" height="154" filterUnits="userSpaceOnUse" color-interpolation-filters="sRGB">
<feFlood flood-opacity="0" result="BackgroundImageFix"/>
<feColorMatrix in="SourceAlpha" type="matrix" values="0 0 0 0 0 0 0 0 0 0 0 0 0 0 0 0 0 0 127 0" result="hardAlpha"/>
<feOffset dy="16"/>
<feGaussianBlur stdDeviation="16"/>
<feComposite in2="hardAlpha" operator="out"/>
<feColorMatrix type="matrix" values="0 0 0 0 0 0 0 0 0 0 0 0 0 0 0 0 0 0 0.16 0"/>
<feBlend mode="normal" in2="BackgroundImageFix" result="effect1_dropShadow_5523_2892"/>
<feBlend mode="normal" in="SourceGraphic" in2="effect1_dropShadow_5523_2892" result="shape"/>
</filter>
</defs>
</svg>
