<svg width="36" height="36" viewBox="0 0 36 36" fill="none" xmlns="http://www.w3.org/2000/svg">
<path fill-rule="evenodd" clip-rule="evenodd" d="M4.9963 26.001C3.83962 26.0017 2.71901 26.4035 1.82538 27.1378C0.93174 27.8721 0.320379 28.8935 0.0954511 30.0279C-0.129476 31.1624 0.0459449 32.3397 0.591828 33.3594C1.13771 34.379 2.02028 35.1779 3.08917 35.6198C4.15807 36.0617 5.34715 36.1195 6.45383 35.7831C7.56051 35.4468 8.51632 34.7372 9.15842 33.7752C9.80051 32.8132 10.0892 31.6584 9.9752 30.5075C9.86123 29.3566 9.35169 28.2808 8.5334 27.4634C8.06905 26.999 7.51759 26.6307 6.91062 26.3798C6.30365 26.1287 5.65312 26 4.9963 26.001Z" fill="#1A1A1A"/>
<path fill-rule="evenodd" clip-rule="evenodd" d="M36 12.9998C36 18.6925 32.2216 23.5342 26.9621 25.2927L32.3407 36H21.8795L12.3106 17.0002H12.3375L12.2868 16.8967H23.394C25.6164 16.8967 27.4186 15.1506 27.4186 12.9967C27.4186 10.8429 25.6164 9.09678 23.394 9.09678H7.47753L2.99948 0H22.5896C29.9961 0 36 5.82095 36 12.9998Z" fill="#1A1A1A"/>
</svg>
