<svg width="111" height="91" viewBox="0 0 111 91" fill="none" xmlns="http://www.w3.org/2000/svg">
<circle cx="55" cy="55" r="36" fill="#1A1A1A"/>
<path d="M55.2721 41.5V62.5M55.2721 62.5L61.2721 56.5M55.2721 62.5L49.2721 56.5" stroke="#F3F3F5"/>
<path d="M5.28899 48.8061C4.97081 49.2135 4.73842 49.6387 4.59183 50.0818C4.43658 50.5244 4.34281 51.0312 4.3105 51.6023C4.29043 51.9571 4.29567 52.2482 4.3262 52.4756C4.35674 52.703 4.40295 52.8836 4.46483 53.0173C4.52671 53.151 4.60377 53.2465 4.69602 53.3038C4.7801 53.352 4.87405 53.379 4.97789 53.3848C5.18556 53.3966 5.33322 53.3181 5.42089 53.1495C5.4999 52.9803 5.56454 52.7583 5.61482 52.4834L5.98331 50.3428C6.12206 49.5781 6.37264 48.9846 6.73507 48.5624C7.09749 48.1402 7.61184 47.9479 8.27811 47.9856C8.68479 48.0086 9.02985 48.1236 9.31327 48.3306C9.58854 48.5285 9.81613 48.8018 9.99606 49.1505C10.1678 49.4901 10.284 49.8916 10.3446 50.3551C10.4143 50.8105 10.434 51.3064 10.4036 51.8428C10.362 52.5783 10.2381 53.2354 10.0317 53.814C9.82587 54.3839 9.49479 54.9424 9.03849 55.4895L7.82283 54.6526C8.19684 54.1789 8.48 53.7001 8.67231 53.2162C8.85645 52.7232 8.96541 52.1781 8.99918 51.5811C9.03149 51.01 8.98462 50.5343 8.85857 50.1539C8.73252 49.7735 8.51807 49.5747 8.21522 49.5576C8.01621 49.5463 7.86568 49.5986 7.76365 49.7143C7.65296 49.8296 7.57175 50.0377 7.52 50.3386L7.11087 52.7373C6.98273 53.4679 6.75092 54.0364 6.41543 54.4427C6.07178 54.8399 5.56682 55.0197 4.90055 54.982C4.51983 54.9605 4.19592 54.8554 3.92882 54.6666C3.66221 54.4693 3.44661 54.214 3.28203 53.9009C3.11746 53.5878 3.00316 53.2297 2.93915 52.8268C2.86698 52.4147 2.84386 51.9794 2.8698 51.5208C2.90799 50.8459 3.01727 50.2184 3.19765 49.6383C3.37804 49.0582 3.6918 48.4987 4.13896 47.9598L5.28899 48.8061Z" fill="#1A1A1A"/>
<path d="M7.97119 39.1704C7.52359 39.3397 7.15082 39.5824 6.85287 39.8985C6.55713 40.2062 6.3367 40.6367 6.19158 41.19C6.09923 41.542 6.07017 41.8749 6.10439 42.1885C6.13242 42.4915 6.22065 42.77 6.36908 43.024C6.50912 43.2758 6.70317 43.4924 6.95123 43.674C7.19928 43.8555 7.49517 43.9913 7.83887 44.0815C8.1742 44.1694 8.49447 44.1952 8.7997 44.1588C9.10713 44.114 9.38782 44.0174 9.64179 43.8689C9.88737 43.7183 10.1009 43.519 10.2825 43.2709C10.4662 43.0145 10.6032 42.7144 10.6933 42.3707C10.8384 41.8174 10.8577 41.3342 10.751 40.9209C10.6466 40.4993 10.4409 40.1049 10.134 39.7377L11.1581 38.7026C11.6756 39.2236 12.0166 39.8193 12.1812 40.4897C12.3375 41.1578 12.309 41.8985 12.0957 42.7117C11.9506 43.2649 11.7315 43.7585 11.4385 44.1924C11.1455 44.6262 10.7989 44.9743 10.3985 45.2367C9.98983 45.4968 9.53275 45.6682 9.02729 45.7506C8.52403 45.8247 7.99157 45.7881 7.4299 45.6407C6.86823 45.4934 6.38744 45.2598 5.98752 44.9399C5.5876 44.6199 5.27763 44.2475 5.05761 43.8224C4.8314 43.3867 4.69603 42.9122 4.6515 42.3988C4.60917 41.877 4.65947 41.3436 4.80239 40.7987C5.01567 39.9855 5.35855 39.3273 5.83102 38.8241C6.29511 38.3186 6.88042 37.9659 7.58693 37.7659L7.97119 39.1704Z" fill="#1A1A1A"/>
<path d="M9.02418 30.8486C9.21138 30.4675 9.44553 30.148 9.72664 29.8901C10.0038 29.6207 10.3125 29.4247 10.6527 29.3021C10.9889 29.168 11.3451 29.1112 11.7212 29.1317C12.1011 29.1445 12.4817 29.2445 12.8629 29.4317C13.3608 29.6762 13.7371 30.0011 13.9919 30.4062C14.2468 30.8114 14.3817 31.2542 14.3968 31.7347L16.6575 31.6139L15.8781 33.2009L14.0704 33.2545L12.8899 35.6582L14.3251 36.3631L13.6088 37.8217L7.15599 34.6527L9.02418 30.8486ZM11.5596 35.0049L12.6829 32.7179C12.8662 32.3445 12.918 31.9933 12.8381 31.6644C12.7505 31.3317 12.52 31.0737 12.1466 30.8903C11.7732 30.7069 11.4241 30.6803 11.0995 30.8106C10.767 30.937 10.5091 31.1869 10.3258 31.5603L9.20256 33.8474L11.5596 35.0049Z" fill="#1A1A1A"/>
<path d="M16.0195 26.5218C16.313 26.7514 16.6133 26.9091 16.9201 26.9951C17.2323 27.0742 17.5344 27.0959 17.8264 27.0601C18.1169 27.0122 18.3973 26.9069 18.6675 26.7442C18.931 26.5762 19.1668 26.359 19.375 26.0927C19.5832 25.8265 19.7371 25.5453 19.8367 25.2491C19.9295 24.9476 19.9614 24.6535 19.9325 24.3668C19.9021 24.068 19.8082 23.7801 19.6508 23.503C19.4988 23.2191 19.276 22.9623 18.9824 22.7328C18.6889 22.5032 18.386 22.3489 18.0738 22.2697C17.7669 22.1838 17.4682 22.1648 17.1777 22.2127C16.8858 22.2484 16.6081 22.3503 16.3446 22.5184C16.0743 22.6811 15.8351 22.8956 15.6269 23.1618C15.4187 23.4281 15.2682 23.712 15.1754 24.0135C15.0759 24.3097 15.0413 24.6072 15.0716 24.906C15.1005 25.1926 15.191 25.4779 15.343 25.7618C15.5004 26.0389 15.7259 26.2923 16.0195 26.5218ZM19.9834 21.4527C20.4272 21.7997 20.7667 22.2027 21.0019 22.6616C21.2302 23.1153 21.362 23.5869 21.3972 24.0765C21.4324 24.5661 21.3696 25.0615 21.2087 25.5628C21.0531 26.0572 20.8071 26.5195 20.4708 26.9496C20.1344 27.3797 19.7424 27.7333 19.2947 28.0103C18.8524 28.2805 18.3894 28.4576 17.9058 28.5414C17.4221 28.6253 16.9326 28.6111 16.4373 28.4988C15.9352 28.3812 15.4622 28.1489 15.0185 27.8019C14.5747 27.4549 14.2386 27.0546 14.0103 26.6009C13.7751 26.142 13.6399 25.6677 13.6047 25.1781C13.5695 24.6885 13.6296 24.1964 13.7852 23.702C13.9462 23.2008 14.1948 22.7351 14.5311 22.305C14.8675 21.8749 15.2568 21.5247 15.6991 21.2545C16.1468 20.9775 16.6125 20.797 17.0961 20.7131C17.5798 20.6293 18.0727 20.6461 18.5748 20.7637C19.0701 20.876 19.5397 21.1056 19.9834 21.4527Z" fill="#1A1A1A"/>
<path d="M20.8164 16.0682L24.5325 20.4166L28.2978 17.1989L29.2522 18.3156L24.2515 22.5891L19.581 17.1239L20.8164 16.0682Z" fill="#1A1A1A"/>
<path d="M28.6795 10.4066L31.5287 15.3664L35.8235 12.8993L36.5552 14.173L30.8514 17.4497L27.2704 11.216L28.6795 10.4066Z" fill="#1A1A1A"/>
<path d="M49.4044 3.31115L49.6936 4.73812L46.8269 5.31923L47.9659 10.938L46.3733 11.2608L45.2343 5.64207L42.3676 6.22318L42.0784 4.7962L49.4044 3.31115Z" fill="#1A1A1A"/>
<path d="M54.1837 6.80295C54.1811 7.17561 54.2394 7.5097 54.3586 7.80523C54.4865 8.10082 54.6537 8.35335 54.8602 8.56283C55.0754 8.76371 55.33 8.92153 55.6238 9.0363C55.9177 9.1424 56.2337 9.19666 56.5717 9.19907C56.9097 9.20149 57.2264 9.15175 57.5218 9.04985C57.8172 8.93929 58.0697 8.78509 58.2791 8.58725C58.4972 8.3808 58.668 8.13068 58.7915 7.83689C58.9236 7.54316 58.991 7.20997 58.9936 6.83731C58.9963 6.46465 58.9337 6.13053 58.8058 5.83494C58.6865 5.53942 58.5193 5.29122 58.3041 5.09034C58.0976 4.88086 57.8474 4.72307 57.5534 4.61697C57.2596 4.5022 56.9437 4.44361 56.6057 4.44119C56.2677 4.43878 55.951 4.49285 55.6555 4.60341C55.3601 4.7053 55.1033 4.85947 54.8852 5.06592C54.6757 5.26376 54.505 5.50955 54.3729 5.80328C54.2494 6.09707 54.1864 6.4303 54.1837 6.80295ZM60.6186 6.84892C60.6146 7.41224 60.5025 7.92712 60.2825 8.39356C60.0626 8.85133 59.7694 9.24358 59.4031 9.57031C59.0368 9.89703 58.6059 10.1496 58.1107 10.3281C57.624 10.5066 57.1077 10.5939 56.5617 10.59C56.0158 10.5861 55.4964 10.4914 55.0037 10.3059C54.5197 10.1204 54.0969 9.86174 53.7352 9.52982C53.3736 9.19789 53.0861 8.8015 52.8727 8.34063C52.6594 7.87109 52.5548 7.35467 52.5588 6.79135C52.5628 6.22803 52.6748 5.71748 52.8947 5.25971C53.1147 4.79327 53.4079 4.39668 53.7742 4.06996C54.1406 3.74323 54.5671 3.49061 55.0537 3.31208C55.549 3.13361 56.0696 3.04633 56.6156 3.05023C57.1616 3.05413 57.6766 3.14881 58.1606 3.33427C58.6533 3.51979 59.0805 3.77852 59.4421 4.11044C59.8037 4.44237 60.0912 4.8431 60.3045 5.31264C60.5179 5.7735 60.6226 6.2856 60.6186 6.84892Z" fill="#1A1A1A"/>
<path d="M76.504 7.57352L76.02 8.96052L71.3926 7.34591L70.9558 8.59789L75.1168 10.0497L74.6328 11.4367L70.4718 9.98488L70.0007 11.3351L74.8 13.0096L74.3075 14.4212L67.9739 12.2112L70.3423 5.42357L76.504 7.57352Z" fill="#1A1A1A"/>
<path d="M80.7975 9.93401L81.0288 13.2757L81.4217 13.5052L84.4459 12.0647L86.04 12.9956L82.2455 14.724L82.538 19.2756L80.9103 18.325L80.7099 14.7756L80.2721 14.5199L77.0822 16.0895L75.4545 15.1389L79.5541 13.1973L79.2034 9.00308L80.7975 9.93401Z" fill="#1A1A1A"/>
<path d="M91.2407 17.6428C91.5576 17.9256 91.8024 18.237 91.9752 18.577C92.1602 18.9164 92.2661 19.2664 92.2927 19.627C92.3316 19.9869 92.2906 20.3453 92.1697 20.702C92.0553 21.0646 91.8567 21.4042 91.574 21.7211C91.2912 22.038 90.9763 22.2738 90.6291 22.4286C90.2941 22.5827 89.9456 22.6608 89.5836 22.663C89.2338 22.6645 88.8798 22.5925 88.5217 22.4472C88.17 22.3076 87.8357 22.0964 87.5189 21.8137L85.5692 20.0739L84.5046 21.267L83.2921 20.1851L88.0786 14.8211L91.2407 17.6428ZM86.5559 18.9682L88.4571 20.6646C88.7675 20.9416 89.0918 21.0858 89.43 21.0973C89.7741 21.1023 90.0846 20.9496 90.3615 20.6392C90.6385 20.3288 90.7579 19.9997 90.7197 19.652C90.6873 19.2979 90.5159 18.9823 90.2055 18.7053L88.3043 17.0088L86.5559 18.9682Z" fill="#1A1A1A"/>
<path d="M96.4492 23.458L91.8934 26.9168L94.8884 30.8617L93.7184 31.75L89.7408 26.5108L95.4666 22.1638L96.4492 23.458Z" fill="#1A1A1A"/>
<path d="M98.3918 33.1453C98.0561 33.3072 97.7819 33.5068 97.5692 33.7441C97.3603 33.9892 97.2073 34.2506 97.1103 34.5283C97.0249 34.81 96.9954 35.1081 97.0219 35.4224C97.0563 35.733 97.1468 36.0405 97.2937 36.345C97.4405 36.6494 97.6247 36.9117 97.8464 37.132C98.0759 37.3485 98.3256 37.5071 98.5955 37.6078C98.877 37.7126 99.1768 37.7557 99.4949 37.737C99.8168 37.726 100.146 37.6397 100.481 37.4778C100.817 37.3159 101.089 37.1124 101.298 36.8673C101.511 36.63 101.66 36.3705 101.745 36.0887C101.842 35.811 101.874 35.5169 101.839 35.2063C101.813 34.8919 101.726 34.5825 101.579 34.2781C101.432 33.9737 101.244 33.7132 101.015 33.4967C100.793 33.2765 100.542 33.114 100.26 33.0092C99.9902 32.9084 99.6943 32.8635 99.3724 32.8744C99.0543 32.8931 98.7274 32.9834 98.3918 33.1453ZM101.187 38.9414C100.68 39.1862 100.168 39.3126 99.6525 39.3207C99.1447 39.3251 98.6634 39.2349 98.2086 39.0501C97.7538 38.8653 97.3372 38.5899 96.9587 38.224C96.5839 37.8659 96.2779 37.441 96.0408 36.9492C95.8036 36.4574 95.6597 35.9495 95.609 35.4255C95.5621 34.9093 95.6079 34.4157 95.7464 33.9448C95.885 33.4739 96.114 33.0411 96.4336 32.6464C96.7611 32.2479 97.1785 31.9263 97.6859 31.6816C98.1933 31.4369 98.7009 31.3124 99.2088 31.308C99.7244 31.2999 100.21 31.3882 100.664 31.573C101.119 31.7578 101.534 32.0292 101.909 32.3873C102.287 32.7532 102.595 33.1821 102.832 33.6739C103.069 34.1657 103.211 34.6697 103.258 35.1859C103.309 35.7099 103.265 36.2074 103.127 36.6783C102.988 37.1492 102.755 37.5839 102.428 37.9823C102.108 38.377 101.695 38.6967 101.187 38.9414Z" fill="#1A1A1A"/>
<path d="M106.287 44.6283C106.389 45.0406 106.415 45.4358 106.365 45.814C106.327 46.1986 106.216 46.5472 106.035 46.8599C105.864 47.1789 105.627 47.4515 105.326 47.6777C105.027 47.9123 104.671 48.0806 104.259 48.1824C103.721 48.3155 103.224 48.3088 102.768 48.1626C102.312 48.0163 101.924 47.764 101.603 47.4058L99.95 48.9525L99.5259 47.2361L100.876 46.0322L100.233 43.4324L98.6809 43.816L98.2911 42.2384L105.27 40.514L106.287 44.6283ZM101.672 43.0769L102.283 45.5506C102.383 45.9544 102.569 46.2566 102.842 46.457C103.123 46.6554 103.465 46.7046 103.869 46.6049C104.273 46.5051 104.557 46.3009 104.722 45.9924C104.896 45.6818 104.932 45.3245 104.832 44.9207L104.221 42.4471L101.672 43.0769Z" fill="#1A1A1A"/>
<path d="M107.544 57.2637L106.077 57.3362L105.835 52.4412L104.51 52.5066L104.728 56.9083L103.261 56.9808L103.043 52.5791L101.615 52.6497L101.866 57.7265L100.373 57.8003L100.042 51.1004L107.222 50.7457L107.544 57.2637Z" fill="#1A1A1A"/>
</svg>
